# Blender 4.0.2
# www.blender.org
mtllib hojaseis.mtl
o papel_en_madera.047
v 23.864429 26.574722 213.315933
v 24.075775 26.514664 214.301498
v 26.956993 26.458284 215.318878
v 22.722418 26.557333 213.559769
v 25.864761 26.768719 210.225555
v 22.796530 26.614845 212.625702
v 23.653074 26.634792 212.330368
v 24.410545 26.419506 215.862595
v 23.173109 26.507814 214.381775
v 23.318306 26.729942 210.769272
v 32.028706 26.328529 216.627289
v 32.332695 27.218441 205.943726
v 29.848383 26.948227 206.460007
v 38.084156 26.471708 215.337448
v 23.792934 26.801826 207.749649
v 25.973253 26.182131 217.916931
v 34.555977 27.919855 205.509705
v 35.837067 28.003946 206.988434
v 39.913387 26.241123 215.882004
v 22.014008 26.738157 207.170914
v 24.583952 26.007685 219.155090
v 37.343433 26.971596 203.897827
vn -0.0000 0.9981 0.0610
vn -0.0374 0.9965 0.0746
vn -0.1189 0.9843 0.1304
vn -0.0500 0.9963 0.0696
vn -0.2066 0.9592 0.1931
vn -0.0125 0.9981 0.0610
vn -0.3061 0.9191 0.2483
vn -0.3627 0.8957 0.2573
vt 0.122661 0.500000
vt 0.122661 0.442190
vt 0.282330 0.350621
vt 0.051055 0.500000
vt 0.282330 0.649379
vt 0.067508 0.551501
vt 0.122661 0.557810
vt 0.122661 0.350621
vt 0.067508 0.448499
vt 0.122661 0.649379
vt 0.544669 0.214855
vt 0.724139 0.813357
vt 0.544669 0.813357
vt 0.903608 0.214855
vt 0.185731 0.813357
vt 0.185731 0.214855
vt 0.851967 0.812677
vt 0.900074 0.716587
vt 1.005810 0.156917
vt 0.091667 0.872893
vt 0.091667 0.156917
vt 1.005810 0.872893
s 0
usemtl Mdl_141_Mtl_m_fg_signature_form
f 1/1/1 2/2/1 3/3/1
f 1/1/1 4/4/1 2/2/1
f 1/1/1 3/3/1 5/5/1
f 1/1/1 6/6/1 4/4/1
f 1/1/1 7/7/1 6/6/1
f 1/1/1 5/5/1 7/7/1
f 2/2/1 8/8/1 3/3/1
f 2/2/1 4/4/1 9/9/1
f 5/5/1 10/10/1 7/7/1
s 1
f 11/11/2 12/12/3 13/13/4
f 11/11/2 14/14/5 12/12/3
f 11/11/2 13/13/4 15/15/6
f 11/11/2 15/15/6 16/16/6
f 14/14/5 17/17/7 12/12/3
f 14/14/5 18/18/8 17/17/7
s 0
f 19/19/1 20/20/1 21/21/1
f 19/19/1 22/22/1 20/20/1
