# Blender 4.0.2
# www.blender.org
mtllib libroviejo.mtl
o cuaderno
v -56.130669 27.142683 141.609070
v -62.640419 27.142683 129.120590
v -66.260361 27.142685 146.889282
v -72.770119 27.142685 134.400787
v -71.142677 27.142685 137.522919
v -69.515244 27.142685 140.645035
v -69.454399 27.142685 136.642883
v -67.887802 27.142685 143.767166
v -67.826965 27.142685 139.765015
v -66.138687 27.142685 138.884979
v -67.766129 27.142685 135.762848
v -64.450409 27.142683 138.004944
v -66.077850 27.142683 134.882828
v -62.762096 27.142683 137.124893
v -64.389534 27.142683 134.002777
v -61.073818 27.142683 136.244858
v -62.701256 27.142683 133.122742
v -61.134659 27.142683 140.247009
v -62.822971 27.142683 141.127075
v -59.446381 27.142683 139.366989
v -64.511246 27.142685 142.007095
v -61.195534 27.142683 144.249191
v -59.507217 27.142683 143.369141
v -57.818943 27.142683 142.489105
v -57.758106 27.142683 138.486954
v -59.385544 27.142683 135.364838
v -61.012981 27.142683 132.242706
v -64.328697 27.142683 130.000610
v -66.016975 27.142683 130.880646
v -67.705284 27.142683 131.760696
v -69.393562 27.142685 132.640732
v -71.081841 27.142685 133.520767
v -56.092834 27.299696 141.626556
v -59.362957 27.299696 135.353058
v -66.267700 27.299698 146.930313
v -69.537827 27.299698 140.656815
v -72.807945 27.299698 134.383316
v -62.633083 27.299696 129.079559
v -69.537827 25.911919 140.656815
v -59.362957 25.911919 135.353058
v -72.807945 25.911919 134.383316
v -62.633083 25.911919 129.079559
v -59.362957 25.754906 135.353058
v -62.633083 25.754906 129.079559
v -72.807945 25.754906 134.383316
v -69.537827 25.754906 140.656815
v -56.092834 25.911919 141.626556
v -56.092834 25.754906 141.626556
v -66.267700 25.754906 146.930313
v -66.267700 25.911919 146.930313
v -56.092834 27.142683 141.626556
v -59.362957 27.142683 135.353058
v -69.537827 27.142685 140.656815
v -66.267700 27.142685 146.930313
v -66.199524 27.142685 142.887131
v -64.572090 27.142685 146.009247
v -62.883812 27.142685 145.129227
v -66.260361 25.911919 146.889282
v -56.130669 25.911919 141.609070
v -62.640419 25.911919 129.120590
v -72.770119 25.911919 134.400787
v -62.633083 27.142683 129.079559
v -72.807945 27.142685 134.383316
v -55.371872 25.911919 141.141739
v -55.859009 25.512775 141.395676
v -61.822762 25.911919 128.766174
v -62.309898 25.512775 129.020096
v -56.461185 25.512777 141.709564
v -62.912075 25.512777 129.334000
v -56.948322 25.911919 141.963486
v -63.399212 25.911919 129.587921
v -57.134411 26.557745 142.060486
v -63.585300 26.557745 129.684921
v -56.948322 27.203569 141.963486
v -63.399212 27.203569 129.587921
v -56.461185 27.602711 141.709564
v -62.912075 27.602711 129.334000
v -55.859009 27.602711 141.395676
v -62.309898 27.602711 129.020096
v -55.371872 27.203569 141.141739
v -61.822762 27.203569 128.766174
v -55.185783 26.557743 141.044739
v -61.636677 26.557743 128.669174
vn 0.5507 0.8165 0.1733
vn 0.1280 0.9045 -0.4068
vn -0.1280 0.9045 0.4068
vn -0.5507 0.8165 -0.1733
vn -0.0000 1.0000 -0.0000
vn 0.1280 0.9045 -0.4067
vn 0.7788 0.5774 0.2451
vn 0.8413 0.3162 -0.4385
vn -0.2451 0.5774 0.7788
vn -0.7932 0.4472 0.4134
vn -0.7788 0.5774 -0.2451
vn 0.2451 0.5774 -0.7788
vn -0.6270 0.7071 0.3268
vn 0.6270 0.7071 -0.3268
vn 0.6270 -0.7071 -0.3268
vn 0.2451 -0.5774 -0.7788
vn -0.7788 -0.5774 -0.2451
vn -0.6270 -0.7071 0.3268
vn 0.7788 -0.5774 0.2451
vn -0.2451 -0.5774 0.7788
vn 0.9374 -0.3272 -0.1196
vn -0.1280 0.9045 0.4067
vn -0.3002 -0.0000 0.9539
vn 0.9539 -0.0000 0.3002
vn 0.3002 -0.0000 -0.9539
vn -0.9539 -0.0000 -0.3002
vn 0.7174 -0.5878 -0.3740
vn 0.2740 -0.9511 -0.1428
vn -0.2740 -0.9511 0.1428
vn -0.7174 -0.5878 0.3740
vn -0.8868 -0.0000 0.4622
vn -0.7174 0.5878 0.3740
vn -0.2740 0.9511 0.1428
vn 0.2740 0.9511 -0.1428
vn 0.7174 0.5878 -0.3740
vn 0.8868 -0.0000 -0.4622
vt 0.252900 0.026900
vt 0.729500 0.026900
vt 0.252900 0.413600
vt 0.729500 0.413600
vt 0.610400 0.413600
vt 0.491200 0.413600
vt 0.610400 0.349100
vt 0.372100 0.413600
vt 0.491200 0.349100
vt 0.491200 0.284700
vt 0.610400 0.284700
vt 0.491200 0.220200
vt 0.610400 0.220200
vt 0.491200 0.155800
vt 0.610400 0.155800
vt 0.491200 0.091300
vt 0.610400 0.091300
vt 0.372100 0.155800
vt 0.372100 0.220200
vt 0.372100 0.091300
vt 0.372100 0.284700
vt 0.252900 0.220200
vt 0.252900 0.155800
vt 0.252900 0.091300
vt 0.372100 0.026900
vt 0.491200 0.026900
vt 0.610400 0.026900
vt 0.729500 0.091300
vt 0.729500 0.155800
vt 0.729500 0.220200
vt 0.729500 0.284700
vt 0.729500 0.349100
vt 0.938000 0.991100
vt 0.594700 0.991100
vt 0.938000 0.435100
vt 0.594700 0.435100
vt 0.252000 0.435100
vt 0.252000 0.991100
vt 0.994100 0.421400
vt 0.994100 0.013200
vt 0.742200 0.421400
vt 0.742200 0.013200
vt 0.994100 0.427200
vt 0.742200 0.427200
vt 0.736800 0.421400
vt 0.736800 0.013200
vt 0.994100 0.007300
vt 0.742200 0.007300
vt 0.372100 0.349100
vt 0.252900 0.349100
vt 0.252900 0.284700
vt 0.946800 0.990800
vt 0.946800 0.436000
vt 0.995600 0.990800
vt 0.995600 0.436000
vt 0.245600 0.991600
vt 0.197600 0.991600
vt 0.245600 0.007300
vt 0.197600 0.007300
vt 0.149800 0.991600
vt 0.149800 0.007300
vt 0.101900 0.991600
vt 0.101900 0.007300
vt 0.054000 0.991600
vt 0.054000 0.007300
vt 0.006200 0.991600
vt 0.006200 0.007300
s 1
usemtl Notebook
f 1/1/1 2/2/2 3/3/3
f 3/3/3 2/2/2 4/4/4
f 5/5/5 6/6/5 7/7/5
f 6/6/5 8/8/5 9/9/5
f 7/7/5 6/6/5 9/9/5
f 10/10/5 7/7/5 9/9/5
f 11/11/5 7/7/5 10/10/5
f 12/12/5 11/11/5 10/10/5
f 13/13/5 11/11/5 12/12/5
f 14/14/5 13/13/5 12/12/5
f 15/15/5 13/13/5 14/14/5
f 16/16/5 15/15/5 14/14/5
f 17/17/5 15/15/5 16/16/5
f 18/18/5 12/12/5 19/19/5
f 14/14/5 12/12/5 18/18/5
f 20/20/5 14/14/5 18/18/5
f 16/16/5 14/14/5 20/20/5
f 19/19/5 21/21/5 22/22/5
f 23/23/5 19/19/5 22/22/5
f 18/18/5 19/19/5 23/23/5
f 24/24/5 18/18/5 23/23/5
f 20/20/5 18/18/5 24/24/5
f 1/1/1 20/20/5 24/24/5
f 25/25/5 20/20/5 1/1/1
f 25/25/5 16/16/5 20/20/5
f 26/26/5 16/16/5 25/25/5
f 26/26/5 17/17/5 16/16/5
f 27/27/5 17/17/5 26/26/5
f 2/2/6 17/17/5 27/27/5
f 28/28/5 17/17/5 2/2/6
f 28/28/5 15/15/5 17/17/5
f 29/29/5 15/15/5 28/28/5
f 29/29/5 13/13/5 15/15/5
f 30/30/5 13/13/5 29/29/5
f 30/30/5 11/11/5 13/13/5
f 31/31/5 11/11/5 30/30/5
f 31/31/5 7/7/5 11/11/5
f 32/32/5 7/7/5 31/31/5
f 32/32/5 5/5/5 7/7/5
f 4/4/4 5/5/5 32/32/5
f 33/33/7 34/34/8 35/35/9
f 35/35/9 34/34/8 36/36/10
f 36/36/10 34/34/8 37/37/11
f 37/37/11 34/34/8 38/38/12
f 39/39/13 40/40/14 41/41/11
f 41/41/11 40/40/14 42/42/12
f 40/43/14 43/39/15 42/44/12
f 42/44/12 43/39/15 44/41/16
f 42/45/12 44/41/16 41/46/11
f 41/46/11 44/41/16 45/42/17
f 44/41/16 43/39/15 45/42/17
f 45/42/17 43/39/15 46/40/18
f 46/40/18 39/47/13 45/42/17
f 45/42/17 39/47/13 41/48/11
f 47/44/7 48/41/19 40/43/14
f 40/43/14 48/41/19 43/39/15
f 43/39/15 48/41/19 46/40/18
f 46/40/18 48/41/19 49/42/20
f 49/42/20 50/48/9 46/40/18
f 46/40/18 50/48/9 39/47/13
f 48/41/19 47/45/7 49/42/20
f 49/42/20 47/45/7 50/46/9
f 33/44/7 51/41/21 34/43/8
f 34/43/8 51/41/21 52/39/15
f 52/39/15 51/41/21 53/40/18
f 53/40/18 51/41/21 54/42/20
f 54/42/20 35/48/9 53/40/18
f 53/40/18 35/48/9 36/47/10
f 51/41/21 33/45/7 54/42/20
f 54/42/20 33/45/7 35/46/9
f 12/12/5 10/10/5 19/19/5
f 19/19/5 10/10/5 21/21/5
f 10/10/5 9/9/5 21/21/5
f 21/21/5 9/9/5 55/49/5
f 9/9/5 8/8/5 55/49/5
f 8/8/5 3/3/22 55/49/5
f 55/49/5 3/3/22 56/50/5
f 57/51/5 55/49/5 56/50/5
f 21/21/5 55/49/5 57/51/5
f 22/22/5 21/21/5 57/51/5
f 47/42/7 40/40/14 50/41/9
f 50/41/9 40/40/14 39/39/13
f 58/52/23 59/53/24 3/54/3
f 3/54/3 59/53/24 1/55/1
f 2/53/2 60/55/25 4/52/4
f 4/52/4 60/55/25 61/54/26
f 1/53/1 59/55/24 2/52/2
f 2/52/2 59/55/24 60/54/25
f 61/52/26 58/53/23 4/54/4
f 4/54/4 58/53/23 3/55/3
f 34/43/8 52/39/15 38/44/12
f 38/44/12 52/39/15 62/41/16
f 38/45/12 62/41/16 37/46/11
f 37/46/11 62/41/16 63/42/17
f 62/41/16 52/39/15 63/42/17
f 63/42/17 52/39/15 53/40/18
f 53/40/18 36/47/10 63/42/17
f 63/42/17 36/47/10 37/48/11
f 64/56/27 65/57/28 66/58/27
f 66/58/27 65/57/28 67/59/28
f 65/57/28 68/60/29 67/59/28
f 67/59/28 68/60/29 69/61/29
f 68/60/29 70/62/30 69/61/29
f 69/61/29 70/62/30 71/63/30
f 70/62/30 72/64/31 71/63/30
f 71/63/30 72/64/31 73/65/31
f 72/64/31 74/66/32 73/65/31
f 73/65/31 74/66/32 75/67/32
f 74/56/32 76/57/33 75/58/32
f 75/58/32 76/57/33 77/59/33
f 76/57/33 78/60/34 77/59/33
f 77/59/33 78/60/34 79/61/34
f 78/60/34 80/62/35 79/61/34
f 79/61/34 80/62/35 81/63/35
f 80/62/35 82/64/36 81/63/35
f 81/63/35 82/64/36 83/65/36
f 82/64/36 64/66/27 83/65/36
f 83/65/36 64/66/27 66/67/27
