# Blender 4.0.1
# www.blender.org
mtllib pared atras.mtl
o Cube.004
v 68.559875 23.862007 -9.224792
v 68.648483 133.499329 -9.224792
v 68.559875 23.862007 -1.679851
v 68.648483 133.499329 -1.679851
v -111.271523 23.862007 -9.224801
v -111.242508 133.499329 -1.679859
v -111.242508 133.499329 -9.224801
v -111.271530 23.862007 -1.679859
vn -1.0000 0.0003 -0.0000
vn -0.0000 -0.0000 -1.0000
vn -0.0000 1.0000 -0.0000
vn -0.0000 -1.0000 -0.0000
vn -0.0000 -0.0000 1.0000
vn 1.0000 -0.0008 -0.0000
vt 0.125000 0.679816
vt 0.375000 0.679816
vt 0.284527 1.003719
vt 0.875000 0.679816
vt 0.375000 0.070184
vt 0.625000 0.070184
vt 0.625000 0.214301
vt 0.375000 0.214301
vt 0.625000 0.535699
vt 0.875000 0.535699
vt 0.625000 0.679816
vt 0.125000 0.535699
vt 0.375000 0.535699
vt 0.853315 -0.005442
vt 0.852386 1.004255
vt 0.285456 -0.005978
s 0
usemtl pared
f 5/1/1 8/2/1 6/3/1 7/4/1
f 5/5/2 7/6/2 2/7/2 1/8/2
f 4/9/3 2/10/3 7/4/3 6/11/3
f 1/12/4 3/13/4 8/2/4 5/1/4
f 3/14/5 4/15/5 6/3/5 8/16/5
f 2/7/6 4/15/6 3/13/6 1/8/6
