# Blender 4.0.1
# www.blender.org
mtllib pared izquierda.mtl
o Cube.002
v 68.316788 23.862007 -9.295959
v 68.316788 133.499329 -9.295959
v 68.316811 23.862007 288.823853
v 68.316811 133.499329 288.823853
v 60.771843 23.862007 -9.295959
v 60.771843 133.499329 -9.295959
v 60.771870 23.862007 288.823853
v 60.771870 133.499329 288.823853
v 68.316795 23.862007 132.445770
v 68.316795 133.499329 131.685715
v 60.771854 23.862007 132.445770
v 60.771854 133.499329 131.685715
v 68.316803 133.499329 154.506393
v 60.771858 23.862007 152.861481
v 68.316795 23.862007 152.861481
v 60.771858 133.499329 154.506393
v 68.316788 72.740631 -9.295959
v 68.316811 72.740631 288.823853
v 60.771870 72.740631 288.823853
v 60.771843 72.740631 -9.295959
v 60.771854 72.223274 132.445770
v 68.316795 72.223274 132.445770
v 60.771858 72.223274 152.861481
v 68.316795 72.223274 152.861481
vn 1.0000 -0.0000 -0.0000
vn -0.0000 -0.0000 1.0000
vn -1.0000 -0.0000 -0.0000
vn -0.0000 -0.0000 -1.0000
vn -0.0000 -1.0000 -0.0000
vn -0.0000 1.0000 -0.0000
vt 0.486455 0.138208
vt 0.625000 0.138208
vt 0.625000 0.250000
vt 0.486455 0.250000
vt 0.625000 0.500000
vt 0.486455 0.500000
vt 0.480830 0.444351
vt 0.480315 1.003903
vt 0.007980 1.003458
vt 0.008496 0.443905
vt 0.486455 0.750000
vt 0.625000 0.750000
vt 0.625000 1.000000
vt 0.486455 1.000000
vt 0.125000 0.630127
vt 0.375000 0.630127
vt 0.375000 0.750000
vt 0.125000 0.750000
vt 0.625000 0.630127
vt 0.875000 0.630127
vt 0.875000 0.750000
vt 0.625000 0.611792
vt 0.875000 0.611792
vt 0.375000 0.119873
vt 0.486455 0.119873
vt 0.481244 -0.005793
vt 0.553074 0.444419
vt 0.552559 1.003972
vt 0.486455 0.000000
vt 0.625000 0.000000
vt 0.625000 0.119873
vt 0.993566 0.444834
vt 0.993051 1.004387
vt 0.125000 0.500000
vt 0.375000 0.500000
vt 0.375000 0.611792
vt 0.125000 0.611792
vt 0.875000 0.500000
vt 0.000000 0.000000
vt 0.993980 -0.005310
vt 0.553488 -0.005725
vt 0.375000 0.000000
vt 0.375000 1.000000
vt 0.008910 -0.006239
vt 0.375000 0.250000
vt 0.375000 0.138208
s 0
usemtl pared
f 24/1/1 13/2/1 4/3/1 18/4/1
f 18/4/2 4/3/2 8/5/2 19/6/2
f 21/7/3 12/8/3 6/9/3 20/10/3
f 20/11/4 6/12/4 2/13/4 17/14/4
f 9/15/5 11/16/5 5/17/5 1/18/5
f 12/19/6 10/20/6 2/21/6 6/12/6
f 16/22/6 13/23/6 10/20/6 12/19/6
f 9/24/2 22/25/2 21/7/2 11/26/2
f 23/27/3 16/28/3 12/8/3 21/7/3
f 17/29/1 2/30/1 10/31/1 22/25/1
f 19/32/3 8/33/3 16/28/3 23/27/3
f 3/34/5 7/35/5 14/36/5 15/37/5
f 8/5/6 4/38/6 13/23/6 16/22/6
f 22/25/1 10/31/1 13/2/1 24/1/1
f 22/25/5 24/1/5 23/39/5 21/7/5
f 7/40/3 19/32/3 23/27/3 14/41/3
f 1/42/1 17/29/1 22/25/1 9/24/1
f 23/39/4 24/39/4 15/39/4 14/39/4
f 5/17/4 20/11/4 17/14/4 1/43/4
f 11/26/3 21/7/3 20/10/3 5/44/3
f 3/45/2 18/4/2 19/6/2 7/35/2
f 15/46/1 24/1/1 18/4/1 3/45/1
