# Blender 4.0.1
# www.blender.org
mtllib plantaquince.mtl
o f_plant_06.012
v -69.211250 21.922491 234.361816
v -68.927765 21.873846 234.598694
v -68.962799 22.075928 234.969849
v -69.425514 22.236166 234.772736
v -68.308670 21.266087 235.028320
v -69.672508 21.869474 233.929230
v -70.031403 22.220438 234.465149
v -69.425514 22.236166 234.772736
v -68.962799 22.075928 234.969849
v -69.172638 21.718800 235.066635
v -69.512985 21.725224 234.981186
v -68.308670 21.266087 235.028320
v -70.031403 22.220438 234.465149
v -70.100060 21.588612 234.832993
v -69.512985 21.725224 234.981186
v -69.172638 21.718800 235.066635
v -69.181480 21.504433 234.662018
v -68.308670 21.266087 235.028320
v -70.100060 21.588612 234.832993
v -69.741196 21.237587 234.297043
v -69.181480 21.504433 234.662018
v -68.927765 21.873846 234.598694
v -69.211250 21.922491 234.361816
v -68.308670 21.266087 235.028320
v -69.741196 21.237587 234.297043
v -69.672508 21.869474 233.929230
v -73.046936 30.156881 225.940643
v -73.086090 29.748302 226.030258
v -72.918503 29.447453 225.698608
v -72.771515 29.948406 225.412643
v -72.976616 28.942890 226.758789
v -72.947601 30.865522 225.942673
v -72.498009 30.652020 225.281021
v -72.771515 29.948406 225.412643
v -72.918503 29.447453 225.698608
v -72.514206 29.522594 225.945526
v -72.311256 29.841852 225.829330
v -72.976616 28.942890 226.758789
v -72.498009 30.652020 225.281021
v -71.887398 30.396469 225.778351
v -72.311256 29.841852 225.829330
v -72.514206 29.522594 225.945526
v -72.663750 29.884315 226.282303
v -72.976616 28.942890 226.758789
v -71.887398 30.396469 225.778351
v -72.337006 30.609945 226.440063
v -72.663750 29.884315 226.282303
v -73.086090 29.748302 226.030258
v -73.046936 30.156881 225.940643
v -72.976616 28.942890 226.758789
v -72.337006 30.609945 226.440063
v -72.947601 30.865522 225.942673
v -73.854378 26.400564 233.308823
v -74.052094 26.063894 233.153717
v -74.051933 26.026100 232.677048
v -73.734138 26.528648 232.702820
v -74.227852 24.987497 233.199097
v -73.470253 26.872501 233.685303
v -73.205040 27.039228 232.918854
v -73.734138 26.528648 232.702820
v -74.051933 26.026100 232.677048
v -73.634346 25.809805 232.771454
v -73.327385 26.057817 232.801239
v -74.227852 24.987497 233.199097
v -73.205040 27.039228 232.918854
v -72.717339 26.370546 232.942123
v -73.327385 26.057817 232.801239
v -73.634346 25.809805 232.771454
v -73.592468 25.882391 233.280930
v -74.227852 24.987497 233.199097
v -72.717339 26.370546 232.942123
v -72.982513 26.203817 233.708572
v -73.592468 25.882391 233.280930
v -74.052094 26.063894 233.153717
v -73.854378 26.400564 233.308823
v -74.227852 24.987497 233.199097
v -72.982513 26.203817 233.708572
v -73.470253 26.872501 233.685303
v -74.140984 30.924055 232.237167
v -74.234360 31.346336 232.374115
v -74.012627 31.490810 232.817612
v -73.756927 30.901354 232.799576
v -74.336220 32.489071 232.102936
v -73.978752 30.276295 231.848312
v -73.383194 30.220825 232.512924
v -73.756927 30.901354 232.799576
v -74.012627 31.490810 232.817612
v -73.630875 31.614080 232.489944
v -73.366241 31.290440 232.401123
v -74.336220 32.489071 232.102936
v -73.383194 30.220825 232.512924
v -72.862595 30.816526 232.096146
v -73.366241 31.290440 232.401123
v -73.630875 31.614080 232.489944
v -73.829590 31.418207 232.007172
v -74.336220 32.489071 232.102936
v -72.862595 30.816526 232.096146
v -73.458153 30.871996 231.431534
v -73.829590 31.418207 232.007172
v -74.234360 31.346336 232.374115
v -74.140984 30.924055 232.237167
v -74.336220 32.489071 232.102936
v -73.458153 30.871996 231.431534
v -73.978752 30.276295 231.848312
v -73.903831 33.432121 222.799515
v -73.938255 33.973495 222.642319
v -73.548088 34.378098 222.954254
v -73.306801 33.714981 223.331451
v -73.998459 34.955742 221.553848
v -73.869934 32.472725 222.858887
v -72.995041 32.746056 223.490311
v -73.306801 33.714981 223.331451
v -73.548088 34.378098 222.954254
v -73.146545 34.186531 222.487488
v -72.881363 33.739243 222.599670
v -73.998459 34.955742 221.553848
v -72.995041 32.746056 223.490311
v -72.392731 32.935612 222.573654
v -72.881363 33.739243 222.599670
v -73.146545 34.186531 222.487488
v -73.523689 33.697540 222.170547
v -73.998459 34.955742 221.553848
v -72.392731 32.935612 222.573654
v -73.267632 32.662266 221.942261
v -73.523689 33.697540 222.170547
v -73.938255 33.973495 222.642319
v -73.903831 33.432121 222.799515
v -73.998459 34.955742 221.553848
v -73.267632 32.662266 221.942261
v -73.869934 32.472725 222.858887
v -74.146851 30.920395 214.499207
v -73.930832 31.331917 214.105026
v -73.544250 31.837093 214.381744
v -73.692757 31.415743 215.120605
v -73.223183 31.628460 212.719894
v -74.469551 30.070894 215.000763
v -73.795158 30.584492 215.851578
v -73.692757 31.415743 215.120605
v -73.544250 31.837093 214.381744
v -73.048813 31.358360 214.283768
v -72.996681 30.983849 214.715683
v -73.223183 31.628460 212.719894
v -73.795158 30.584492 215.851578
v -72.802666 30.182262 215.307739
v -72.996681 30.983849 214.715683
v -73.048813 31.358360 214.283768
v -73.450356 30.771765 214.047760
v -73.223183 31.628460 212.719894
v -72.802666 30.182262 215.307739
v -73.477089 29.668633 214.456879
v -73.450356 30.771765 214.047760
v -73.930832 31.331917 214.105026
v -74.146851 30.920395 214.499207
v -73.223183 31.628460 212.719894
v -73.477089 29.668633 214.456879
v -74.469551 30.070894 215.000763
v -73.484566 26.945713 210.718842
v -70.650467 26.411348 211.923904
v -71.416786 29.253199 214.501526
v -73.633301 29.920309 213.744003
v -71.175873 27.463724 216.136078
v -70.375000 25.149231 214.770126
v -73.151535 26.341352 217.013046
v -72.933701 24.421480 216.411301
v -72.380173 32.437721 219.233200
v -72.142830 30.573021 219.644531
v -74.149506 33.191509 219.170471
v -73.674828 29.462067 219.993088
v -70.306938 31.663727 225.141891
v -71.296387 30.359587 224.768906
v -72.649971 33.365444 225.407501
v -70.983734 33.166626 225.461166
v -69.680679 22.824549 214.092590
v -72.866188 21.918493 216.135849
v -70.023582 24.395889 210.549026
v -73.552071 25.061176 209.048721
v -73.624908 32.490143 230.005539
v -72.143837 32.358414 230.027023
v -73.566360 29.842039 233.467178
v -72.269905 29.842281 233.290451
v -71.516014 31.156790 229.466537
v -71.721809 28.986155 232.466583
v -72.369255 30.086950 228.884460
v -72.470184 28.129848 231.819473
v -70.677742 25.705578 233.989563
v -71.532333 25.100605 233.257996
v -68.920769 20.652910 233.697678
v -68.964226 20.309208 234.512466
v -66.754486 15.959774 230.759720
v -66.788666 16.206324 230.459259
v -71.046585 26.045149 234.974609
v -69.677757 19.847635 234.760651
v -72.269974 25.779747 235.228119
v -69.590805 20.534985 233.131149
v -67.042297 15.708828 230.839798
v -67.110596 16.201899 230.238922
v -66.784348 15.487188 230.122009
v -72.933701 24.421480 216.411301
v -75.767792 24.955841 215.206253
v -75.368057 27.008465 216.255524
v -73.151535 26.341352 217.013046
v -75.608971 28.797970 214.620987
v -76.043259 26.217960 212.360016
v -73.633301 29.920309 213.744003
v -73.484566 26.945713 210.718842
v -75.444153 30.215870 219.930344
v -75.681496 32.080555 219.519028
v -74.149506 33.191509 219.170471
v -73.674828 29.462067 219.993088
v -73.639412 32.061363 225.034546
v -72.649971 33.365444 225.407501
v -71.296387 30.359587 224.768906
v -72.962654 30.558468 224.715256
v -76.737587 24.155125 211.091980
v -73.552071 25.061176 209.048721
v -76.394676 22.583784 214.635544
v -72.866188 21.918493 216.135849
v -72.369255 30.086950 228.884460
v -73.850334 30.218681 228.862976
v -72.470184 28.129848 231.819473
v -73.766670 28.129667 231.996216
v -74.478149 31.420364 229.423477
v -74.314735 28.985733 232.820068
v -73.624908 32.490143 230.005539
v -73.566360 29.842039 233.467178
v -72.755692 24.835262 233.511520
v -73.124535 25.174810 234.496643
v -70.304367 20.073391 233.379395
v -69.590805 20.534985 233.131149
v -71.532333 25.100605 233.257996
v -70.347862 19.729691 234.194183
v -72.269974 25.779747 235.228119
v -69.677757 19.847635 234.760651
v -67.110596 16.201899 230.238922
v -67.398407 15.950953 230.319016
v -67.364227 15.704403 230.619476
v -67.042297 15.708828 230.839798
v -66.784348 15.487188 230.122009
vn 0.5659 0.7469 -0.3490
vn 0.6236 0.7098 -0.3276
vn 0.4142 0.8118 -0.4115
vn 0.3278 0.8414 -0.4296
vn 0.7615 0.5968 -0.2531
vn 0.2674 0.8526 -0.4489
vn 0.2003 0.8757 -0.4393
vn -0.1099 0.3296 0.9377
vn -0.0548 0.2910 0.9551
vn -0.2961 0.3983 0.8681
vn -0.3211 0.4378 0.8398
vn 0.1387 0.1823 0.9734
vn -0.3720 0.4541 0.8096
vn -0.3197 0.5024 0.8033
vn -0.1199 -0.8433 0.5240
vn -0.2707 -0.8482 0.4552
vn -0.0487 -0.8443 0.5336
vn -0.4026 -0.8052 0.4354
vn 0.0328 -0.8156 0.5777
vn 0.0286 -0.8273 0.5610
vn 0.5960 -0.4466 -0.6673
vn 0.4029 -0.4165 -0.8150
vn 0.4827 -0.4227 -0.7670
vn 0.2810 -0.3464 -0.8950
vn 0.6348 -0.4304 -0.6417
vn 0.6416 -0.4368 -0.6306
vn -0.9215 -0.1079 -0.3732
vn -0.9319 -0.1605 -0.3253
vn -0.8830 0.0360 -0.4680
vn -0.8477 0.1045 -0.5201
vn -0.9325 -0.3037 -0.1957
vn -0.8226 0.1578 -0.5463
vn -0.7816 0.1928 -0.5933
vn 0.4709 -0.6569 -0.5888
vn 0.4605 -0.7049 -0.5395
vn 0.5271 -0.4858 -0.6973
vn 0.5102 -0.4487 -0.7338
vn 0.3875 -0.8405 -0.3788
vn 0.5201 -0.3933 -0.7582
vn 0.4593 -0.4228 -0.7812
vn 0.7612 -0.3099 0.5697
vn 0.8266 -0.1606 0.5395
vn 0.7186 -0.3628 0.5933
vn 0.8859 -0.0618 0.4597
vn 0.6757 -0.4494 0.5843
vn 0.6742 -0.4336 0.5979
vn -0.5940 0.1405 0.7921
vn -0.5611 0.3769 0.7370
vn -0.5851 0.2891 0.7577
vn -0.5555 0.5150 0.6528
vn -0.6129 0.0958 0.7843
vn -0.6083 0.0830 0.7894
vn -0.9101 0.4127 -0.0369
vn -0.9375 0.3469 -0.0278
vn -0.8233 0.5663 -0.0377
vn -0.7671 0.6397 -0.0490
vn -0.9869 0.1606 -0.0131
vn -0.7244 0.6878 -0.0461
vn -0.6765 0.7326 -0.0747
vn 0.1065 -0.1994 -0.9741
vn 0.0812 -0.2629 -0.9614
vn 0.2196 -0.0222 -0.9753
vn 0.2167 0.0324 -0.9757
vn -0.0282 -0.4451 -0.8950
vn 0.2468 0.0850 -0.9653
vn 0.1774 0.0953 -0.9795
vn 0.6075 -0.7943 -0.0036
vn 0.7262 -0.6864 0.0381
vn 0.5489 -0.8359 -0.0024
vn 0.8146 -0.5798 0.0157
vn 0.4734 -0.8797 -0.0447
vn 0.4796 -0.8771 -0.0249
vn -0.4158 -0.2660 0.8697
vn -0.2923 -0.0717 0.9536
vn -0.3488 -0.1409 0.9266
vn -0.2366 0.0795 0.9683
vn -0.4521 -0.2875 0.8444
vn -0.4527 -0.3010 0.8393
vn -0.8375 -0.2269 0.4971
vn -0.8609 -0.1605 0.4828
vn -0.7708 -0.3901 0.5037
vn -0.7210 -0.4684 0.5106
vn -0.8974 0.0246 0.4406
vn -0.6874 -0.5230 0.5039
vn -0.6355 -0.5689 0.5220
vn 0.5248 0.3719 0.7657
vn 0.5015 0.4349 0.7479
vn 0.6136 0.1813 0.7685
vn 0.6069 0.1293 0.7842
vn 0.3888 0.6163 0.6848
vn 0.6256 0.0713 0.7769
vn 0.5682 0.0766 0.8193
vn 0.6113 0.6565 -0.4419
vn 0.6921 0.5232 -0.4972
vn 0.5611 0.7068 -0.4307
vn 0.7733 0.4092 -0.4843
vn 0.5144 0.7711 -0.3752
vn 0.5113 0.7635 -0.3945
vn -0.7235 0.1527 -0.6733
vn -0.6627 -0.0735 -0.7453
vn -0.6968 0.0087 -0.7172
vn -0.6304 -0.2320 -0.7408
vn -0.7438 0.1850 -0.6423
vn -0.7412 0.1992 -0.6411
vn -0.7456 0.2483 0.6184
vn -0.7653 0.2981 0.5705
vn -0.6937 0.1080 0.7121
vn -0.6507 0.0396 0.7583
vn -0.7922 0.4306 0.4324
vn -0.6241 -0.0143 0.7812
vn -0.5740 -0.0507 0.8173
vn 0.6910 0.6342 0.3468
vn 0.6705 0.6794 0.2980
vn 0.7613 0.4657 0.4511
vn 0.7531 0.4338 0.4947
vn 0.5647 0.8110 0.1529
vn 0.7647 0.3795 0.5208
vn 0.7172 0.4180 0.5577
vn 0.5733 0.1708 -0.8014
vn 0.6302 0.0170 -0.7762
vn 0.5308 0.2268 -0.8166
vn 0.7015 -0.0823 -0.7079
vn 0.5013 0.3184 -0.8046
vn 0.4940 0.3020 -0.8153
vn -0.8208 -0.1227 -0.5579
vn -0.7953 -0.3567 -0.4902
vn -0.8159 -0.2684 -0.5121
vn -0.7771 -0.4880 -0.3974
vn -0.8320 -0.0754 -0.5497
vn -0.8279 -0.0637 -0.5572
vn -0.7971 0.6035 0.0214
vn -0.7810 0.6229 -0.0459
vn -0.8304 0.5281 0.1774
vn -0.8314 0.4898 0.2623
vn -0.7122 0.6662 -0.2212
vn -0.8337 0.4534 0.3153
vn -0.8145 0.4364 0.3822
vn 0.6826 0.6523 0.3295
vn 0.6968 0.6673 0.2631
vn 0.6524 0.5566 0.5143
vn 0.6192 0.5529 0.5576
vn 0.6988 0.7139 0.0454
vn 0.6026 0.5192 0.6061
vn 0.5599 0.5757 0.5959
vn 0.8466 -0.3261 -0.4206
vn 0.8381 -0.4491 -0.3096
vn 0.8329 -0.2823 -0.4761
vn 0.8440 -0.5048 -0.1813
vn 0.8320 -0.1954 -0.5192
vn 0.8243 -0.2143 -0.5240
vn -0.5560 -0.3149 -0.7692
vn -0.6331 -0.4810 -0.6065
vn -0.6150 -0.4154 -0.6703
vn -0.6928 -0.5461 -0.4709
vn -0.5536 -0.2696 -0.7879
vn -0.5436 -0.2639 -0.7968
vn 0.6694 0.6347 -0.3861
vn 0.7844 0.5074 -0.3567
vn 0.4047 0.6443 -0.6489
vn 0.4065 0.7362 -0.5410
vn 0.9439 0.0060 0.3302
vn 0.8704 0.0587 0.4889
vn 0.5588 -0.3908 0.7314
vn 0.5591 -0.1134 0.8213
vn 0.7640 0.6271 -0.1518
vn 0.9519 -0.2559 0.1686
vn 0.3879 0.8525 -0.3503
vn 0.7113 -0.6928 0.1188
vn 0.9849 -0.1730 0.0050
vn 0.7862 -0.6180 -0.0039
vn 0.2126 0.9770 -0.0184
vn 0.6204 0.7843 -0.0083
vn 0.7736 0.0469 0.6320
vn 0.5536 -0.0763 0.8293
vn 0.8706 0.4317 -0.2359
vn 0.4065 0.5978 -0.6910
vn 0.0867 0.9317 0.3526
vn 0.5612 0.6993 0.4428
vn 0.0923 0.6985 0.7096
vn 0.5991 0.5112 0.6162
vn 0.9752 -0.1436 0.1682
vn 0.9914 -0.0234 -0.1285
vn 0.8097 -0.5670 -0.1513
vn 0.7696 -0.2174 -0.6004
vn 0.9271 0.2024 -0.3155
vn 0.6181 0.1302 -0.7752
vn 0.8488 0.4149 -0.3275
vn 0.8034 0.0409 0.5940
vn 0.9392 -0.0719 0.3357
vn 0.7584 0.4733 -0.4481
vn 0.6579 0.3072 0.6876
vn 0.3538 -0.1191 0.9277
vn 0.1417 0.2951 0.9449
vn 0.4866 0.5412 -0.6858
vn 0.5835 -0.4719 0.6609
vn 0.4780 0.5188 -0.7088
vn 0.9774 -0.0950 -0.1891
vn -0.6775 -0.3951 0.6204
vn -0.7931 -0.0429 0.6076
vn -0.4086 -0.2590 0.8752
vn -0.4111 -0.5013 0.7614
vn -0.9684 0.2262 -0.1053
vn -0.8741 0.4205 -0.2431
vn -0.5779 0.6288 -0.5202
vn -0.5524 0.5696 -0.6086
vn -0.7530 -0.5628 0.3410
vn -0.9415 0.3360 0.0255
vn -0.6883 0.7250 -0.0267
vn -0.3770 -0.7550 0.5365
vn -0.9850 0.1685 0.0375
vn -0.7933 0.6083 0.0254
vn -0.2103 -0.9686 0.1326
vn -0.6131 -0.7836 0.1007
vn -0.7736 0.4998 -0.3895
vn -0.5536 0.5634 -0.6133
vn -0.8706 0.1150 0.4783
vn -0.4065 -0.1108 0.9069
vn -0.0908 -0.9591 -0.2683
vn -0.5770 -0.7324 -0.3615
vn -0.0918 -0.7465 -0.6590
vn -0.5854 -0.5485 -0.5971
vn -0.9903 0.1204 -0.0694
vn -0.9910 -0.0228 0.1316
vn -0.8204 0.5264 0.2230
vn -0.7599 0.2128 0.6142
vn -0.6405 -0.3566 -0.6802
vn -0.9054 -0.2728 0.3253
vn -0.7508 -0.1687 -0.6386
vn -0.3174 0.0416 -0.9474
vn -0.1365 -0.3225 -0.9367
vn -0.8004 -0.5285 0.2830
vn -0.5988 -0.1754 0.7815
vn -0.4436 -0.6261 0.6413
vn -0.4187 0.1998 -0.8859
vn -0.7251 -0.2766 -0.6307
vn -0.5493 -0.8217 0.1519
vn -0.2646 -0.8755 0.4043
vn -0.4784 -0.7047 -0.5239
vt 0.965281 1.890380
vt 0.935818 1.905920
vt 0.936555 1.934210
vt 0.980539 1.929430
vt 0.902372 1.837460
vt 0.929339 1.982870
vt 0.984913 1.982870
vt 0.901169 1.914520
vt 0.876607 1.965540
vt 0.841612 1.676200
vt 0.930196 1.685260
vt 0.911376 1.760620
vt 0.831119 1.734970
vt 0.842604 1.613120
vt 0.931339 1.604830
vt 0.833945 1.550050
vt 0.914954 1.526870
vt 0.700129 1.665980
vt 0.700129 1.617350
vt 0.700129 1.712890
vt 0.700129 1.568040
vt 0.476361 1.616820
vt 0.476361 1.574960
vt 0.476361 1.699170
vt 0.476361 1.658160
vt 0.993241 1.597310
vt 0.972421 1.504160
vt 0.993241 1.692880
vt 0.968122 1.785080
vt 0.393143 1.690790
vt 0.393143 1.653880
vt 0.309940 1.682420
vt 0.309940 1.649590
vt 0.393143 1.617030
vt 0.309940 1.617230
vt 0.393143 1.580230
vt 0.309940 1.585510
vt 0.222243 1.617620
vt 0.222243 1.593040
vt 0.134560 1.617990
vt 0.134560 1.638110
vt 0.025277 1.630120
vt 0.025277 1.621380
vt 0.222243 1.643850
vt 0.134560 1.660250
vt 0.222243 1.671330
vt 0.134560 1.600590
vt 0.025547 1.645160
vt 0.025547 1.612300
vt 0.008110 1.628490
vt 0.842378 1.609110
vt 0.931203 1.602770
vt 0.841446 1.672180
vt 0.929880 1.683190
vt 0.700129 1.615060
vt 0.700129 1.663690
vt 0.476361 1.657350
vt 0.476361 1.615990
vt 0.993241 1.692610
vt 0.993241 1.597080
vt 0.393143 1.617180
vt 0.309940 1.618380
vt 0.393143 1.654040
vt 0.309940 1.650750
vt 0.222243 1.620560
vt 0.222243 1.646810
vt 0.134560 1.622760
vt 0.134560 1.642890
vt 0.025277 1.627420
vt 0.025277 1.636170
s 1
usemtl plants_03_dif.007
f 3/1/1 2/2/2 1/3/3
f 4/4/4 3/1/1 1/3/3
f 5/5/5 2/2/2 3/1/1
f 4/4/4 1/3/3 6/6/6
f 7/7/7 4/4/4 6/6/6
f 10/2/8 9/1/9 8/4/10
f 11/3/11 10/2/8 8/4/10
f 12/5/12 9/1/9 10/2/8
f 11/3/11 8/4/10 13/7/13
f 14/6/14 11/3/11 13/7/13
f 17/8/15 16/2/16 15/3/17
f 18/5/18 16/2/16 17/8/15
f 17/8/15 15/3/17 19/6/19
f 20/9/20 17/8/15 19/6/19
f 23/3/21 22/2/22 21/8/23
f 24/5/24 21/8/23 22/2/22
f 23/3/21 21/8/23 25/9/25
f 26/6/26 23/3/21 25/9/25
f 29/1/27 28/2/28 27/3/29
f 30/4/30 29/1/27 27/3/29
f 31/5/31 28/2/28 29/1/27
f 30/4/30 27/3/29 32/6/32
f 33/7/33 30/4/30 32/6/32
f 36/2/34 35/1/35 34/4/36
f 37/3/37 36/2/34 34/4/36
f 38/5/38 35/1/35 36/2/34
f 37/3/37 34/4/36 39/7/39
f 40/6/40 37/3/37 39/7/39
f 43/8/41 42/2/42 41/3/43
f 44/5/44 42/2/42 43/8/41
f 43/8/41 41/3/43 45/6/45
f 46/9/46 43/8/41 45/6/45
f 49/3/47 48/2/48 47/8/49
f 50/5/50 47/8/49 48/2/48
f 49/3/47 47/8/49 51/9/51
f 52/6/52 49/3/47 51/9/51
f 55/1/53 54/2/54 53/3/55
f 56/4/56 55/1/53 53/3/55
f 57/5/57 54/2/54 55/1/53
f 56/4/56 53/3/55 58/6/58
f 59/7/59 56/4/56 58/6/58
f 62/2/60 61/1/61 60/4/62
f 63/3/63 62/2/60 60/4/62
f 64/5/64 61/1/61 62/2/60
f 63/3/63 60/4/62 65/7/65
f 66/6/66 63/3/63 65/7/65
f 69/8/67 68/2/68 67/3/69
f 70/5/70 68/2/68 69/8/67
f 69/8/67 67/3/69 71/6/71
f 72/9/72 69/8/67 71/6/71
f 75/3/73 74/2/74 73/8/75
f 76/5/76 73/8/75 74/2/74
f 75/3/73 73/8/75 77/9/77
f 78/6/78 75/3/73 77/9/77
f 81/1/79 80/2/80 79/3/81
f 82/4/82 81/1/79 79/3/81
f 83/5/83 80/2/80 81/1/79
f 82/4/82 79/3/81 84/6/84
f 85/7/85 82/4/82 84/6/84
f 88/2/86 87/1/87 86/4/88
f 89/3/89 88/2/86 86/4/88
f 90/5/90 87/1/87 88/2/86
f 89/3/89 86/4/88 91/7/91
f 92/6/92 89/3/89 91/7/91
f 95/8/93 94/2/94 93/3/95
f 96/5/96 94/2/94 95/8/93
f 95/8/93 93/3/95 97/6/97
f 98/9/98 95/8/93 97/6/97
f 101/3/99 100/2/100 99/8/101
f 102/5/102 99/8/101 100/2/100
f 101/3/99 99/8/101 103/9/103
f 104/6/104 101/3/99 103/9/103
f 107/1/105 106/2/106 105/3/107
f 108/4/108 107/1/105 105/3/107
f 109/5/109 106/2/106 107/1/105
f 108/4/108 105/3/107 110/6/110
f 111/7/111 108/4/108 110/6/110
f 114/2/112 113/1/113 112/4/114
f 115/3/115 114/2/112 112/4/114
f 116/5/116 113/1/113 114/2/112
f 115/3/115 112/4/114 117/7/117
f 118/6/118 115/3/115 117/7/117
f 121/8/119 120/2/120 119/3/121
f 122/5/122 120/2/120 121/8/119
f 121/8/119 119/3/121 123/6/123
f 124/9/124 121/8/119 123/6/123
f 127/3/125 126/2/126 125/8/127
f 128/5/128 125/8/127 126/2/126
f 127/3/125 125/8/127 129/9/129
f 130/6/130 127/3/125 129/9/129
f 133/1/131 132/2/132 131/3/133
f 134/4/134 133/1/131 131/3/133
f 135/5/135 132/2/132 133/1/131
f 134/4/134 131/3/133 136/6/136
f 137/7/137 134/4/134 136/6/136
f 140/2/138 139/1/139 138/4/140
f 141/3/141 140/2/138 138/4/140
f 142/5/142 139/1/139 140/2/138
f 141/3/141 138/4/140 143/7/143
f 144/6/144 141/3/141 143/7/143
f 147/8/145 146/2/146 145/3/147
f 148/5/148 146/2/146 147/8/145
f 147/8/145 145/3/147 149/6/149
f 150/9/150 147/8/145 149/6/149
f 153/3/151 152/2/152 151/8/153
f 154/5/154 151/8/153 152/2/152
f 153/3/151 151/8/153 155/9/155
f 156/6/156 153/3/151 155/9/155
f 159/10/157 158/11/158 157/12/159
f 160/13/160 159/10/157 157/12/159
f 159/10/157 161/14/161 158/11/158
f 161/14/161 162/15/162 158/11/158
f 161/14/161 163/16/163 162/15/162
f 163/16/163 164/17/164 162/15/162
f 159/10/157 165/18/165 161/14/161
f 165/18/165 166/19/166 161/14/161
f 161/14/161 166/19/166 163/16/163
f 167/20/167 165/18/165 159/10/157
f 160/13/160 167/20/167 159/10/157
f 166/19/166 168/21/168 163/16/163
f 166/19/166 169/22/169 168/21/168
f 169/22/169 170/23/170 168/21/168
f 167/20/167 171/24/171 165/18/165
f 171/24/171 172/25/172 165/18/165
f 172/25/172 169/22/169 166/19/166
f 165/18/165 172/25/172 166/19/166
f 162/15/162 164/17/164 173/26/173
f 164/17/164 174/27/174 173/26/173
f 162/15/162 173/26/173 175/28/175
f 158/11/158 162/15/162 175/28/175
f 158/11/158 175/28/175 176/29/176
f 157/12/159 158/11/158 176/29/176
f 171/24/171 177/30/177 172/25/172
f 177/30/177 178/31/178 172/25/172
f 172/25/172 178/31/178 169/22/169
f 177/30/177 179/32/179 178/31/178
f 179/32/179 180/33/180 178/31/178
f 178/31/178 180/33/180 181/34/181
f 169/22/169 181/34/181 170/23/170
f 178/31/178 181/34/181 169/22/169
f 180/33/180 182/35/182 181/34/181
f 181/34/181 182/35/182 183/36/183
f 181/34/181 183/36/183 170/23/170
f 182/35/182 184/37/184 183/36/183
f 182/35/182 185/38/185 184/37/184
f 185/38/185 186/39/186 184/37/184
f 185/38/185 187/40/187 186/39/186
f 188/41/188 187/40/187 185/38/185
f 188/41/188 189/42/189 187/40/187
f 189/42/189 190/43/190 187/40/187
f 191/44/191 188/41/188 185/38/185
f 191/44/191 185/38/185 182/35/182
f 180/33/180 191/44/191 182/35/182
f 192/45/192 188/41/188 191/44/191
f 193/46/193 192/45/192 191/44/191
f 193/46/193 191/44/191 180/33/180
f 179/32/179 193/46/193 180/33/180
f 187/40/187 194/47/194 186/39/186
f 187/40/187 190/43/190 194/47/194
f 195/48/195 189/42/189 188/41/188
f 192/45/192 195/48/195 188/41/188
f 190/43/190 196/49/196 194/47/194
f 195/48/195 197/50/197 189/42/189
f 190/43/190 197/50/197 196/49/196
f 189/42/189 197/50/197 190/43/190
f 200/51/198 199/52/199 198/17/200
f 201/16/201 200/51/198 198/17/200
f 200/51/198 202/53/202 199/52/199
f 202/53/202 203/54/203 199/52/199
f 202/53/202 204/13/204 203/54/203
f 204/13/204 205/12/205 203/54/203
f 200/51/198 206/55/206 202/53/202
f 206/55/206 207/56/207 202/53/202
f 202/53/202 207/56/207 204/13/204
f 207/56/207 208/20/208 204/13/204
f 209/21/209 206/55/206 200/51/198
f 201/16/201 209/21/209 200/51/198
f 207/56/207 210/57/210 208/20/208
f 210/57/210 211/24/211 208/20/208
f 209/21/209 212/23/212 206/55/206
f 212/23/212 213/58/213 206/55/206
f 213/58/213 210/57/210 207/56/207
f 206/55/206 213/58/213 207/56/207
f 203/54/203 205/12/205 214/59/214
f 205/12/205 215/29/215 214/59/214
f 203/54/203 214/59/214 216/60/216
f 199/52/199 203/54/203 216/60/216
f 199/52/199 216/60/216 217/27/217
f 198/17/200 199/52/199 217/27/217
f 212/23/212 218/36/218 213/58/213
f 218/36/218 219/61/219 213/58/213
f 213/58/213 219/61/219 210/57/210
f 218/36/218 220/37/220 219/61/219
f 220/37/220 221/62/221 219/61/219
f 219/61/219 221/62/221 222/63/222
f 210/57/210 222/63/222 211/24/211
f 219/61/219 222/63/222 210/57/210
f 221/62/221 223/64/223 222/63/222
f 222/63/222 223/64/223 224/30/224
f 222/63/222 224/30/224 211/24/211
f 223/64/223 225/32/225 224/30/224
f 221/62/221 226/65/226 223/64/223
f 226/65/226 227/66/227 223/64/223
f 223/64/223 227/66/227 225/32/225
f 226/65/226 228/67/228 227/66/227
f 229/47/229 228/67/228 226/65/226
f 230/39/230 229/47/229 226/65/226
f 230/39/230 226/65/226 221/62/221
f 220/37/220 230/39/230 221/62/221
f 228/67/228 231/68/231 227/66/227
f 227/66/227 231/68/231 232/46/232
f 227/66/227 232/46/232 225/32/225
f 231/68/231 233/45/233 232/46/232
f 229/47/229 234/49/234 228/67/228
f 234/49/234 235/69/235 228/67/228
f 228/67/228 235/69/235 231/68/231
f 231/68/231 236/70/236 233/45/233
f 235/69/235 236/70/236 231/68/231
f 236/70/236 237/48/237 233/45/233
f 235/69/235 238/50/238 236/70/236
f 234/49/234 238/50/238 235/69/235
f 236/70/236 238/50/238 237/48/237
