# Blender 4.0.1
# www.blender.org
mtllib planta18.mtl
o f_plant_05.020
v -75.062355 26.525200 177.671204
v -74.945999 26.051264 177.856171
v -74.497849 25.772711 177.583267
v -74.467148 26.391159 177.179199
v -74.720306 25.256077 178.931015
v -75.289101 27.375523 177.546249
v -74.452187 27.315357 176.951431
v -74.467148 26.391159 177.179199
v -74.497849 25.772711 177.583267
v -74.186386 26.085035 177.983932
v -74.072815 26.540649 177.838409
v -74.720306 25.256077 178.931015
v -74.452187 27.315357 176.951431
v -73.854424 27.380573 177.785889
v -74.072815 26.540649 177.838409
v -74.186386 26.085035 177.983932
v -74.645401 26.441841 178.254776
v -74.720306 25.256077 178.931015
v -73.854424 27.380573 177.785889
v -74.691345 27.440706 178.380753
v -74.645401 26.441841 178.254776
v -74.945999 26.051264 177.856171
v -75.062355 26.525200 177.671204
v -74.720306 25.256077 178.931015
v -74.691345 27.440706 178.380753
v -75.289101 27.375523 177.546249
v -77.153008 27.798977 174.422546
v -77.505020 28.184086 174.433044
v -77.437836 28.580742 174.870071
v -76.850113 28.167454 175.044556
v -78.205139 29.125673 173.753342
v -76.565536 27.166851 174.209534
v -76.051224 27.658087 174.952469
v -76.850113 28.167454 175.044556
v -77.437836 28.580742 174.870071
v -77.076469 28.824348 174.463745
v -76.618065 28.646862 174.471268
v -78.205139 29.125673 173.753342
v -76.051224 27.658087 174.952469
v -75.803719 28.403437 174.288330
v -76.618065 28.646862 174.471268
v -77.076469 28.824348 174.463745
v -77.085564 28.380850 174.000427
v -78.205139 29.125673 173.753342
v -75.803719 28.403437 174.288330
v -76.318138 27.912199 173.545364
v -77.085564 28.380850 174.000427
v -77.505020 28.184086 174.433044
v -77.153008 27.798977 174.422546
v -78.205139 29.125673 173.753342
v -76.318138 27.912199 173.545364
v -76.565536 27.166851 174.209534
v -72.164169 29.879021 181.354752
v -71.752724 30.282993 181.427811
v -71.834473 30.839748 181.079987
v -72.521591 30.468332 180.819061
v -70.877861 31.068916 182.375366
v -72.837257 29.158762 181.445587
v -73.430801 29.923092 180.832535
v -72.521591 30.468332 180.819061
v -71.834473 30.839748 181.079987
v -72.195168 30.994694 181.615067
v -72.714447 30.822836 181.591568
v -70.877861 31.068916 182.375366
v -73.430801 29.923092 180.832535
v -73.619972 30.536961 181.781067
v -72.714447 30.822836 181.591568
v -72.195168 30.994694 181.615067
v -72.178635 30.382046 181.982056
v -70.877861 31.068916 182.375366
v -73.619972 30.536961 181.781067
v -73.026459 29.772596 182.394089
v -72.178635 30.382046 181.982056
v -71.752724 30.282993 181.427811
v -72.164169 29.879021 181.354752
v -70.877861 31.068916 182.375366
v -73.026459 29.772596 182.394089
v -72.837257 29.158762 181.445587
v -76.824745 32.241089 190.056213
v -77.545357 32.366432 190.049286
v -77.949493 32.100624 189.371643
v -77.011658 31.767603 189.082733
v -79.204529 32.313232 190.974670
v -75.640038 31.976055 190.335983
v -75.807686 31.195103 189.135895
v -77.011658 31.767603 189.082733
v -77.949493 32.100624 189.371643
v -77.973106 31.399763 189.825150
v -77.415878 31.000704 189.754547
v -79.204529 32.313232 190.974670
v -75.807686 31.195103 189.135895
v -76.515892 30.190250 189.888763
v -77.415878 31.000704 189.754547
v -77.973106 31.399763 189.825150
v -77.470490 31.626415 190.535202
v -79.204529 32.313232 190.974670
v -76.515892 30.190250 189.888763
v -76.348221 30.971176 191.088821
v -77.470490 31.626415 190.535202
v -77.545357 32.366432 190.049286
v -76.824745 32.241089 190.056213
v -79.204529 32.313232 190.974670
v -76.348221 30.971176 191.088821
v -75.640038 31.976055 190.335983
v -73.916054 28.047804 196.869598
v -73.261429 28.371300 196.912201
v -73.216301 29.135118 196.584030
v -74.222115 28.984900 196.384842
v -71.739632 28.808624 197.963318
v -74.967537 27.404316 197.049286
v -75.502052 28.647902 196.553421
v -74.222115 28.984900 196.384842
v -73.216301 29.135118 196.584030
v -73.477859 29.334499 197.351624
v -74.162224 29.314835 197.429108
v -71.739632 28.808624 197.963318
v -75.502052 28.647902 196.553421
v -75.304390 29.249323 197.848495
v -74.162224 29.314835 197.429108
v -73.477859 29.334499 197.351624
v -73.617584 28.522816 197.711899
v -71.739632 28.808624 197.963318
v -75.304390 29.249323 197.848495
v -74.769928 28.005718 198.344421
v -73.617584 28.522816 197.711899
v -73.261429 28.371300 196.912201
v -73.916054 28.047804 196.869598
v -71.739632 28.808624 197.963318
v -74.769928 28.005718 198.344421
v -74.967537 27.404316 197.049286
v -78.506668 27.991619 202.554291
v -79.582718 25.398472 201.180374
v -78.929886 27.261768 198.361908
v -77.897057 29.210846 199.394577
v -77.536034 25.496893 197.426834
v -77.579315 23.278437 200.057129
v -75.109398 25.681072 197.524414
v -74.499840 23.751518 200.307785
v -78.215828 29.677031 194.589935
v -77.597412 27.986572 193.909729
v -76.947914 30.997744 195.182114
v -75.711067 27.616978 193.821548
v -76.575935 30.005520 189.618805
v -75.187958 29.099159 189.352692
v -74.987350 32.441250 189.608322
v -76.475616 31.676561 189.746643
v -77.842964 21.519598 201.841095
v -74.009026 22.108597 202.153152
v -80.337212 24.159060 203.239548
v -78.997490 27.387489 204.950043
v -73.364555 31.903709 184.804230
v -74.799484 31.546764 184.645996
v -73.705872 30.497646 181.146606
v -74.823128 29.916651 181.501999
v -75.304016 30.300276 185.232513
v -74.818932 28.661684 181.872238
v -74.373680 29.410795 185.977173
v -73.697472 27.987686 181.887070
v -75.471268 26.545670 177.372559
v -74.254501 26.708223 177.019730
v -77.341835 27.303036 170.977417
v -77.854607 27.538813 171.659561
v -78.962440 31.415260 168.083237
v -78.735901 31.353065 167.771744
v -76.026894 27.470278 177.613678
v -77.521706 28.035164 172.312790
v -75.365791 28.557415 177.501938
v -76.496162 27.563580 170.948578
v -78.832161 31.634365 168.378525
v -78.379105 31.510044 167.755508
v -78.867538 32.136364 167.763977
v -74.499840 23.751518 200.307785
v -73.423737 26.344664 201.681686
v -74.076630 27.630150 198.557083
v -75.109398 25.681072 197.524414
v -75.470451 29.395050 199.492172
v -75.427139 28.464699 202.804932
v -77.897057 29.210846 199.394577
v -78.506668 27.991619 202.554291
v -74.443153 28.937725 194.413666
v -75.061600 30.628162 195.093872
v -76.947914 30.997744 195.182114
v -75.711067 27.616978 193.821548
v -73.599373 31.534866 189.342270
v -74.987350 32.441250 189.608322
v -75.187958 29.099159 189.352692
v -73.699692 29.863821 189.214417
v -75.163521 27.976511 205.262115
v -78.997490 27.387489 204.950043
v -72.669266 25.337049 203.863678
v -74.009026 22.108597 202.153152
v -74.373680 29.410795 185.977173
v -72.938759 29.767691 186.135376
v -73.697472 27.987686 181.887070
v -72.580261 28.568665 181.531662
v -72.434227 31.014149 185.548920
v -72.584465 29.823645 181.161423
v -73.364555 31.903709 184.804230
v -73.705872 30.497646 181.146606
v -73.593399 27.795361 176.907990
v -74.149055 28.719946 177.149094
v -76.163315 28.059891 171.601791
v -76.496162 27.563580 170.948578
v -74.254501 26.708223 177.019730
v -76.676086 28.295700 172.283875
v -75.365791 28.557415 177.501938
v -77.521706 28.035164 172.312790
v -78.379105 31.510044 167.755508
v -78.248856 31.729183 168.050827
v -78.475311 31.791340 168.362366
v -78.832161 31.634365 168.378525
v -78.867538 32.136364 167.763977
vn -0.6527 -0.5037 -0.5660
vn -0.6563 -0.5527 -0.5136
vn -0.6450 -0.3631 -0.6724
vn -0.6244 -0.2895 -0.7255
vn -0.6415 -0.6749 -0.3646
vn -0.6148 -0.2324 -0.7537
vn -0.5780 -0.1864 -0.7944
vn 0.8386 -0.4375 -0.3245
vn 0.8329 -0.4823 -0.2716
vn 0.8555 -0.2656 -0.4444
vn 0.8377 -0.2413 -0.4900
vn 0.7720 -0.6256 -0.1124
vn 0.8327 -0.1884 -0.5207
vn 0.7976 -0.2419 -0.5525
vn 0.6117 0.0702 0.7880
vn 0.6214 0.2310 0.7487
vn 0.5875 0.0060 0.8092
vn 0.6599 0.3403 0.6699
vn 0.5855 -0.0910 0.8056
vn 0.5740 -0.0764 0.8153
vn -0.8117 -0.0696 0.5799
vn -0.8559 0.1553 0.4932
vn -0.8499 0.0669 0.5228
vn -0.8780 0.2778 0.3899
vn -0.8089 -0.1185 0.5759
vn -0.8015 -0.1279 0.5841
vn -0.6796 -0.4854 0.5501
vn -0.7302 -0.4463 0.5173
vn -0.5431 -0.5840 0.6033
vn -0.4630 -0.6213 0.6322
vn -0.8462 -0.3234 0.4236
vn -0.4064 -0.6508 0.6413
vn -0.3419 -0.6575 0.6714
vn 0.1632 0.7683 0.6190
vn 0.1148 0.8037 0.5838
vn 0.3325 0.6574 0.6762
vn 0.3499 0.6153 0.7064
vn -0.0622 0.8794 0.4719
vn 0.3954 0.5752 0.7161
vn 0.3375 0.5613 0.7557
vn 0.2670 0.7377 -0.6201
vn 0.4100 0.6549 -0.6348
vn 0.1976 0.7564 -0.6235
vn 0.5333 0.6058 -0.5904
vn 0.1181 0.7997 -0.5886
vn 0.1220 0.7870 -0.6048
vn -0.6036 -0.4143 -0.6812
vn -0.4307 -0.5878 -0.6848
vn -0.5042 -0.5303 -0.6816
vn -0.3260 -0.7006 -0.6347
vn -0.6413 -0.3901 -0.6607
vn -0.6462 -0.3769 -0.6636
vn 0.6204 -0.3445 -0.7045
vn 0.6748 -0.3172 -0.6664
vn 0.4764 -0.4211 -0.7718
vn 0.3928 -0.4469 -0.8037
vn 0.8022 -0.2272 -0.5522
vn 0.3345 -0.4711 -0.8162
vn 0.2679 -0.4676 -0.8424
vn -0.1616 0.9093 -0.3836
vn -0.1095 0.9326 -0.3438
vn -0.3393 0.8230 -0.4556
vn -0.3605 0.7909 -0.4944
vn 0.0774 0.9704 -0.2288
vn -0.4085 0.7563 -0.5110
vn -0.3538 0.7515 -0.5569
vn -0.1924 0.5560 0.8086
vn -0.3382 0.4769 0.8113
vn -0.1221 0.5709 0.8119
vn -0.4663 0.4453 0.7644
vn -0.0428 0.6193 0.7840
vn -0.0463 0.6029 0.7965
vn 0.6220 -0.5987 0.5047
vn 0.4412 -0.7614 0.4751
vn 0.5171 -0.7074 0.4818
vn 0.3283 -0.8535 0.4048
vn 0.6595 -0.5712 0.4887
vn 0.6652 -0.5593 0.4946
vn 0.0505 0.9174 -0.3947
vn -0.0104 0.9330 -0.3598
vn 0.2082 0.8659 -0.4547
vn 0.2836 0.8243 -0.4900
vn -0.1784 0.9475 -0.2653
vn 0.3392 0.7946 -0.5034
vn 0.3805 0.7499 -0.5412
vn -0.5451 -0.4346 -0.7169
vn -0.6018 -0.4195 -0.6796
vn -0.3591 -0.5062 -0.7841
vn -0.3137 -0.4930 -0.8115
vn -0.7635 -0.3325 -0.5536
vn -0.2552 -0.5077 -0.8229
vn -0.2740 -0.4455 -0.8523
vn -0.4875 -0.7214 0.4919
vn -0.3407 -0.7986 0.4961
vn -0.5408 -0.6744 0.5027
vn -0.2317 -0.8672 0.4408
vn -0.6195 -0.6254 0.4745
vn -0.6070 -0.6246 0.4913
vn 0.0078 0.6012 0.7991
vn 0.2472 0.5492 0.7983
vn 0.1592 0.5802 0.7987
vn 0.3997 0.5310 0.7472
vn -0.0324 0.6232 0.7814
vn -0.0464 0.6197 0.7835
vn 0.3682 -0.3819 -0.8477
vn 0.4336 -0.3772 -0.8184
vn 0.1990 -0.4036 -0.8930
vn 0.1076 -0.3997 -0.9103
vn 0.5985 -0.3458 -0.7226
vn 0.0435 -0.4045 -0.9135
vn -0.0222 -0.3785 -0.9253
vn 0.0613 0.9687 -0.2407
vn 0.1237 0.9699 -0.2098
vn -0.1431 0.9478 -0.2849
vn -0.1789 0.9297 -0.3221
vn 0.3290 0.9352 -0.1308
vn -0.2370 0.9128 -0.3326
vn -0.1944 0.9007 -0.3886
vn 0.1145 0.4470 0.8872
vn -0.0461 0.4119 0.9101
vn 0.1856 0.4412 0.8780
vn -0.1834 0.4250 0.8864
vn 0.2704 0.4697 0.8404
vn 0.2641 0.4530 0.8515
vn 0.4843 -0.8214 0.3012
vn 0.2606 -0.9207 0.2905
vn 0.3493 -0.8917 0.2878
vn 0.1155 -0.9653 0.2343
vn 0.5253 -0.8031 0.2812
vn 0.5352 -0.7944 0.2872
vn -0.9710 0.2115 -0.1114
vn -0.9567 -0.0195 -0.2904
vn -0.9082 0.4183 -0.0141
vn -0.8845 0.4665 0.0041
vn -0.6045 -0.6060 -0.5170
vn -0.3457 -0.6840 -0.6424
vn 0.0368 -0.8234 -0.5662
vn 0.1668 -0.7416 -0.6498
vn -0.9519 0.2793 -0.1259
vn -0.6465 -0.6074 -0.4617
vn -0.7936 0.6052 0.0620
vn -0.3209 -0.8544 -0.4087
vn -0.8417 -0.4075 -0.3541
vn -0.5687 -0.7837 -0.2498
vn -0.5482 0.8355 -0.0373
vn -0.8081 0.5486 -0.2148
vn -0.1533 -0.6923 -0.7052
vn 0.1651 -0.7144 -0.6800
vn -0.8923 -0.1588 -0.4225
vn -0.9050 0.4179 -0.0800
vn -0.2981 0.9258 -0.2322
vn -0.7182 0.6300 -0.2953
vn -0.4118 0.8534 -0.3194
vn -0.8824 0.4530 -0.1271
vn -0.9323 -0.3294 -0.1494
vn -0.8238 -0.5103 0.2470
vn -0.6323 -0.7719 0.0656
vn -0.2775 -0.9101 0.3079
vn -0.4046 -0.8892 0.2137
vn 0.1922 -0.9800 -0.0508
vn -0.2634 -0.8867 -0.3799
vn -0.9311 -0.3164 0.1816
vn -0.9597 -0.2235 -0.1701
vn -0.2873 -0.4423 -0.8496
vn -0.9647 0.0483 0.2590
vn -0.8989 0.2917 0.3269
vn -0.7568 0.6536 0.0029
vn 0.2245 -0.7276 -0.6482
vn -0.9333 0.1323 0.3339
vn 0.0887 -0.2999 -0.9498
vn -0.8052 0.0328 -0.5921
vn 0.9782 -0.0476 -0.2022
vn 0.9567 0.2512 -0.1469
vn 0.9082 -0.2233 -0.3540
vn 0.8927 -0.2906 -0.3444
vn 0.6055 0.7696 0.2025
vn 0.3457 0.9157 0.2051
vn -0.0362 0.9456 0.3234
vn -0.1668 0.9541 0.2486
vn 0.9766 -0.2148 -0.0046
vn 0.6610 0.6851 0.3062
vn 0.3229 0.8817 0.3438
vn 0.8119 -0.5338 -0.2365
vn 0.8498 0.4385 0.2925
vn 0.5864 0.7869 0.1919
vn 0.5603 -0.8256 -0.0665
vn 0.8288 -0.5416 0.1405
vn 0.1533 0.9722 0.1767
vn -0.1651 0.9638 0.2092
vn 0.8923 0.4388 -0.1059
vn 0.9049 -0.1685 -0.3907
vn 0.2985 -0.9412 0.1583
vn 0.7219 -0.6375 0.2691
vn 0.4040 -0.8767 0.2610
vn 0.8793 -0.4742 0.0442
vn 0.9404 0.3298 0.0828
vn 0.8149 0.4968 -0.2986
vn 0.6424 0.7526 -0.1447
vn 0.2596 0.8792 -0.3996
vn 0.9362 -0.0053 -0.3515
vn 0.3345 0.8838 -0.3270
vn 0.8417 0.4405 -0.3123
vn 0.8818 -0.1738 -0.4384
vn 0.7433 -0.6612 -0.1018
vn 0.1750 0.9597 0.2200
vn -0.2239 0.9667 -0.1236
vn -0.2642 0.8212 0.5057
vn 0.8202 0.2042 -0.5344
vn 0.7643 0.6415 -0.0656
vn 0.0850 0.8195 0.5667
vn -0.2783 0.7005 0.6571
vn 0.3578 0.9308 0.0744
vt 0.965281 1.890380
vt 0.935818 1.905920
vt 0.936555 1.934210
vt 0.980539 1.929430
vt 0.902372 1.837460
vt 0.929339 1.982870
vt 0.984913 1.982870
vt 0.901169 1.914520
vt 0.876607 1.965540
vt 0.841612 1.676200
vt 0.930196 1.685260
vt 0.911376 1.760620
vt 0.831119 1.734970
vt 0.842604 1.613120
vt 0.931339 1.604830
vt 0.833945 1.550050
vt 0.914954 1.526870
vt 0.700129 1.665980
vt 0.700129 1.617350
vt 0.700129 1.712890
vt 0.700129 1.568040
vt 0.476361 1.616820
vt 0.476361 1.574960
vt 0.476361 1.699170
vt 0.476361 1.658160
vt 0.993241 1.597310
vt 0.972421 1.504160
vt 0.993241 1.692880
vt 0.968122 1.785080
vt 0.393143 1.690790
vt 0.393143 1.653880
vt 0.309940 1.682420
vt 0.309940 1.649590
vt 0.393143 1.617030
vt 0.309940 1.617230
vt 0.393143 1.580230
vt 0.309940 1.585510
vt 0.222243 1.617620
vt 0.222243 1.593040
vt 0.134560 1.617990
vt 0.134560 1.638110
vt 0.025277 1.630120
vt 0.025277 1.621380
vt 0.222243 1.643850
vt 0.134560 1.660250
vt 0.222243 1.671330
vt 0.134560 1.600590
vt 0.025547 1.645160
vt 0.025547 1.612300
vt 0.008110 1.628490
vt 0.842378 1.609110
vt 0.931203 1.602770
vt 0.841446 1.672180
vt 0.929880 1.683190
vt 0.700129 1.615060
vt 0.700129 1.663690
vt 0.476361 1.657350
vt 0.476361 1.615990
vt 0.993241 1.692610
vt 0.993241 1.597080
vt 0.393143 1.617180
vt 0.309940 1.618380
vt 0.393143 1.654040
vt 0.309940 1.650750
vt 0.222243 1.620560
vt 0.222243 1.646810
vt 0.134560 1.622760
vt 0.134560 1.642890
vt 0.025277 1.627420
vt 0.025277 1.636170
s 1
usemtl plants_03_dif.019
f 3/1/1 2/2/2 1/3/3
f 4/4/4 3/1/1 1/3/3
f 5/5/5 2/2/2 3/1/1
f 4/4/4 1/3/3 6/6/6
f 7/7/7 4/4/4 6/6/6
f 10/2/8 9/1/9 8/4/10
f 11/3/11 10/2/8 8/4/10
f 12/5/12 9/1/9 10/2/8
f 11/3/11 8/4/10 13/7/13
f 14/6/14 11/3/11 13/7/13
f 17/8/15 16/2/16 15/3/17
f 18/5/18 16/2/16 17/8/15
f 17/8/15 15/3/17 19/6/19
f 20/9/20 17/8/15 19/6/19
f 23/3/21 22/2/22 21/8/23
f 24/5/24 21/8/23 22/2/22
f 23/3/21 21/8/23 25/9/25
f 26/6/26 23/3/21 25/9/25
f 29/1/27 28/2/28 27/3/29
f 30/4/30 29/1/27 27/3/29
f 31/5/31 28/2/28 29/1/27
f 30/4/30 27/3/29 32/6/32
f 33/7/33 30/4/30 32/6/32
f 36/2/34 35/1/35 34/4/36
f 37/3/37 36/2/34 34/4/36
f 38/5/38 35/1/35 36/2/34
f 37/3/37 34/4/36 39/7/39
f 40/6/40 37/3/37 39/7/39
f 43/8/41 42/2/42 41/3/43
f 44/5/44 42/2/42 43/8/41
f 43/8/41 41/3/43 45/6/45
f 46/9/46 43/8/41 45/6/45
f 49/3/47 48/2/48 47/8/49
f 50/5/50 47/8/49 48/2/48
f 49/3/47 47/8/49 51/9/51
f 52/6/52 49/3/47 51/9/51
f 55/1/53 54/2/54 53/3/55
f 56/4/56 55/1/53 53/3/55
f 57/5/57 54/2/54 55/1/53
f 56/4/56 53/3/55 58/6/58
f 59/7/59 56/4/56 58/6/58
f 62/2/60 61/1/61 60/4/62
f 63/3/63 62/2/60 60/4/62
f 64/5/64 61/1/61 62/2/60
f 63/3/63 60/4/62 65/7/65
f 66/6/66 63/3/63 65/7/65
f 69/8/67 68/2/68 67/3/69
f 70/5/70 68/2/68 69/8/67
f 69/8/67 67/3/69 71/6/71
f 72/9/72 69/8/67 71/6/71
f 75/3/73 74/2/74 73/8/75
f 76/5/76 73/8/75 74/2/74
f 75/3/73 73/8/75 77/9/77
f 78/6/78 75/3/73 77/9/77
f 81/1/79 80/2/80 79/3/81
f 82/4/82 81/1/79 79/3/81
f 83/5/83 80/2/80 81/1/79
f 82/4/82 79/3/81 84/6/84
f 85/7/85 82/4/82 84/6/84
f 88/2/86 87/1/87 86/4/88
f 89/3/89 88/2/86 86/4/88
f 90/5/90 87/1/87 88/2/86
f 89/3/89 86/4/88 91/7/91
f 92/6/92 89/3/89 91/7/91
f 95/8/93 94/2/94 93/3/95
f 96/5/96 94/2/94 95/8/93
f 95/8/93 93/3/95 97/6/97
f 98/9/98 95/8/93 97/6/97
f 101/3/99 100/2/100 99/8/101
f 102/5/102 99/8/101 100/2/100
f 101/3/99 99/8/101 103/9/103
f 104/6/104 101/3/99 103/9/103
f 107/1/105 106/2/106 105/3/107
f 108/4/108 107/1/105 105/3/107
f 109/5/109 106/2/106 107/1/105
f 108/4/108 105/3/107 110/6/110
f 111/7/111 108/4/108 110/6/110
f 114/2/112 113/1/113 112/4/114
f 115/3/115 114/2/112 112/4/114
f 116/5/116 113/1/113 114/2/112
f 115/3/115 112/4/114 117/7/117
f 118/6/118 115/3/115 117/7/117
f 121/8/119 120/2/120 119/3/121
f 122/5/122 120/2/120 121/8/119
f 121/8/119 119/3/121 123/6/123
f 124/9/124 121/8/119 123/6/123
f 127/3/125 126/2/126 125/8/127
f 128/5/128 125/8/127 126/2/126
f 127/3/125 125/8/127 129/9/129
f 130/6/130 127/3/125 129/9/129
f 133/10/131 132/11/132 131/12/133
f 134/13/134 133/10/131 131/12/133
f 133/10/131 135/14/135 132/11/132
f 135/14/135 136/15/136 132/11/132
f 135/14/135 137/16/137 136/15/136
f 137/16/137 138/17/138 136/15/136
f 133/10/131 139/18/139 135/14/135
f 139/18/139 140/19/140 135/14/135
f 135/14/135 140/19/140 137/16/137
f 141/20/141 139/18/139 133/10/131
f 134/13/134 141/20/141 133/10/131
f 140/19/140 142/21/142 137/16/137
f 140/19/140 143/22/143 142/21/142
f 143/22/143 144/23/144 142/21/142
f 141/20/141 145/24/145 139/18/139
f 145/24/145 146/25/146 139/18/139
f 146/25/146 143/22/143 140/19/140
f 139/18/139 146/25/146 140/19/140
f 136/15/136 138/17/138 147/26/147
f 138/17/138 148/27/148 147/26/147
f 136/15/136 147/26/147 149/28/149
f 132/11/132 136/15/136 149/28/149
f 132/11/132 149/28/149 150/29/150
f 131/12/133 132/11/132 150/29/150
f 145/24/145 151/30/151 146/25/146
f 151/30/151 152/31/152 146/25/146
f 146/25/146 152/31/152 143/22/143
f 151/30/151 153/32/153 152/31/152
f 153/32/153 154/33/154 152/31/152
f 152/31/152 154/33/154 155/34/155
f 143/22/143 155/34/155 144/23/144
f 152/31/152 155/34/155 143/22/143
f 154/33/154 156/35/156 155/34/155
f 155/34/155 156/35/156 157/36/157
f 155/34/155 157/36/157 144/23/144
f 156/35/156 158/37/158 157/36/157
f 156/35/156 159/38/159 158/37/158
f 159/38/159 160/39/160 158/37/158
f 159/38/159 161/40/161 160/39/160
f 162/41/162 161/40/161 159/38/159
f 162/41/162 163/42/163 161/40/161
f 163/42/163 164/43/164 161/40/161
f 165/44/165 162/41/162 159/38/159
f 165/44/165 159/38/159 156/35/156
f 154/33/154 165/44/165 156/35/156
f 166/45/166 162/41/162 165/44/165
f 167/46/167 166/45/166 165/44/165
f 167/46/167 165/44/165 154/33/154
f 153/32/153 167/46/167 154/33/154
f 161/40/161 168/47/168 160/39/160
f 161/40/161 164/43/164 168/47/168
f 169/48/169 163/42/163 162/41/162
f 166/45/166 169/48/169 162/41/162
f 164/43/164 170/49/170 168/47/168
f 169/48/169 171/50/171 163/42/163
f 164/43/164 171/50/171 170/49/170
f 163/42/163 171/50/171 164/43/164
f 174/51/172 173/52/173 172/17/174
f 175/16/175 174/51/172 172/17/174
f 174/51/172 176/53/176 173/52/173
f 176/53/176 177/54/177 173/52/173
f 176/53/176 178/13/178 177/54/177
f 178/13/178 179/12/179 177/54/177
f 174/51/172 180/55/180 176/53/176
f 180/55/180 181/56/181 176/53/176
f 176/53/176 181/56/181 178/13/178
f 181/56/181 182/20/182 178/13/178
f 183/21/183 180/55/180 174/51/172
f 175/16/175 183/21/183 174/51/172
f 181/56/181 184/57/184 182/20/182
f 184/57/184 185/24/185 182/20/182
f 183/21/183 186/23/186 180/55/180
f 186/23/186 187/58/187 180/55/180
f 187/58/187 184/57/184 181/56/181
f 180/55/180 187/58/187 181/56/181
f 177/54/177 179/12/179 188/59/188
f 179/12/179 189/29/189 188/59/188
f 177/54/177 188/59/188 190/60/190
f 173/52/173 177/54/177 190/60/190
f 173/52/173 190/60/190 191/27/191
f 172/17/174 173/52/173 191/27/191
f 186/23/186 192/36/192 187/58/187
f 192/36/192 193/61/193 187/58/187
f 187/58/187 193/61/193 184/57/184
f 192/36/192 194/37/194 193/61/193
f 194/37/194 195/62/195 193/61/193
f 193/61/193 195/62/195 196/63/196
f 184/57/184 196/63/196 185/24/185
f 193/61/193 196/63/196 184/57/184
f 195/62/195 197/64/197 196/63/196
f 196/63/196 197/64/197 198/30/198
f 196/63/196 198/30/198 185/24/185
f 197/64/197 199/32/199 198/30/198
f 195/62/195 200/65/200 197/64/197
f 200/65/200 201/66/201 197/64/197
f 197/64/197 201/66/201 199/32/199
f 200/65/200 202/67/202 201/66/201
f 203/47/203 202/67/202 200/65/200
f 204/39/204 203/47/203 200/65/200
f 204/39/204 200/65/200 195/62/195
f 194/37/194 204/39/204 195/62/195
f 202/67/202 205/68/205 201/66/201
f 201/66/201 205/68/205 206/46/206
f 201/66/201 206/46/206 199/32/199
f 205/68/205 207/45/207 206/46/206
f 203/47/203 208/49/208 202/67/202
f 208/49/208 209/69/209 202/67/202
f 202/67/202 209/69/209 205/68/205
f 205/68/205 210/70/210 207/45/207
f 209/69/209 210/70/210 205/68/205
f 210/70/210 211/48/211 207/45/207
f 209/69/209 212/50/212 210/70/210
f 208/49/208 212/50/212 209/69/209
f 210/70/210 212/50/212 211/48/211
