# Blender 4.0.1
# www.blender.org
mtllib plantaocho.mtl
o f_plant_05.006
v 53.794769 26.300568 203.297104
v 54.216068 26.054270 203.482071
v 54.727993 26.182203 203.209167
v 54.305271 26.634672 202.805099
v 54.944141 25.662899 204.556915
v 53.026379 26.729557 203.172150
v 53.652054 27.288641 202.577332
v 54.305271 26.634672 202.805099
v 54.727993 26.182203 203.209167
v 54.720493 26.623224 203.609833
v 54.472378 27.021875 203.464310
v 54.944141 25.662899 204.556915
v 53.652054 27.288641 202.577332
v 54.021252 27.763260 203.411789
v 54.472378 27.021875 203.464310
v 54.720493 26.623224 203.609833
v 54.144821 26.541954 203.880676
v 54.944141 25.662899 204.556915
v 54.021252 27.763260 203.411789
v 53.395599 27.204149 204.006653
v 54.144821 26.541954 203.880676
v 54.216068 26.054270 203.482071
v 53.794769 26.300568 203.297104
v 54.944141 25.662899 204.556915
v 53.395599 27.204149 204.006653
v 53.026379 26.729557 203.172150
v 51.425076 25.685871 200.048447
v 50.903545 25.701130 200.058945
v 50.665482 26.025436 200.495972
v 51.371288 26.159819 200.670456
v 49.740158 25.853724 199.379242
v 52.287846 25.667765 199.835434
v 52.293056 26.378963 200.578369
v 51.371288 26.159819 200.670456
v 50.665482 26.025436 200.495972
v 50.742058 26.454464 200.089645
v 51.188549 26.660107 200.097168
v 49.740158 25.853724 199.379242
v 52.293056 26.378963 200.578369
v 51.930107 27.075436 199.914230
v 51.188549 26.660107 200.097168
v 50.742058 26.454464 200.089645
v 51.054192 26.139269 199.626328
v 49.740158 25.853724 199.379242
v 51.930107 27.075436 199.914230
v 51.924820 26.364159 199.171265
v 51.054192 26.139269 199.626328
v 50.903545 25.701130 200.058945
v 51.425076 25.685871 200.048447
v 49.740158 25.853724 199.379242
v 51.924820 26.364159 199.171265
v 52.287846 25.667765 199.835434
v 53.403595 30.715834 206.980652
v 53.399876 31.292435 207.053711
v 52.943192 31.621222 206.705887
v 52.731670 30.869329 206.444962
v 53.444420 32.467628 208.001266
v 53.452328 29.731230 207.071487
v 52.490398 29.836987 206.458435
v 52.731670 30.869329 206.444962
v 52.943192 31.621222 206.705887
v 52.580894 31.470060 207.240967
v 52.342896 30.977573 207.217468
v 53.444420 32.467628 208.001266
v 52.490398 29.836987 206.458435
v 51.917942 30.128387 207.406967
v 52.342896 30.977573 207.217468
v 52.580894 31.470060 207.240967
v 53.032322 31.055540 207.607956
v 53.444420 32.467628 208.001266
v 51.917942 30.128387 207.406967
v 52.879875 30.022587 208.019989
v 53.032322 31.055540 207.607956
v 53.399876 31.292435 207.053711
v 53.403595 30.715834 206.980652
v 53.444420 32.467628 208.001266
v 52.879875 30.022587 208.019989
v 53.452328 29.731230 207.071487
v 48.463821 29.013197 215.682114
v 47.872288 28.582989 215.675186
v 47.781883 28.107796 214.997543
v 48.673725 28.549444 214.708633
v 46.755737 27.354574 216.600571
v 49.478661 29.679432 215.961884
v 49.922760 29.015526 214.761795
v 48.673725 28.549444 214.708633
v 47.781883 28.107796 214.997543
v 48.268715 27.603058 215.451050
v 48.943081 27.725447 215.380447
v 46.755737 27.354574 216.600571
v 49.922760 29.015526 214.761795
v 50.151405 27.807632 215.514664
v 48.943081 27.725447 215.380447
v 48.268715 27.603058 215.451050
v 48.455772 28.121712 216.161102
v 46.755737 27.354574 216.600571
v 50.151405 27.807632 215.514664
v 49.707348 28.471540 216.714722
v 48.455772 28.121712 216.161102
v 47.872288 28.582989 215.675186
v 48.463821 29.013197 215.682114
v 46.755737 27.354574 216.600571
v 49.707348 28.471540 216.714722
v 49.478661 29.679432 215.961884
v 53.499249 28.183386 222.495499
v 53.722561 28.878590 222.538101
v 53.205502 29.442596 222.209930
v 52.613342 28.615808 222.010742
v 54.467674 30.275707 223.589218
v 53.229504 26.980501 222.675186
v 51.964520 27.462191 222.179321
v 52.613342 28.615808 222.010742
v 53.205502 29.442596 222.209930
v 52.880295 29.393545 222.977524
v 52.418110 28.888445 223.055008
v 54.467674 30.275707 223.589218
v 51.964520 27.462191 222.179321
v 51.670227 28.022701 223.474396
v 52.418110 28.888445 223.055008
v 52.880295 29.393545 222.977524
v 53.365891 28.728302 223.337799
v 54.467674 30.275707 223.589218
v 51.670227 28.022701 223.474396
v 52.935188 27.540955 223.970322
v 53.365891 28.728302 223.337799
v 53.722561 28.878590 222.538101
v 53.499249 28.183386 222.495499
v 54.467674 30.275707 223.589218
v 52.935188 27.540955 223.970322
v 53.229504 26.980501 222.675186
v 50.344624 24.847929 228.180191
v 51.457760 22.270485 226.806274
v 50.574154 24.036076 223.987808
v 49.893417 26.134224 225.020477
v 52.811539 23.808636 223.052734
v 54.374401 22.233555 225.683029
v 54.368172 25.679296 223.150314
v 56.177948 24.774065 225.933685
v 49.336811 26.229780 220.215836
v 50.981075 25.497324 219.535629
v 49.270901 28.059414 220.808014
v 52.559319 26.594608 219.447449
v 50.242268 27.635952 215.244705
v 51.859093 28.001799 214.978592
v 49.598877 30.471869 215.234222
v 49.112171 28.870993 215.372559
v 55.453865 20.820126 227.466995
v 57.699268 23.983067 227.779053
v 51.822624 20.866106 228.865448
v 50.436825 24.075026 230.575943
v 51.114296 31.263020 210.430130
v 50.371929 29.984226 210.271896
v 51.886391 30.039345 206.772507
v 51.525997 28.832727 207.127899
v 50.915840 28.754412 210.858429
v 52.430058 27.962307 207.498138
v 52.202038 28.803391 211.603073
v 53.694546 28.298500 207.512970
v 53.495480 26.021191 202.998459
v 54.225597 27.008038 202.645630
v 51.649769 25.205116 196.603317
v 51.123589 25.001011 197.285461
v 47.569027 26.903439 193.709137
v 47.771355 27.022825 193.397644
v 52.444851 26.265724 203.239578
v 50.998871 25.585503 197.938690
v 52.124332 27.497063 203.127838
v 52.051250 25.993694 196.574478
v 47.502369 27.149481 194.004425
v 47.906956 27.388275 193.381409
v 47.117275 27.473455 193.389877
v 56.177948 24.774065 225.933685
v 55.064850 27.351547 227.307587
v 53.687389 27.777399 224.182983
v 54.368172 25.679296 223.150314
v 51.450016 28.004885 225.118073
v 52.148209 27.388479 228.430832
v 49.893417 26.134224 225.020477
v 50.344624 24.847929 228.180191
v 52.493382 28.424263 220.039566
v 50.849113 29.156681 220.719757
v 49.270901 28.059414 220.808014
v 52.559319 26.594608 219.447449
v 51.215721 30.837700 214.968170
v 49.598877 30.471869 215.234222
v 51.859093 28.001799 214.978592
v 52.345814 29.602652 214.840317
v 52.682232 27.238007 230.888016
v 50.436825 24.075026 230.575943
v 56.313477 27.192026 229.489563
v 57.699268 23.983067 227.779053
v 52.202038 28.803391 211.603073
v 52.944435 30.082148 211.761292
v 53.694546 28.298500 207.512970
v 54.054920 29.505074 207.157562
v 52.400543 31.311939 211.174805
v 53.150841 30.375496 206.787323
v 51.114296 31.263020 210.430130
v 51.886391 30.039345 206.772507
v 53.905079 28.239376 202.533890
v 52.854446 28.483871 202.774994
v 51.926521 26.578121 197.227692
v 52.051250 25.993694 196.574478
v 54.225597 27.008038 202.645630
v 51.400322 26.374039 197.909775
v 52.124332 27.497063 203.127838
v 50.998871 25.585503 197.938690
v 47.906956 27.388275 193.381409
v 47.840248 27.634319 193.676727
v 47.638008 27.514973 193.988266
v 47.502369 27.149481 194.004425
v 47.117275 27.473455 193.389877
vn -0.0926 -0.8192 -0.5660
vn -0.0599 -0.8559 -0.5136
vn -0.1882 -0.7159 -0.6724
vn -0.2267 -0.6498 -0.7255
vn 0.0381 -0.9304 -0.3646
vn -0.2611 -0.6032 -0.7537
vn -0.2684 -0.5448 -0.7944
vn 0.8978 0.2977 -0.3245
vn 0.9259 0.2624 -0.2716
vn 0.7861 0.4295 -0.4444
vn 0.7562 0.4336 -0.4900
vn 0.9865 0.1189 -0.1124
vn 0.7148 0.4668 -0.5207
vn 0.7289 0.4044 -0.5525
vn 0.3753 0.4881 0.7880
vn 0.2666 0.6069 0.7487
vn 0.4046 0.4260 0.8092
vn 0.2149 0.7107 0.6699
vn 0.4728 0.3571 0.8056
vn 0.4544 0.3590 0.8153
vn -0.5149 -0.6313 0.5799
vn -0.7072 -0.5065 0.4932
vn -0.6395 -0.5637 0.5228
vn -0.8105 -0.4371 0.3899
vn -0.4779 -0.6633 0.5759
vn -0.4660 -0.6646 0.5841
vn -0.1244 -0.8258 0.5501
vn -0.1877 -0.8350 0.5173
vn 0.0413 -0.7964 0.6033
vn 0.1239 -0.7648 0.6322
vn -0.3567 -0.8327 0.4236
vn 0.1844 -0.7448 0.6413
vn 0.2342 -0.7031 0.6714
vn -0.4381 0.6519 0.6190
vn -0.4972 0.6418 0.5838
vn -0.2407 0.6963 0.6762
vn -0.1983 0.6795 0.7064
vn -0.6748 0.5674 0.4719
vn -0.1379 0.6842 0.7161
vn -0.1681 0.6330 0.7557
vn -0.3439 0.7051 -0.6201
vn -0.1849 0.7502 -0.6348
vn -0.4056 0.6684 -0.6235
vn -0.0638 0.8046 -0.5904
vn -0.4920 0.6414 -0.5886
vn -0.4802 0.6353 -0.6048
vn -0.1226 -0.7218 -0.6812
vn 0.1223 -0.7183 -0.6848
vn 0.0299 -0.7311 -0.6816
vn 0.2762 -0.7217 -0.6347
vn -0.1662 -0.7320 -0.6607
vn -0.1791 -0.7263 -0.6636
vn 0.6792 0.2057 -0.7045
vn 0.6974 0.2638 -0.6664
vn 0.6339 0.0489 -0.7718
vn 0.5943 -0.0290 -0.8037
vn 0.7214 0.4179 -0.5522
vn 0.5711 -0.0877 -0.8162
vn 0.5222 -0.1331 -0.8424
vn -0.7654 0.5168 -0.3836
vn -0.7459 0.5705 -0.3438
vn -0.8271 0.3291 -0.4556
vn -0.8189 0.2916 -0.4944
vn -0.6429 0.7309 -0.2288
vn -0.8274 0.2331 -0.5110
vn -0.7858 0.2690 -0.5569
vn -0.5331 0.2489 0.8086
vn -0.5778 0.0891 0.8113
vn -0.4949 0.3097 0.8119
vn -0.6443 -0.0249 0.7644
vn -0.4745 0.4003 0.7840
vn -0.4651 0.3864 0.7965
vn 0.8628 0.0300 0.5047
vn 0.8537 -0.2131 0.4751
vn 0.8679 -0.1210 0.4818
vn 0.8413 -0.3583 0.4048
vn 0.8692 0.0760 0.4887
vn 0.8646 0.0884 0.4946
vn -0.6236 0.6748 -0.3947
vn -0.6772 0.6419 -0.3598
vn -0.4769 0.7522 -0.4547
vn -0.3945 0.7773 -0.4900
vn -0.8045 0.5314 -0.2653
vn -0.3345 0.7966 -0.5034
vn -0.2737 0.7951 -0.5412
vn -0.0673 -0.6939 -0.7169
vn -0.1176 -0.7241 -0.6796
vn 0.1136 -0.6102 -0.7841
vn 0.1357 -0.5684 -0.8115
vn -0.2926 -0.7797 -0.5536
vn 0.1870 -0.5366 -0.8229
vn 0.1291 -0.5068 -0.8523
vn 0.1788 -0.8521 0.4919
vn 0.3363 -0.8005 0.4961
vn 0.1079 -0.8577 0.5027
vn 0.4614 -0.7699 0.4408
vn 0.0179 -0.8801 0.4745
vn 0.0260 -0.8706 0.4913
vn -0.4263 0.4241 0.7991
vn -0.2223 0.5598 0.7983
vn -0.3059 0.5182 0.7987
vn -0.1031 0.6566 0.7472
vn -0.4701 0.4104 0.7814
vn -0.4772 0.3980 0.7835
vn 0.5304 -0.0014 -0.8477
vn 0.5726 0.0488 -0.8184
vn 0.4283 -0.1380 -0.8930
vn 0.3619 -0.2009 -0.9103
vn 0.6649 0.1891 -0.7226
vn 0.3207 -0.2503 -0.9135
vn 0.2563 -0.2794 -0.9253
vn -0.6529 0.7182 -0.2407
vn -0.6104 0.7638 -0.2098
vn -0.7802 0.5569 -0.2849
vn -0.7921 0.5185 -0.3221
vn -0.4426 0.8871 -0.1308
vn -0.8204 0.4651 -0.3326
vn -0.7820 0.4873 -0.3886
vn -0.2413 0.3934 0.8872
vn -0.3278 0.2536 0.9101
vn -0.1876 0.4403 0.8780
vn -0.4328 0.1641 0.8864
vn -0.1491 0.5210 0.8404
vn -0.1415 0.5049 0.8515
vn 0.9269 -0.2239 0.3012
vn 0.8425 -0.4537 0.2905
vn 0.8834 -0.3698 0.2878
vn 0.7735 -0.5888 0.2343
vn 0.9423 -0.1817 0.2812
vn 0.9429 -0.1685 0.2872
vn -0.8277 -0.5501 -0.1114
vn -0.6518 -0.7006 -0.2904
vn -0.9325 -0.3610 -0.0141
vn -0.9506 -0.3104 0.0041
vn 0.0144 -0.8559 -0.5170
vn 0.2506 -0.7242 -0.6424
vn 0.6168 -0.5467 -0.5662
vn 0.6486 -0.3963 -0.6498
vn -0.8631 -0.4891 -0.1259
vn -0.0138 -0.8869 -0.4617
vn -0.9869 -0.1486 0.0620
vn 0.3902 -0.8250 -0.4087
vn -0.2932 -0.8880 -0.3541
vn 0.1669 -0.9538 -0.2498
vn -0.9815 0.1879 -0.0373
vn -0.9563 -0.1984 -0.2148
vn 0.3904 -0.5919 -0.7052
vn 0.6279 -0.3787 -0.6800
vn -0.5070 -0.7513 -0.4225
vn -0.9299 -0.3589 -0.0800
vn -0.8723 0.4303 -0.2322
vn -0.9523 -0.0772 -0.2953
vn -0.8995 0.2983 -0.3194
vn -0.9394 -0.3183 -0.1271
vn -0.4123 -0.8987 -0.1494
vn -0.2069 -0.9467 0.2470
vn 0.1142 -0.9913 0.0656
vn 0.4604 -0.8326 0.3079
vn 0.3569 -0.9094 0.2137
vn 0.8375 -0.5441 -0.0508
vn 0.4534 -0.8063 -0.3799
vn -0.4208 -0.8888 0.1816
vn -0.5075 -0.8447 -0.1701
vn 0.1177 -0.5141 -0.8496
vn -0.7061 -0.6591 0.2590
vn -0.8351 -0.4424 0.3269
vn -0.9961 -0.0886 0.0029
vn 0.6787 -0.3452 -0.6482
vn -0.7445 -0.5780 0.3339
vn 0.2771 -0.1450 -0.9498
vn -0.5839 -0.5554 -0.5921
vn 0.7150 0.6693 -0.2022
vn 0.4854 0.8618 -0.1469
vn 0.7924 0.4967 -0.3540
vn 0.8300 0.4388 -0.3444
vn -0.1312 0.9704 0.2025
vn -0.4169 0.8855 0.2051
vn -0.7042 0.6321 0.3234
vn -0.8012 0.5443 0.2486
vn 0.8340 0.5518 -0.0046
vn -0.0319 0.9514 0.3062
vn -0.4084 0.8456 0.3438
vn 0.9483 0.2115 -0.2365
vn 0.2766 0.9154 0.2925
vn -0.1570 0.9688 0.1919
vn 0.9828 -0.1723 -0.0665
vn 0.9658 0.2182 0.1405
vn -0.5915 0.7867 0.1767
vn -0.8070 0.5522 0.2092
vn 0.3059 0.9461 -0.1059
vn 0.7508 0.5325 -0.3907
vn 0.8836 -0.4407 0.1583
vn 0.9602 0.0747 0.2691
vn 0.9107 -0.3201 0.2610
vn 0.9525 0.3014 0.0442
vn 0.4177 0.9048 0.0828
vn 0.2104 0.9309 -0.2986
vn -0.0933 0.9851 -0.1447
vn -0.4506 0.7983 -0.3996
vn 0.6554 0.6685 -0.3515
vn -0.4019 0.8553 -0.3270
vn 0.2695 0.9110 -0.3123
vn 0.7385 0.5123 -0.4384
vn 0.9921 0.0736 -0.1018
vn -0.5673 0.7936 0.2200
vn -0.8500 0.5120 -0.1236
vn -0.7736 0.3819 0.5057
vn 0.4243 0.7311 -0.5344
vn 0.0712 0.9953 -0.0656
vn -0.5293 0.6314 0.5667
vn -0.6967 0.2877 0.6571
vn -0.4194 0.9048 0.0744
vt 0.965281 1.890380
vt 0.935818 1.905920
vt 0.936555 1.934210
vt 0.980539 1.929430
vt 0.902372 1.837460
vt 0.929339 1.982870
vt 0.984913 1.982870
vt 0.901169 1.914520
vt 0.876607 1.965540
vt 0.841612 1.676200
vt 0.930196 1.685260
vt 0.911376 1.760620
vt 0.831119 1.734970
vt 0.842604 1.613120
vt 0.931339 1.604830
vt 0.833945 1.550050
vt 0.914954 1.526870
vt 0.700129 1.665980
vt 0.700129 1.617350
vt 0.700129 1.712890
vt 0.700129 1.568040
vt 0.476361 1.616820
vt 0.476361 1.574960
vt 0.476361 1.699170
vt 0.476361 1.658160
vt 0.993241 1.597310
vt 0.972421 1.504160
vt 0.993241 1.692880
vt 0.968122 1.785080
vt 0.393143 1.690790
vt 0.393143 1.653880
vt 0.309940 1.682420
vt 0.309940 1.649590
vt 0.393143 1.617030
vt 0.309940 1.617230
vt 0.393143 1.580230
vt 0.309940 1.585510
vt 0.222243 1.617620
vt 0.222243 1.593040
vt 0.134560 1.617990
vt 0.134560 1.638110
vt 0.025277 1.630120
vt 0.025277 1.621380
vt 0.222243 1.643850
vt 0.134560 1.660250
vt 0.222243 1.671330
vt 0.134560 1.600590
vt 0.025547 1.645160
vt 0.025547 1.612300
vt 0.008110 1.628490
vt 0.842378 1.609110
vt 0.931203 1.602770
vt 0.841446 1.672180
vt 0.929880 1.683190
vt 0.700129 1.615060
vt 0.700129 1.663690
vt 0.476361 1.657350
vt 0.476361 1.615990
vt 0.993241 1.692610
vt 0.993241 1.597080
vt 0.393143 1.617180
vt 0.309940 1.618380
vt 0.393143 1.654040
vt 0.309940 1.650750
vt 0.222243 1.620560
vt 0.222243 1.646810
vt 0.134560 1.622760
vt 0.134560 1.642890
vt 0.025277 1.627420
vt 0.025277 1.636170
s 1
usemtl plants_03_dif.019
f 3/1/1 2/2/2 1/3/3
f 4/4/4 3/1/1 1/3/3
f 5/5/5 2/2/2 3/1/1
f 4/4/4 1/3/3 6/6/6
f 7/7/7 4/4/4 6/6/6
f 10/2/8 9/1/9 8/4/10
f 11/3/11 10/2/8 8/4/10
f 12/5/12 9/1/9 10/2/8
f 11/3/11 8/4/10 13/7/13
f 14/6/14 11/3/11 13/7/13
f 17/8/15 16/2/16 15/3/17
f 18/5/18 16/2/16 17/8/15
f 17/8/15 15/3/17 19/6/19
f 20/9/20 17/8/15 19/6/19
f 23/3/21 22/2/22 21/8/23
f 24/5/24 21/8/23 22/2/22
f 23/3/21 21/8/23 25/9/25
f 26/6/26 23/3/21 25/9/25
f 29/1/27 28/2/28 27/3/29
f 30/4/30 29/1/27 27/3/29
f 31/5/31 28/2/28 29/1/27
f 30/4/30 27/3/29 32/6/32
f 33/7/33 30/4/30 32/6/32
f 36/2/34 35/1/35 34/4/36
f 37/3/37 36/2/34 34/4/36
f 38/5/38 35/1/35 36/2/34
f 37/3/37 34/4/36 39/7/39
f 40/6/40 37/3/37 39/7/39
f 43/8/41 42/2/42 41/3/43
f 44/5/44 42/2/42 43/8/41
f 43/8/41 41/3/43 45/6/45
f 46/9/46 43/8/41 45/6/45
f 49/3/47 48/2/48 47/8/49
f 50/5/50 47/8/49 48/2/48
f 49/3/47 47/8/49 51/9/51
f 52/6/52 49/3/47 51/9/51
f 55/1/53 54/2/54 53/3/55
f 56/4/56 55/1/53 53/3/55
f 57/5/57 54/2/54 55/1/53
f 56/4/56 53/3/55 58/6/58
f 59/7/59 56/4/56 58/6/58
f 62/2/60 61/1/61 60/4/62
f 63/3/63 62/2/60 60/4/62
f 64/5/64 61/1/61 62/2/60
f 63/3/63 60/4/62 65/7/65
f 66/6/66 63/3/63 65/7/65
f 69/8/67 68/2/68 67/3/69
f 70/5/70 68/2/68 69/8/67
f 69/8/67 67/3/69 71/6/71
f 72/9/72 69/8/67 71/6/71
f 75/3/73 74/2/74 73/8/75
f 76/5/76 73/8/75 74/2/74
f 75/3/73 73/8/75 77/9/77
f 78/6/78 75/3/73 77/9/77
f 81/1/79 80/2/80 79/3/81
f 82/4/82 81/1/79 79/3/81
f 83/5/83 80/2/80 81/1/79
f 82/4/82 79/3/81 84/6/84
f 85/7/85 82/4/82 84/6/84
f 88/2/86 87/1/87 86/4/88
f 89/3/89 88/2/86 86/4/88
f 90/5/90 87/1/87 88/2/86
f 89/3/89 86/4/88 91/7/91
f 92/6/92 89/3/89 91/7/91
f 95/8/93 94/2/94 93/3/95
f 96/5/96 94/2/94 95/8/93
f 95/8/93 93/3/95 97/6/97
f 98/9/98 95/8/93 97/6/97
f 101/3/99 100/2/100 99/8/101
f 102/5/102 99/8/101 100/2/100
f 101/3/99 99/8/101 103/9/103
f 104/6/104 101/3/99 103/9/103
f 107/1/105 106/2/106 105/3/107
f 108/4/108 107/1/105 105/3/107
f 109/5/109 106/2/106 107/1/105
f 108/4/108 105/3/107 110/6/110
f 111/7/111 108/4/108 110/6/110
f 114/2/112 113/1/113 112/4/114
f 115/3/115 114/2/112 112/4/114
f 116/5/116 113/1/113 114/2/112
f 115/3/115 112/4/114 117/7/117
f 118/6/118 115/3/115 117/7/117
f 121/8/119 120/2/120 119/3/121
f 122/5/122 120/2/120 121/8/119
f 121/8/119 119/3/121 123/6/123
f 124/9/124 121/8/119 123/6/123
f 127/3/125 126/2/126 125/8/127
f 128/5/128 125/8/127 126/2/126
f 127/3/125 125/8/127 129/9/129
f 130/6/130 127/3/125 129/9/129
f 133/10/131 132/11/132 131/12/133
f 134/13/134 133/10/131 131/12/133
f 133/10/131 135/14/135 132/11/132
f 135/14/135 136/15/136 132/11/132
f 135/14/135 137/16/137 136/15/136
f 137/16/137 138/17/138 136/15/136
f 133/10/131 139/18/139 135/14/135
f 139/18/139 140/19/140 135/14/135
f 135/14/135 140/19/140 137/16/137
f 141/20/141 139/18/139 133/10/131
f 134/13/134 141/20/141 133/10/131
f 140/19/140 142/21/142 137/16/137
f 140/19/140 143/22/143 142/21/142
f 143/22/143 144/23/144 142/21/142
f 141/20/141 145/24/145 139/18/139
f 145/24/145 146/25/146 139/18/139
f 146/25/146 143/22/143 140/19/140
f 139/18/139 146/25/146 140/19/140
f 136/15/136 138/17/138 147/26/147
f 138/17/138 148/27/148 147/26/147
f 136/15/136 147/26/147 149/28/149
f 132/11/132 136/15/136 149/28/149
f 132/11/132 149/28/149 150/29/150
f 131/12/133 132/11/132 150/29/150
f 145/24/145 151/30/151 146/25/146
f 151/30/151 152/31/152 146/25/146
f 146/25/146 152/31/152 143/22/143
f 151/30/151 153/32/153 152/31/152
f 153/32/153 154/33/154 152/31/152
f 152/31/152 154/33/154 155/34/155
f 143/22/143 155/34/155 144/23/144
f 152/31/152 155/34/155 143/22/143
f 154/33/154 156/35/156 155/34/155
f 155/34/155 156/35/156 157/36/157
f 155/34/155 157/36/157 144/23/144
f 156/35/156 158/37/158 157/36/157
f 156/35/156 159/38/159 158/37/158
f 159/38/159 160/39/160 158/37/158
f 159/38/159 161/40/161 160/39/160
f 162/41/162 161/40/161 159/38/159
f 162/41/162 163/42/163 161/40/161
f 163/42/163 164/43/164 161/40/161
f 165/44/165 162/41/162 159/38/159
f 165/44/165 159/38/159 156/35/156
f 154/33/154 165/44/165 156/35/156
f 166/45/166 162/41/162 165/44/165
f 167/46/167 166/45/166 165/44/165
f 167/46/167 165/44/165 154/33/154
f 153/32/153 167/46/167 154/33/154
f 161/40/161 168/47/168 160/39/160
f 161/40/161 164/43/164 168/47/168
f 169/48/169 163/42/163 162/41/162
f 166/45/166 169/48/169 162/41/162
f 164/43/164 170/49/170 168/47/168
f 169/48/169 171/50/171 163/42/163
f 164/43/164 171/50/171 170/49/170
f 163/42/163 171/50/171 164/43/164
f 174/51/172 173/52/173 172/17/174
f 175/16/175 174/51/172 172/17/174
f 174/51/172 176/53/176 173/52/173
f 176/53/176 177/54/177 173/52/173
f 176/53/176 178/13/178 177/54/177
f 178/13/178 179/12/179 177/54/177
f 174/51/172 180/55/180 176/53/176
f 180/55/180 181/56/181 176/53/176
f 176/53/176 181/56/181 178/13/178
f 181/56/181 182/20/182 178/13/178
f 183/21/183 180/55/180 174/51/172
f 175/16/175 183/21/183 174/51/172
f 181/56/181 184/57/184 182/20/182
f 184/57/184 185/24/185 182/20/182
f 183/21/183 186/23/186 180/55/180
f 186/23/186 187/58/187 180/55/180
f 187/58/187 184/57/184 181/56/181
f 180/55/180 187/58/187 181/56/181
f 177/54/177 179/12/179 188/59/188
f 179/12/179 189/29/189 188/59/188
f 177/54/177 188/59/188 190/60/190
f 173/52/173 177/54/177 190/60/190
f 173/52/173 190/60/190 191/27/191
f 172/17/174 173/52/173 191/27/191
f 186/23/186 192/36/192 187/58/187
f 192/36/192 193/61/193 187/58/187
f 187/58/187 193/61/193 184/57/184
f 192/36/192 194/37/194 193/61/193
f 194/37/194 195/62/195 193/61/193
f 193/61/193 195/62/195 196/63/196
f 184/57/184 196/63/196 185/24/185
f 193/61/193 196/63/196 184/57/184
f 195/62/195 197/64/197 196/63/196
f 196/63/196 197/64/197 198/30/198
f 196/63/196 198/30/198 185/24/185
f 197/64/197 199/32/199 198/30/198
f 195/62/195 200/65/200 197/64/197
f 200/65/200 201/66/201 197/64/197
f 197/64/197 201/66/201 199/32/199
f 200/65/200 202/67/202 201/66/201
f 203/47/203 202/67/202 200/65/200
f 204/39/204 203/47/203 200/65/200
f 204/39/204 200/65/200 195/62/195
f 194/37/194 204/39/204 195/62/195
f 202/67/202 205/68/205 201/66/201
f 201/66/201 205/68/205 206/46/206
f 201/66/201 206/46/206 199/32/199
f 205/68/205 207/45/207 206/46/206
f 203/47/203 208/49/208 202/67/202
f 208/49/208 209/69/209 202/67/202
f 202/67/202 209/69/209 205/68/205
f 205/68/205 210/70/210 207/45/207
f 209/69/209 210/70/210 205/68/205
f 210/70/210 211/48/211 207/45/207
f 209/69/209 212/50/212 210/70/210
f 208/49/208 212/50/212 209/69/209
f 210/70/210 212/50/212 211/48/211
