# Blender 4.0.1
# www.blender.org
mtllib plantatrece.mtl
o f_plant_05.022
v -75.062355 26.548399 259.611359
v -74.945999 26.046230 259.692932
v -74.497849 25.831032 259.367737
v -74.467148 26.520412 259.102173
v -74.720306 25.043503 260.577332
v -75.289101 27.406031 259.667328
v -74.452187 27.471815 259.073090
v -74.467148 26.520412 259.102173
v -74.497849 25.831032 259.367737
v -74.186386 26.052486 259.824921
v -74.072815 26.528477 259.778076
v -74.720306 25.043503 260.577332
v -74.452187 27.471815 259.073090
v -73.854424 27.360764 259.902710
v -74.072815 26.528477 259.778076
v -74.186386 26.052486 259.824921
v -74.645401 26.344627 260.164520
v -74.720306 25.043503 260.577332
v -73.854424 27.360764 259.902710
v -74.691345 27.294933 260.496948
v -74.645401 26.344627 260.164520
v -74.945999 26.046230 259.692932
v -75.062355 26.548399 259.611359
v -74.720306 25.043503 260.577332
v -74.691345 27.294933 260.496948
v -75.289101 27.406031 259.667328
v -77.153000 28.474516 256.701660
v -77.505020 28.848877 256.792603
v -77.437836 29.145174 257.303040
v -76.850113 28.704502 257.387054
v -78.205139 29.911970 256.325256
v -76.565536 27.901047 256.360931
v -76.051224 28.225731 257.190308
v -76.850113 28.704502 257.387054
v -77.437836 29.145174 257.303040
v -77.076469 29.468500 256.956757
v -76.618057 29.293377 256.926941
v -78.205139 29.911970 256.325256
v -76.051224 28.225731 257.190308
v -75.803719 29.093681 256.697052
v -76.618057 29.293377 256.926941
v -77.076469 29.468500 256.956757
v -77.085564 29.131912 256.410797
v -78.205139 29.911970 256.325256
v -75.803719 29.093681 256.697052
v -76.318138 28.768997 255.867676
v -77.085564 29.131912 256.410797
v -77.505020 28.848877 256.792603
v -77.153000 28.474516 256.701660
v -78.205139 29.911970 256.325256
v -76.318138 28.768997 255.867676
v -76.565536 27.901047 256.360931
v -72.164169 29.056070 263.915802
v -71.752724 29.435772 264.071869
v -71.834473 30.053043 263.848389
v -72.521591 29.744534 263.515442
v -70.877861 30.005733 265.163055
v -72.837257 28.332767 263.853699
v -73.430801 29.208570 263.414398
v -72.521591 29.744534 263.515442
v -71.834473 30.053043 263.848389
v -72.195168 30.092449 264.404083
v -72.714447 29.929327 264.345093
v -70.877861 30.005733 265.163055
v -73.430801 29.208570 263.414398
v -73.619972 29.610096 264.470490
v -72.714447 29.929327 264.345093
v -72.195168 30.092449 264.404083
v -72.178635 29.416508 264.634552
v -70.877861 30.005733 265.163055
v -73.619972 29.610096 264.470490
v -73.026459 28.734261 264.909790
v -72.178635 29.416508 264.634552
v -71.752724 29.435772 264.071869
v -72.164169 29.056070 263.915802
v -70.877861 30.005733 265.163055
v -73.026459 28.734261 264.909790
v -72.837257 28.332767 263.853699
v -76.824745 29.542725 272.919006
v -77.545357 29.666739 272.938507
v -77.949493 29.548798 272.220215
v -77.011658 29.283693 271.867950
v -79.204529 29.420849 273.832214
v -75.640038 29.224960 273.137054
v -75.807686 28.712761 271.799988
v -77.011658 29.283693 271.867950
v -77.949493 29.548798 272.220215
v -77.973106 28.768478 272.516815
v -77.415878 28.393066 272.364197
v -79.204529 29.420849 273.832214
v -75.807686 28.712761 271.799988
v -76.515892 27.572483 272.325623
v -77.415878 28.393066 272.364197
v -77.973106 28.768478 272.516815
v -77.470490 28.841343 273.258606
v -79.204529 29.420849 273.832214
v -76.515892 27.572483 272.325623
v -76.348221 28.084660 273.662659
v -77.470490 28.841343 273.258606
v -77.545357 29.666739 272.938507
v -76.824745 29.542725 272.919006
v -79.204529 29.420849 273.832214
v -76.348221 28.084660 273.662659
v -75.640038 29.224960 273.137054
v -73.916054 24.015064 278.702698
v -73.261429 24.322456 278.812103
v -73.216301 25.138077 278.651245
v -74.222115 25.032923 278.425018
v -71.739632 24.529861 279.931519
v -74.967537 23.348213 278.743561
v -75.502052 24.668085 278.519257
v -74.222115 25.032923 278.425018
v -73.216301 25.138077 278.651245
v -73.477859 25.172218 279.443573
v -74.162224 25.136759 279.515228
v -71.739632 24.529861 279.931519
v -75.502052 24.668085 278.519257
v -75.304390 24.984837 279.911591
v -74.162224 25.136759 279.515228
v -73.477859 25.172218 279.443573
v -73.617584 24.303070 279.625824
v -71.739632 24.529861 279.931519
v -75.304390 24.984837 279.911591
v -74.769936 23.664932 280.135956
v -73.617584 24.303070 279.625824
v -73.261429 24.322456 278.812103
v -73.916054 24.015064 278.702698
v -71.739632 24.529861 279.931519
v -74.769936 23.664932 280.135956
v -74.967537 23.348213 278.743561
v -78.506668 22.769159 284.249451
v -79.582718 20.521400 282.362762
v -78.929886 22.933828 279.997192
v -77.897057 24.623302 281.415283
v -77.536034 21.404022 278.713135
v -77.579315 18.683739 280.820282
v -75.109398 21.563669 278.847137
v -74.499840 19.093809 281.164490
v -78.215828 26.085735 276.814941
v -77.597412 24.575298 275.795654
v -76.947914 27.253075 277.670685
v -75.711067 24.232380 275.632019
v -76.575935 27.448408 272.022949
v -75.187958 26.617912 271.572845
v -74.987350 29.832279 272.523010
v -76.475616 29.055580 272.498047
v -77.842964 16.590183 282.196167
v -74.009026 17.100733 282.624695
v -80.337212 18.878088 284.116547
v -78.997490 21.676514 286.465454
v -73.364555 30.313147 267.712921
v -74.799484 29.997272 267.483398
v -73.705872 29.704575 263.841858
v -74.823128 29.062016 264.067657
v -75.304016 28.655567 267.795776
v -74.818932 27.757332 264.166779
v -74.373680 27.629818 268.337524
v -73.697472 27.095188 264.040070
v -75.471268 26.630981 259.323639
v -74.254501 26.863848 259.012695
v -77.341835 28.711351 253.229080
v -77.854607 28.798985 253.945480
v -78.962440 33.338661 251.260651
v -78.735901 33.343105 250.943054
v -76.026894 27.484556 259.753113
v -77.521706 29.147463 254.688202
v -75.365784 28.570976 259.871613
v -76.496162 28.972155 253.255463
v -78.832161 33.491035 251.595306
v -78.379105 33.500000 250.960068
v -78.867538 34.110645 251.099564
v -74.499840 19.093809 281.164490
v -73.423737 21.341566 283.051178
v -74.076630 23.253143 280.265228
v -75.109398 21.563669 278.847137
v -75.470451 24.782972 281.549316
v -75.427139 23.179228 284.593658
v -77.897057 24.623302 281.415283
v -78.506668 22.769159 284.249451
v -74.443153 25.399765 276.487701
v -75.061600 26.910183 277.506958
v -76.947914 27.253075 277.670685
v -75.711067 24.232380 275.632019
v -73.599373 29.001751 272.072968
v -74.987350 29.832279 272.523010
v -75.187958 26.617912 271.572845
v -73.699699 27.394575 271.597839
v -75.163521 22.187084 286.894012
v -78.997490 21.676514 286.465454
v -72.669266 19.899179 284.973633
v -74.009026 17.100733 282.624695
v -74.373680 27.629818 268.337524
v -72.938759 27.945648 268.567017
v -73.697472 27.095188 264.040070
v -72.580261 27.737732 263.814240
v -72.434227 29.287315 268.254700
v -72.584465 29.042427 263.715149
v -73.364555 30.313147 267.712921
v -73.705872 29.704575 263.841858
v -73.593399 27.950268 259.131195
v -74.149055 28.803822 259.560638
v -76.163315 29.320599 253.998169
v -76.496162 28.972155 253.255463
v -74.254501 26.863848 259.012695
v -76.676086 29.408276 254.714508
v -75.365784 28.570976 259.871613
v -77.521706 29.147463 254.688202
v -78.379105 33.500000 250.960068
v -78.248856 33.652405 251.294739
v -78.475311 33.647915 251.612381
v -78.832161 33.491035 251.595306
v -78.867538 34.110645 251.099564
vn -0.6527 -0.3739 -0.6589
vn -0.6563 -0.4328 -0.6180
vn -0.6450 -0.2141 -0.7335
vn -0.6244 -0.1311 -0.7700
vn -0.6415 -0.5836 -0.4979
vn -0.6148 -0.0693 -0.7856
vn -0.5780 -0.0158 -0.8159
vn 0.8386 -0.3598 -0.4090
vn 0.8329 -0.4147 -0.3666
vn 0.8555 -0.1666 -0.4902
vn 0.8377 -0.1332 -0.5297
vn 0.7720 -0.5882 -0.2410
vn 0.8327 -0.0751 -0.5486
vn 0.7976 -0.1208 -0.5909
vn 0.6117 -0.0964 0.7852
vn 0.6214 0.0690 0.7805
vn 0.5875 -0.1637 0.7925
vn 0.6599 0.1925 0.7263
vn 0.5855 -0.2577 0.7686
vn 0.5740 -0.2455 0.7812
vn -0.8117 -0.1896 0.5525
vn -0.8559 0.0485 0.5148
vn -0.8499 -0.0441 0.5252
vn -0.8780 0.1900 0.4394
vn -0.8089 -0.2365 0.5383
vn -0.8015 -0.2474 0.5444
vn -0.6796 -0.5898 0.4362
vn -0.7302 -0.5448 0.4123
vn -0.5431 -0.6974 0.4676
vn -0.4630 -0.7399 0.4880
vn -0.8462 -0.4050 0.3465
vn -0.4064 -0.7707 0.4908
vn -0.3419 -0.7836 0.5188
vn 0.1632 0.6215 0.7662
vn 0.1148 0.6636 0.7392
vn 0.3325 0.5012 0.7989
vn 0.3499 0.4537 0.8196
vn -0.0622 0.7611 0.6457
vn 0.3954 0.4124 0.8207
vn 0.3375 0.3905 0.8565
vn 0.2670 0.8512 -0.4518
vn 0.4100 0.7734 -0.4835
vn 0.1976 0.8703 -0.4512
vn 0.5333 0.7161 -0.4503
vn 0.1181 0.9053 -0.4080
vn 0.1220 0.8962 -0.4265
vn -0.6036 -0.2624 -0.7529
vn -0.4307 -0.4313 -0.7928
vn -0.5042 -0.3758 -0.7776
vn -0.3260 -0.5521 -0.7674
vn -0.6413 -0.2430 -0.7278
vn -0.6462 -0.2295 -0.7279
vn 0.6204 -0.1893 -0.7611
vn 0.6748 -0.1705 -0.7181
vn 0.4764 -0.2501 -0.8429
vn 0.3928 -0.2686 -0.8795
vn 0.8022 -0.1065 -0.5875
vn 0.3345 -0.2896 -0.8968
vn 0.2679 -0.2807 -0.9216
vn -0.1616 0.9694 -0.1846
vn -0.1095 0.9840 -0.1408
vn -0.3393 0.9002 -0.2731
vn -0.3605 0.8769 -0.3177
vn 0.0774 0.9968 -0.0204
vn -0.4085 0.8466 -0.3412
vn -0.3538 0.8515 -0.3871
vn -0.1924 0.3743 0.9071
vn -0.3382 0.2963 0.8932
vn -0.1221 0.3881 0.9135
vn -0.4663 0.2753 0.8407
vn -0.0428 0.4413 0.8963
vn -0.0463 0.4226 0.9051
vn 0.6220 -0.6911 0.3681
vn 0.4412 -0.8440 0.3050
vn 0.5171 -0.7927 0.3229
vn 0.3283 -0.9193 0.2170
vn 0.6595 -0.6609 0.3581
vn 0.6652 -0.6505 0.3665
vn 0.0505 0.9798 -0.1937
vn -0.0104 0.9876 -0.1564
vn 0.2082 0.9420 -0.2632
vn 0.2836 0.9087 -0.3064
vn -0.1784 0.9821 -0.0609
vn 0.3392 0.8825 -0.3258
vn 0.3805 0.8467 -0.3720
vn -0.5451 -0.2748 -0.7921
vn -0.6018 -0.2678 -0.7524
vn -0.3591 -0.3307 -0.8727
vn -0.3137 -0.3121 -0.8968
vn -0.7635 -0.2092 -0.6110
vn -0.2552 -0.3241 -0.9110
vn -0.2740 -0.2570 -0.9267
vn -0.4875 -0.8085 0.3298
vn -0.3407 -0.8848 0.3178
vn -0.5408 -0.7648 0.3503
vn -0.2317 -0.9403 0.2494
vn -0.6195 -0.7109 0.3329
vn -0.6070 -0.7137 0.3495
vn 0.0078 0.4205 0.9073
vn 0.2472 0.3698 0.8956
vn 0.1592 0.4000 0.9026
vn 0.3997 0.3627 0.8418
vn -0.0324 0.4457 0.8946
vn -0.0464 0.4418 0.8959
vn 0.3682 -0.1958 -0.9089
vn 0.4336 -0.1974 -0.8792
vn 0.1990 -0.2076 -0.9578
vn 0.1076 -0.2001 -0.9738
vn 0.5985 -0.1868 -0.7790
vn 0.0435 -0.2042 -0.9780
vn -0.0222 -0.1763 -0.9841
vn 0.0613 0.9976 -0.0324
vn 0.1237 0.9923 -0.0019
vn -0.1431 0.9865 -0.0801
vn -0.1789 0.9765 -0.1201
vn 0.3290 0.9419 0.0680
vn -0.2370 0.9622 -0.1339
vn -0.1944 0.9621 -0.1913
vn 0.1145 0.2512 0.9611
vn -0.0461 0.2121 0.9762
vn 0.1856 0.2474 0.9510
vn -0.1834 0.2299 0.9558
vn 0.2704 0.2832 0.9202
vn 0.2641 0.2646 0.9275
vn 0.4843 -0.8663 0.1225
vn 0.2606 -0.9611 0.0912
vn 0.3493 -0.9322 0.0946
vn 0.1155 -0.9929 0.0269
vn 0.5253 -0.8442 0.1067
vn 0.5352 -0.8369 0.1144
vn -0.9710 0.2301 -0.0646
vn -0.9567 0.0417 -0.2881
vn -0.9082 0.4120 0.0739
vn -0.8845 0.4553 0.1017
vn -0.6045 -0.4842 -0.6325
vn -0.3457 -0.5342 -0.7715
vn 0.0368 -0.6865 -0.7262
vn 0.1668 -0.5890 -0.7907
vn -0.9519 0.2995 -0.0646
vn -0.6465 -0.4972 -0.5787
vn -0.7936 0.5788 0.1875
vn -0.3209 -0.7498 -0.5787
vn -0.8417 -0.3242 -0.4317
vn -0.5687 -0.7139 -0.4085
vn -0.5482 0.8248 0.1386
vn -0.8081 0.5814 -0.0951
vn -0.1533 -0.5292 -0.8346
vn 0.1651 -0.5561 -0.8145
vn -0.8923 -0.0668 -0.4464
vn -0.9050 0.4254 0.0093
vn -0.2981 0.9539 -0.0331
vn -0.7182 0.6779 -0.1568
vn -0.4118 0.9014 -0.1335
vn -0.8824 0.4696 -0.0294
vn -0.9323 -0.2908 -0.2151
vn -0.8238 -0.5507 0.1346
vn -0.6323 -0.7685 -0.0976
vn -0.2775 -0.9544 0.1104
vn -0.4046 -0.9142 0.0226
vn 0.1922 -0.9477 -0.2550
vn -0.2634 -0.7874 -0.5573
vn -0.9311 -0.3474 0.1113
vn -0.9597 -0.1829 -0.2132
vn -0.2873 -0.2545 -0.9234
vn -0.9647 -0.0071 0.2634
vn -0.8989 0.2168 0.3808
vn -0.7568 0.6385 0.1397
vn 0.2245 -0.5757 -0.7863
vn -0.9333 0.0594 0.3543
vn 0.0887 -0.0943 -0.9916
vn -0.8052 0.1561 -0.5721
vn 0.9782 -0.0042 -0.2077
vn 0.9567 0.2765 -0.0910
vn 0.9082 -0.1442 -0.3929
vn 0.8927 -0.2120 -0.3976
vn 0.6055 0.7101 0.3593
vn 0.3457 0.8524 0.3924
vn -0.0362 0.8568 0.5143
vn -0.1668 0.8809 0.4430
vn 0.9766 -0.2091 -0.0495
vn 0.6610 0.6058 0.4429
vn 0.3229 0.7901 0.5209
vn 0.8119 -0.4724 -0.3431
vn 0.8498 0.3675 0.3779
vn 0.5864 0.7293 0.3525
vn 0.5603 -0.7934 -0.2380
vn 0.8288 -0.5590 0.0239
vn 0.1533 0.9136 0.3765
vn -0.1651 0.8986 0.4065
vn 0.8923 0.4513 -0.0116
vn 0.9049 -0.0829 -0.4174
vn 0.2985 -0.9535 -0.0424
vn 0.7219 -0.6798 0.1295
vn 0.4040 -0.9120 0.0715
vn 0.8793 -0.4729 -0.0561
vn 0.9404 0.3051 0.1500
vn 0.8149 0.5483 -0.1879
vn 0.6424 0.7662 0.0162
vn 0.2596 0.9434 -0.2066
vn 0.9362 0.0685 -0.3448
vn 0.3345 0.9327 -0.1346
vn 0.8417 0.4962 -0.2131
vn 0.8818 -0.0781 -0.4650
vn 0.7433 -0.6252 -0.2381
vn 0.1750 0.8923 0.4162
vn -0.2239 0.9712 0.0816
vn -0.2642 0.6971 0.6666
vn 0.8202 0.3116 -0.4797
vn 0.7643 0.6411 0.0702
vn 0.0850 0.6826 0.7258
vn -0.2783 0.5473 0.7893
vn 0.3578 0.8946 0.2678
vt 0.965281 1.890380
vt 0.935818 1.905920
vt 0.936555 1.934210
vt 0.980539 1.929430
vt 0.902372 1.837460
vt 0.929339 1.982870
vt 0.984913 1.982870
vt 0.901169 1.914520
vt 0.876607 1.965540
vt 0.841612 1.676200
vt 0.930196 1.685260
vt 0.911376 1.760620
vt 0.831119 1.734970
vt 0.842604 1.613120
vt 0.931339 1.604830
vt 0.833945 1.550050
vt 0.914954 1.526870
vt 0.700129 1.665980
vt 0.700129 1.617350
vt 0.700129 1.712890
vt 0.700129 1.568040
vt 0.476361 1.616820
vt 0.476361 1.574960
vt 0.476361 1.699170
vt 0.476361 1.658160
vt 0.993241 1.597310
vt 0.972421 1.504160
vt 0.993241 1.692880
vt 0.968122 1.785080
vt 0.393143 1.690790
vt 0.393143 1.653880
vt 0.309940 1.682420
vt 0.309940 1.649590
vt 0.393143 1.617030
vt 0.309940 1.617230
vt 0.393143 1.580230
vt 0.309940 1.585510
vt 0.222243 1.617620
vt 0.222243 1.593040
vt 0.134560 1.617990
vt 0.134560 1.638110
vt 0.025277 1.630120
vt 0.025277 1.621380
vt 0.222243 1.643850
vt 0.134560 1.660250
vt 0.222243 1.671330
vt 0.134560 1.600590
vt 0.025547 1.645160
vt 0.025547 1.612300
vt 0.008110 1.628490
vt 0.842378 1.609110
vt 0.931203 1.602770
vt 0.841446 1.672180
vt 0.929880 1.683190
vt 0.700129 1.615060
vt 0.700129 1.663690
vt 0.476361 1.657350
vt 0.476361 1.615990
vt 0.993241 1.692610
vt 0.993241 1.597080
vt 0.393143 1.617180
vt 0.309940 1.618380
vt 0.393143 1.654040
vt 0.309940 1.650750
vt 0.222243 1.620560
vt 0.222243 1.646810
vt 0.134560 1.622760
vt 0.134560 1.642890
vt 0.025277 1.627420
vt 0.025277 1.636170
s 1
usemtl plants_03_dif.019
f 3/1/1 2/2/2 1/3/3
f 4/4/4 3/1/1 1/3/3
f 5/5/5 2/2/2 3/1/1
f 4/4/4 1/3/3 6/6/6
f 7/7/7 4/4/4 6/6/6
f 10/2/8 9/1/9 8/4/10
f 11/3/11 10/2/8 8/4/10
f 12/5/12 9/1/9 10/2/8
f 11/3/11 8/4/10 13/7/13
f 14/6/14 11/3/11 13/7/13
f 17/8/15 16/2/16 15/3/17
f 18/5/18 16/2/16 17/8/15
f 17/8/15 15/3/17 19/6/19
f 20/9/20 17/8/15 19/6/19
f 23/3/21 22/2/22 21/8/23
f 24/5/24 21/8/23 22/2/22
f 23/3/21 21/8/23 25/9/25
f 26/6/26 23/3/21 25/9/25
f 29/1/27 28/2/28 27/3/29
f 30/4/30 29/1/27 27/3/29
f 31/5/31 28/2/28 29/1/27
f 30/4/30 27/3/29 32/6/32
f 33/7/33 30/4/30 32/6/32
f 36/2/34 35/1/35 34/4/36
f 37/3/37 36/2/34 34/4/36
f 38/5/38 35/1/35 36/2/34
f 37/3/37 34/4/36 39/7/39
f 40/6/40 37/3/37 39/7/39
f 43/8/41 42/2/42 41/3/43
f 44/5/44 42/2/42 43/8/41
f 43/8/41 41/3/43 45/6/45
f 46/9/46 43/8/41 45/6/45
f 49/3/47 48/2/48 47/8/49
f 50/5/50 47/8/49 48/2/48
f 49/3/47 47/8/49 51/9/51
f 52/6/52 49/3/47 51/9/51
f 55/1/53 54/2/54 53/3/55
f 56/4/56 55/1/53 53/3/55
f 57/5/57 54/2/54 55/1/53
f 56/4/56 53/3/55 58/6/58
f 59/7/59 56/4/56 58/6/58
f 62/2/60 61/1/61 60/4/62
f 63/3/63 62/2/60 60/4/62
f 64/5/64 61/1/61 62/2/60
f 63/3/63 60/4/62 65/7/65
f 66/6/66 63/3/63 65/7/65
f 69/8/67 68/2/68 67/3/69
f 70/5/70 68/2/68 69/8/67
f 69/8/67 67/3/69 71/6/71
f 72/9/72 69/8/67 71/6/71
f 75/3/73 74/2/74 73/8/75
f 76/5/76 73/8/75 74/2/74
f 75/3/73 73/8/75 77/9/77
f 78/6/78 75/3/73 77/9/77
f 81/1/79 80/2/80 79/3/81
f 82/4/82 81/1/79 79/3/81
f 83/5/83 80/2/80 81/1/79
f 82/4/82 79/3/81 84/6/84
f 85/7/85 82/4/82 84/6/84
f 88/2/86 87/1/87 86/4/88
f 89/3/89 88/2/86 86/4/88
f 90/5/90 87/1/87 88/2/86
f 89/3/89 86/4/88 91/7/91
f 92/6/92 89/3/89 91/7/91
f 95/8/93 94/2/94 93/3/95
f 96/5/96 94/2/94 95/8/93
f 95/8/93 93/3/95 97/6/97
f 98/9/98 95/8/93 97/6/97
f 101/3/99 100/2/100 99/8/101
f 102/5/102 99/8/101 100/2/100
f 101/3/99 99/8/101 103/9/103
f 104/6/104 101/3/99 103/9/103
f 107/1/105 106/2/106 105/3/107
f 108/4/108 107/1/105 105/3/107
f 109/5/109 106/2/106 107/1/105
f 108/4/108 105/3/107 110/6/110
f 111/7/111 108/4/108 110/6/110
f 114/2/112 113/1/113 112/4/114
f 115/3/115 114/2/112 112/4/114
f 116/5/116 113/1/113 114/2/112
f 115/3/115 112/4/114 117/7/117
f 118/6/118 115/3/115 117/7/117
f 121/8/119 120/2/120 119/3/121
f 122/5/122 120/2/120 121/8/119
f 121/8/119 119/3/121 123/6/123
f 124/9/124 121/8/119 123/6/123
f 127/3/125 126/2/126 125/8/127
f 128/5/128 125/8/127 126/2/126
f 127/3/125 125/8/127 129/9/129
f 130/6/130 127/3/125 129/9/129
f 133/10/131 132/11/132 131/12/133
f 134/13/134 133/10/131 131/12/133
f 133/10/131 135/14/135 132/11/132
f 135/14/135 136/15/136 132/11/132
f 135/14/135 137/16/137 136/15/136
f 137/16/137 138/17/138 136/15/136
f 133/10/131 139/18/139 135/14/135
f 139/18/139 140/19/140 135/14/135
f 135/14/135 140/19/140 137/16/137
f 141/20/141 139/18/139 133/10/131
f 134/13/134 141/20/141 133/10/131
f 140/19/140 142/21/142 137/16/137
f 140/19/140 143/22/143 142/21/142
f 143/22/143 144/23/144 142/21/142
f 141/20/141 145/24/145 139/18/139
f 145/24/145 146/25/146 139/18/139
f 146/25/146 143/22/143 140/19/140
f 139/18/139 146/25/146 140/19/140
f 136/15/136 138/17/138 147/26/147
f 138/17/138 148/27/148 147/26/147
f 136/15/136 147/26/147 149/28/149
f 132/11/132 136/15/136 149/28/149
f 132/11/132 149/28/149 150/29/150
f 131/12/133 132/11/132 150/29/150
f 145/24/145 151/30/151 146/25/146
f 151/30/151 152/31/152 146/25/146
f 146/25/146 152/31/152 143/22/143
f 151/30/151 153/32/153 152/31/152
f 153/32/153 154/33/154 152/31/152
f 152/31/152 154/33/154 155/34/155
f 143/22/143 155/34/155 144/23/144
f 152/31/152 155/34/155 143/22/143
f 154/33/154 156/35/156 155/34/155
f 155/34/155 156/35/156 157/36/157
f 155/34/155 157/36/157 144/23/144
f 156/35/156 158/37/158 157/36/157
f 156/35/156 159/38/159 158/37/158
f 159/38/159 160/39/160 158/37/158
f 159/38/159 161/40/161 160/39/160
f 162/41/162 161/40/161 159/38/159
f 162/41/162 163/42/163 161/40/161
f 163/42/163 164/43/164 161/40/161
f 165/44/165 162/41/162 159/38/159
f 165/44/165 159/38/159 156/35/156
f 154/33/154 165/44/165 156/35/156
f 166/45/166 162/41/162 165/44/165
f 167/46/167 166/45/166 165/44/165
f 167/46/167 165/44/165 154/33/154
f 153/32/153 167/46/167 154/33/154
f 161/40/161 168/47/168 160/39/160
f 161/40/161 164/43/164 168/47/168
f 169/48/169 163/42/163 162/41/162
f 166/45/166 169/48/169 162/41/162
f 164/43/164 170/49/170 168/47/168
f 169/48/169 171/50/171 163/42/163
f 164/43/164 171/50/171 170/49/170
f 163/42/163 171/50/171 164/43/164
f 174/51/172 173/52/173 172/17/174
f 175/16/175 174/51/172 172/17/174
f 174/51/172 176/53/176 173/52/173
f 176/53/176 177/54/177 173/52/173
f 176/53/176 178/13/178 177/54/177
f 178/13/178 179/12/179 177/54/177
f 174/51/172 180/55/180 176/53/176
f 180/55/180 181/56/181 176/53/176
f 176/53/176 181/56/181 178/13/178
f 181/56/181 182/20/182 178/13/178
f 183/21/183 180/55/180 174/51/172
f 175/16/175 183/21/183 174/51/172
f 181/56/181 184/57/184 182/20/182
f 184/57/184 185/24/185 182/20/182
f 183/21/183 186/23/186 180/55/180
f 186/23/186 187/58/187 180/55/180
f 187/58/187 184/57/184 181/56/181
f 180/55/180 187/58/187 181/56/181
f 177/54/177 179/12/179 188/59/188
f 179/12/179 189/29/189 188/59/188
f 177/54/177 188/59/188 190/60/190
f 173/52/173 177/54/177 190/60/190
f 173/52/173 190/60/190 191/27/191
f 172/17/174 173/52/173 191/27/191
f 186/23/186 192/36/192 187/58/187
f 192/36/192 193/61/193 187/58/187
f 187/58/187 193/61/193 184/57/184
f 192/36/192 194/37/194 193/61/193
f 194/37/194 195/62/195 193/61/193
f 193/61/193 195/62/195 196/63/196
f 184/57/184 196/63/196 185/24/185
f 193/61/193 196/63/196 184/57/184
f 195/62/195 197/64/197 196/63/196
f 196/63/196 197/64/197 198/30/198
f 196/63/196 198/30/198 185/24/185
f 197/64/197 199/32/199 198/30/198
f 195/62/195 200/65/200 197/64/197
f 200/65/200 201/66/201 197/64/197
f 197/64/197 201/66/201 199/32/199
f 200/65/200 202/67/202 201/66/201
f 203/47/203 202/67/202 200/65/200
f 204/39/204 203/47/203 200/65/200
f 204/39/204 200/65/200 195/62/195
f 194/37/194 204/39/204 195/62/195
f 202/67/202 205/68/205 201/66/201
f 201/66/201 205/68/205 206/46/206
f 201/66/201 206/46/206 199/32/199
f 205/68/205 207/45/207 206/46/206
f 203/47/203 208/49/208 202/67/202
f 208/49/208 209/69/209 202/67/202
f 202/67/202 209/69/209 205/68/205
f 205/68/205 210/70/210 207/45/207
f 209/69/209 210/70/210 205/68/205
f 210/70/210 211/48/211 207/45/207
f 209/69/209 212/50/212 210/70/210
f 208/49/208 212/50/212 209/69/209
f 210/70/210 212/50/212 211/48/211
