# Blender 4.0.1
# www.blender.org
mtllib puerta grande 1.mtl
o Panel.004
v -4.118771 31.248756 286.865326
v -5.962671 23.895397 286.844940
v -5.957577 23.895397 286.383972
v -4.113676 31.248756 286.404358
v -5.962671 40.891418 286.844940
v -5.957577 40.891418 286.383972
v -5.962671 56.296623 286.844940
v -5.957577 56.296623 286.383972
v -5.962671 71.701828 286.844940
v -5.957577 71.701828 286.383972
v -4.113676 69.857811 286.404358
v 3.314459 71.701828 286.947479
v 3.319554 71.701828 286.486511
v 10.747688 69.857811 287.029633
v 12.591590 71.701828 287.050018
v 12.596685 71.701828 286.589050
v 10.752784 69.857811 286.568665
v 10.747688 56.988129 287.029633
v 12.591590 56.296623 287.050018
v 12.596685 56.296623 286.589050
v 10.752784 56.988129 286.568665
v 10.747688 44.118443 287.029633
v 12.591590 40.891418 287.050018
v 12.596685 40.891418 286.589050
v 12.591590 23.895397 287.050018
v 12.596685 23.895397 286.589050
v 10.752784 31.248756 286.568665
v 3.314459 23.895397 286.947479
v 3.319554 23.895397 286.486511
v -2.961237 32.401268 286.417084
v -2.844719 32.516518 286.303101
v -2.730749 32.631767 286.419617
v -2.269774 33.092773 286.424713
v -2.155805 33.208023 286.541229
v -4.113676 44.118443 286.404358
v -2.961237 42.965935 286.417084
v -2.844719 42.850685 286.303101
v -2.730749 42.735432 286.419617
v -2.269774 42.274429 286.424713
v -2.155805 42.159180 286.541229
v 3.319553 44.118443 286.486511
v 2.167115 42.965935 286.473755
v 2.053145 42.850685 286.357239
v 1.936627 42.735432 286.471222
v 1.475652 42.274429 286.466125
v 1.359135 42.159180 286.580109
v 3.319553 31.248756 286.486511
v 2.167115 32.401268 286.473755
v 2.053145 32.516518 286.357239
v 1.936627 32.631767 286.471222
v 1.475652 33.092773 286.466125
v 1.359135 33.208023 286.580109
v -2.158352 33.208023 286.771729
v -2.274870 33.092773 286.885712
v -2.735845 32.631767 286.880615
v -2.852363 32.516518 286.994568
v -2.966332 32.401268 286.878052
v -2.158352 42.159180 286.771729
v -2.274870 42.274429 286.885712
v -2.735845 42.735432 286.880615
v -2.852363 42.850685 286.994568
v -2.966332 42.965935 286.878052
v -4.118771 44.118443 286.865326
v 1.356587 42.159180 286.810577
v 1.470556 42.274429 286.927094
v 1.931532 42.735432 286.932190
v 2.045502 42.850685 287.048706
v 2.162020 42.965935 286.934753
v 1.356587 33.208023 286.810577
v 1.470556 33.092773 286.927094
v 1.931532 32.631767 286.932190
v 2.045502 32.516518 287.048706
v 2.162020 32.401268 286.934753
v 3.314458 31.248756 286.947479
v -2.961237 45.270950 286.417084
v -2.844719 45.386200 286.303101
v -2.730749 45.501453 286.419617
v -2.269774 45.962456 286.424713
v -2.155805 46.077705 286.541229
v -2.961237 55.835621 286.417084
v -2.844719 55.720367 286.303101
v -2.730749 55.605118 286.419617
v -2.269774 55.144112 286.424713
v -2.155805 55.028862 286.541229
v 3.319553 56.988129 286.486511
v 2.167115 55.835621 286.473755
v 2.053145 55.720367 286.357239
v 1.936627 55.605118 286.471222
v 1.475652 55.144112 286.466125
v 1.359135 55.028862 286.580109
v 2.167115 45.270950 286.473755
v 2.053145 45.386200 286.357239
v 1.936627 45.501453 286.471222
v 1.475652 45.962456 286.466125
v 1.359135 46.077705 286.580109
v -2.158352 46.077705 286.771729
v -2.274870 45.962456 286.885712
v -2.735845 45.501453 286.880615
v -2.852363 45.386200 286.994568
v -2.966332 45.270950 286.878052
v -2.158352 55.028862 286.771729
v -2.274870 55.144112 286.885712
v -2.735845 55.605118 286.880615
v -2.852363 55.720367 286.994568
v -2.966332 55.835621 286.878052
v 1.356587 55.028862 286.810577
v 1.470556 55.144112 286.927094
v 1.931532 55.605118 286.932190
v 2.045502 55.720367 287.048706
v 2.162020 55.835621 286.934753
v 3.314458 56.988129 286.947479
v 1.356587 46.077705 286.810577
v 1.470556 45.962456 286.927094
v 1.931532 45.501453 286.932190
v 2.045502 45.386200 287.048706
v 2.162020 45.270950 286.934753
v 3.314458 44.118443 286.947479
v -4.113676 56.988129 286.404358
v -2.961237 58.140633 286.417084
v -2.844719 58.255890 286.303101
v -2.730749 58.371140 286.419617
v -2.269774 58.832146 286.424713
v -2.155805 58.947395 286.541229
v -2.961237 68.705307 286.417084
v -2.844719 68.590057 286.303101
v -2.730749 68.474808 286.419617
v -2.269774 68.013802 286.424713
v -2.155805 67.898544 286.541229
v 3.319553 69.857811 286.486511
v 2.167115 68.705307 286.473755
v 2.053145 68.590057 286.357239
v 1.936627 68.474808 286.471222
v 1.475652 68.013802 286.466125
v 1.359135 67.898544 286.580109
v 2.167115 58.140633 286.473755
v 2.053145 58.255890 286.357239
v 1.936627 58.371140 286.471222
v 1.475652 58.832146 286.466125
v 1.359135 58.947395 286.580109
v -2.158352 58.947395 286.771729
v -2.274870 58.832146 286.885712
v -2.735845 58.371140 286.880615
v -2.852363 58.255890 286.994568
v -2.966332 58.140633 286.878052
v -4.118771 56.988129 286.865326
v -2.158352 67.898544 286.771729
v -2.274870 68.013802 286.885712
v -2.735845 68.474808 286.880615
v -2.852363 68.590057 286.994568
v -2.966332 68.705307 286.878052
v -4.118771 69.857811 286.865326
v 1.356587 67.898544 286.810577
v 1.470556 68.013802 286.927094
v 1.931532 68.474808 286.932190
v 2.045502 68.590057 287.048706
v 2.162020 68.705307 286.934753
v 3.314458 69.857811 286.947479
v 1.356587 58.947395 286.810577
v 1.470556 58.832146 286.927094
v 1.931532 58.371140 286.932190
v 2.045502 58.255890 287.048706
v 2.162020 58.140633 286.934753
v 4.471993 32.401268 286.499237
v 4.588511 32.516518 286.385284
v 4.702481 32.631767 286.501801
v 5.163456 33.092773 286.506897
v 5.277427 33.208023 286.623413
v 4.471993 42.965935 286.499237
v 4.588511 42.850685 286.385284
v 4.702481 42.735432 286.501801
v 5.163456 42.274429 286.506897
v 5.277427 42.159180 286.623413
v 10.752785 44.118443 286.568665
v 9.600346 42.965935 286.555939
v 9.486376 42.850685 286.439423
v 9.369858 42.735432 286.553375
v 8.908882 42.274429 286.548279
v 8.792365 42.159180 286.662262
v 9.600346 32.401268 286.555939
v 9.486376 32.516518 286.439423
v 9.369858 32.631767 286.553375
v 8.908882 33.092773 286.548279
v 8.792365 33.208023 286.662262
v 5.274879 33.208023 286.853882
v 5.158361 33.092773 286.967865
v 4.697385 32.631767 286.962769
v 4.580868 32.516518 287.076752
v 4.466898 32.401268 286.960205
v 5.274879 42.159180 286.853882
v 5.158361 42.274429 286.967865
v 4.697385 42.735432 286.962769
v 4.580868 42.850685 287.076752
v 4.466898 42.965935 286.960205
v 8.789817 42.159180 286.892731
v 8.903788 42.274429 287.009277
v 9.364762 42.735432 287.014343
v 9.478733 42.850685 287.130890
v 9.595251 42.965935 287.016907
v 8.789817 33.208023 286.892731
v 8.903788 33.092773 287.009277
v 9.364762 32.631767 287.014343
v 9.478733 32.516518 287.130890
v 9.595251 32.401268 287.016907
v 10.747689 31.248756 287.029633
v 4.471993 45.270950 286.499237
v 4.588511 45.386200 286.385284
v 4.702481 45.501453 286.501801
v 5.163456 45.962456 286.506897
v 5.277427 46.077705 286.623413
v 4.471993 55.835621 286.499237
v 4.588511 55.720367 286.385284
v 4.702481 55.605118 286.501801
v 5.163456 55.144112 286.506897
v 5.277427 55.028862 286.623413
v 9.600346 55.835621 286.555939
v 9.486376 55.720367 286.439423
v 9.369858 55.605118 286.553375
v 8.908882 55.144112 286.548279
v 8.792365 55.028862 286.662262
v 9.600346 45.270950 286.555939
v 9.486376 45.386200 286.439423
v 9.369858 45.501453 286.553375
v 8.908882 45.962456 286.548279
v 8.792365 46.077705 286.662262
v 5.274879 46.077705 286.853882
v 5.158361 45.962456 286.967865
v 4.697385 45.501453 286.962769
v 4.580868 45.386200 287.076752
v 4.466898 45.270950 286.960205
v 5.274879 55.028862 286.853882
v 5.158361 55.144112 286.967865
v 4.697385 55.605118 286.962769
v 4.580868 55.720367 287.076752
v 4.466898 55.835621 286.960205
v 8.789817 55.028862 286.892731
v 8.903788 55.144112 287.009277
v 9.364762 55.605118 287.014343
v 9.478733 55.720367 287.130890
v 9.595251 55.835621 287.016907
v 8.789817 46.077705 286.892731
v 8.903788 45.962456 287.009277
v 9.364762 45.501453 287.014343
v 9.478733 45.386200 287.130890
v 9.595251 45.270950 287.016907
v 4.471993 58.140633 286.499237
v 4.588511 58.255890 286.385284
v 4.702481 58.371140 286.501801
v 5.163456 58.832146 286.506897
v 5.277427 58.947395 286.623413
v 4.471993 68.705307 286.499237
v 4.588511 68.590057 286.385284
v 4.702481 68.474808 286.501801
v 5.163456 68.013802 286.506897
v 5.277427 67.898544 286.623413
v 9.600346 68.705307 286.555939
v 9.486376 68.590057 286.439423
v 9.369858 68.474808 286.553375
v 8.908882 68.013802 286.548279
v 8.792365 67.898544 286.662262
v 9.600346 58.140633 286.555939
v 9.486376 58.255890 286.439423
v 9.369858 58.371140 286.553375
v 8.908882 58.832146 286.548279
v 8.792365 58.947395 286.662262
v 5.274879 58.947395 286.853882
v 5.158361 58.832146 286.967865
v 4.697385 58.371140 286.962769
v 4.580868 58.255890 287.076752
v 4.466898 58.140633 286.960205
v 5.274879 67.898544 286.853882
v 5.158361 68.013802 286.967865
v 4.697385 68.474808 286.962769
v 4.580868 68.590057 287.076752
v 4.466898 68.705307 286.960205
v 8.789817 67.898544 286.892731
v 8.903788 68.013802 287.009277
v 9.364762 68.474808 287.014343
v 9.478733 68.590057 287.130890
v 9.595251 68.705307 287.016907
v 8.789817 58.947395 286.892731
v 8.903788 58.832146 287.009277
v 9.364762 58.371140 287.014343
v 9.478733 58.255890 287.130890
v 9.595251 58.140633 287.016907
vn -0.0111 -0.0000 0.9999
vn -0.9999 -0.0000 -0.0111
vn 0.0111 -0.0000 -0.9999
vn -0.0000 1.0000 -0.0000
vn 0.9999 -0.0000 0.0111
vn -0.0000 -1.0000 -0.0000
vn -0.6993 -0.0000 -0.7149
vn 0.7149 -0.0000 -0.6992
vn 0.0078 0.7071 -0.7071
vn 0.0078 -0.7071 -0.7071
vn 0.7149 -0.0000 -0.6993
vn -0.6992 -0.0000 -0.7149
vn 0.6993 -0.0000 0.7149
vn -0.7149 -0.0000 0.6992
vn -0.0078 -0.7071 0.7071
vn -0.0078 0.7071 0.7071
vn 0.6992 -0.0000 0.7149
vn -0.7149 -0.0000 0.6993
vt 0.000000 0.668333
vt 0.080000 0.668333
vt 0.080000 0.000000
vt 0.000000 0.000000
vt 0.100000 0.668333
vt 0.100000 0.000000
vt 0.180000 0.668333
vt 0.180000 0.000000
vt 0.000000 2.005000
vt 0.080000 2.005000
vt 0.100000 2.005000
vt 0.180000 2.005000
vt 0.000000 4.010000
vt 0.080000 4.010000
vt 0.100000 4.010000
vt 0.180000 4.010000
vt 0.000000 4.412500
vt 0.080000 4.412500
vt 0.100000 4.412500
vt 0.180000 4.412500
vt 0.000000 5.217500
vt 0.080000 5.217500
vt 0.100000 5.217500
vt 0.180000 5.217500
vt 0.000000 5.885834
vt 0.080000 5.885834
vt 0.100000 5.885834
vt 0.180000 5.885834
vt 0.000000 7.222500
vt 0.080000 7.222500
vt 0.100000 7.222500
vt 0.180000 7.222500
vt 0.000000 9.227501
vt 0.080000 9.227501
vt 0.100000 9.227501
vt 0.180000 9.227501
vt 0.000000 9.630000
vt 0.080000 9.630000
vt 0.100000 9.630000
vt 0.180000 9.630000
vt 0.000000 10.435000
vt 0.080000 10.435000
vt 0.100000 10.435000
vt 0.180000 10.435000
vt 0.000000 0.558333
vt 0.050000 0.558333
vt 0.050000 0.000000
vt 0.057071 0.558333
vt 0.057071 0.000000
vt 0.064142 0.558333
vt 0.064142 0.000000
vt 0.084142 0.558333
vt 0.084142 0.000000
vt 0.091213 0.558333
vt 0.091213 0.000000
vt 0.000000 0.880833
vt 0.050000 0.880833
vt 0.057071 0.880833
vt 0.064142 0.880833
vt 0.084142 0.880833
vt 0.091213 0.880833
vt 0.000000 1.439167
vt 0.050000 1.439167
vt 0.057071 1.439167
vt 0.064142 1.439167
vt 0.084142 1.439167
vt 0.091213 1.439167
vt 0.000000 1.761667
vt 0.050000 1.761667
vt 0.057071 1.761667
vt 0.064142 1.761667
vt 0.084142 1.761667
vt 0.091213 1.761667
vt -0.161250 0.000000
vt -0.161250 0.558333
vt 0.161250 0.558333
vt 0.161250 0.000000
vt 0.007071 0.558333
vt 0.007071 0.000000
vt 0.027071 0.558333
vt 0.027071 0.000000
vt 0.034142 0.558333
vt 0.034142 0.000000
vt 0.041213 0.558333
vt 0.041213 0.000000
vt 0.007071 0.880833
vt 0.027071 0.880833
vt 0.034142 0.880833
vt 0.041213 0.880833
vt 0.007071 1.439167
vt 0.027071 1.439167
vt 0.034142 1.439167
vt 0.041213 1.439167
vt 0.007071 1.761667
vt 0.027071 1.761667
vt 0.034142 1.761667
vt 0.041213 1.761667
s 1
usemtl wood_boards
f 63/1/1 5/2/1 2/3/1 1/4/1
f 5/2/2 6/5/2 3/6/2 2/3/2
f 6/5/3 35/7/3 4/8/3 3/6/3
f 145/9/1 7/10/1 5/2/1 63/1/1
f 7/10/2 8/11/2 6/5/2 5/2/2
f 8/11/3 118/12/3 35/7/3 6/5/3
f 151/13/1 9/14/1 7/10/1 145/9/1
f 9/14/2 10/15/2 8/11/2 7/10/2
f 10/15/3 11/16/3 118/12/3 8/11/3
f 157/17/1 12/18/1 9/14/1 151/13/1
f 12/18/4 13/19/4 10/15/4 9/14/4
f 13/19/3 129/20/3 11/16/3 10/15/3
f 14/21/1 15/22/1 12/18/1 157/17/1
f 15/22/4 16/23/4 13/19/4 12/18/4
f 16/23/3 17/24/3 129/20/3 13/19/3
f 18/25/1 19/26/1 15/22/1 14/21/1
f 19/26/5 20/27/5 16/23/5 15/22/5
f 20/27/3 21/28/3 17/24/3 16/23/3
f 22/29/1 23/30/1 19/26/1 18/25/1
f 23/30/5 24/31/5 20/27/5 19/26/5
f 24/31/3 173/32/3 21/28/3 20/27/3
f 204/33/1 25/34/1 23/30/1 22/29/1
f 25/34/5 26/35/5 24/31/5 23/30/5
f 26/35/3 27/36/3 173/32/3 24/31/3
f 74/37/1 28/38/1 25/34/1 204/33/1
f 28/38/6 29/39/6 26/35/6 25/34/6
f 29/39/3 47/40/3 27/36/3 26/35/3
f 1/41/1 2/42/1 28/38/1 74/37/1
f 2/42/6 3/43/6 29/39/6 28/38/6
f 3/43/3 4/44/3 47/40/3 29/39/3
f 35/45/3 36/46/3 30/47/3 4/4/3
f 36/46/7 37/48/7 31/49/7 30/47/7
f 37/48/8 38/50/8 32/51/8 31/49/8
f 38/50/3 39/52/3 33/53/3 32/51/3
f 39/52/8 40/54/8 34/55/8 33/53/8
f 41/56/3 42/57/3 36/46/3 35/45/3
f 42/57/9 43/58/9 37/48/9 36/46/9
f 43/58/10 44/59/10 38/50/10 37/48/10
f 44/59/3 45/60/3 39/52/3 38/50/3
f 45/60/10 46/61/10 40/54/10 39/52/10
f 47/62/3 48/63/3 42/57/3 41/56/3
f 48/63/11 49/64/11 43/58/11 42/57/11
f 49/64/7 50/65/7 44/59/7 43/58/7
f 50/65/3 51/66/3 45/60/3 44/59/3
f 51/66/12 52/67/12 46/61/12 45/60/12
f 4/68/3 30/69/3 48/63/3 47/62/3
f 30/69/10 31/70/10 49/64/10 48/63/10
f 31/70/9 32/71/9 50/65/9 49/64/9
f 32/71/3 33/72/3 51/66/3 50/65/3
f 33/72/9 34/73/9 52/67/9 51/66/9
f 34/74/3 40/75/3 46/76/3 52/77/3
f 58/45/13 59/78/13 54/79/13 53/4/13
f 59/78/1 60/80/1 55/81/1 54/79/1
f 60/80/13 61/82/13 56/83/13 55/81/13
f 61/82/14 62/84/14 57/85/14 56/83/14
f 62/84/1 63/54/1 1/55/1 57/85/1
f 64/56/15 65/86/15 59/78/15 58/45/15
f 65/86/1 66/87/1 60/80/1 59/78/1
f 66/87/15 67/88/15 61/82/15 60/80/15
f 67/88/16 68/89/16 62/84/16 61/82/16
f 68/89/1 117/61/1 63/54/1 62/84/1
f 69/62/14 70/90/14 65/86/14 64/56/14
f 70/90/1 71/91/1 66/87/1 65/86/1
f 71/91/14 72/92/14 67/88/14 66/87/14
f 72/92/17 73/93/17 68/89/17 67/88/17
f 73/93/1 74/67/1 117/61/1 68/89/1
f 53/68/16 54/94/16 70/90/16 69/62/16
f 54/94/1 55/95/1 71/91/1 70/90/1
f 55/95/16 56/96/16 72/92/16 71/91/16
f 56/96/15 57/97/15 73/93/15 72/92/15
f 57/97/1 1/73/1 74/67/1 73/93/1
f 69/77/1 64/76/1 58/75/1 53/74/1
f 118/45/3 80/46/3 75/47/3 35/4/3
f 80/46/7 81/48/7 76/49/7 75/47/7
f 81/48/8 82/50/8 77/51/8 76/49/8
f 82/50/3 83/52/3 78/53/3 77/51/3
f 83/52/8 84/54/8 79/55/8 78/53/8
f 85/56/3 86/57/3 80/46/3 118/45/3
f 86/57/9 87/58/9 81/48/9 80/46/9
f 87/58/10 88/59/10 82/50/10 81/48/10
f 88/59/3 89/60/3 83/52/3 82/50/3
f 89/60/10 90/61/10 84/54/10 83/52/10
f 41/62/3 91/63/3 86/57/3 85/56/3
f 91/63/11 92/64/11 87/58/11 86/57/11
f 92/64/7 93/65/7 88/59/7 87/58/7
f 93/65/3 94/66/3 89/60/3 88/59/3
f 94/66/12 95/67/12 90/61/12 89/60/12
f 35/68/3 75/69/3 91/63/3 41/62/3
f 75/69/10 76/70/10 92/64/10 91/63/10
f 76/70/9 77/71/9 93/65/9 92/64/9
f 77/71/3 78/72/3 94/66/3 93/65/3
f 78/72/9 79/73/9 95/67/9 94/66/9
f 79/74/3 84/75/3 90/76/3 95/77/3
f 101/45/17 102/78/17 97/79/17 96/4/17
f 102/78/1 103/80/1 98/81/1 97/79/1
f 103/80/17 104/82/17 99/83/17 98/81/17
f 104/82/14 105/84/14 100/85/14 99/83/14
f 105/84/1 145/54/1 63/55/1 100/85/1
f 106/56/15 107/86/15 102/78/15 101/45/15
f 107/86/1 108/87/1 103/80/1 102/78/1
f 108/87/15 109/88/15 104/82/15 103/80/15
f 109/88/16 110/89/16 105/84/16 104/82/16
f 110/89/1 111/61/1 145/54/1 105/84/1
f 112/62/14 113/90/14 107/86/14 106/56/14
f 113/90/1 114/91/1 108/87/1 107/86/1
f 114/91/14 115/92/14 109/88/14 108/87/14
f 115/92/17 116/93/17 110/89/17 109/88/17
f 116/93/1 117/67/1 111/61/1 110/89/1
f 96/68/16 97/94/16 113/90/16 112/62/16
f 97/94/1 98/95/1 114/91/1 113/90/1
f 98/95/16 99/96/16 115/92/16 114/91/16
f 99/96/15 100/97/15 116/93/15 115/92/15
f 100/97/1 63/73/1 117/67/1 116/93/1
f 112/77/1 106/76/1 101/75/1 96/74/1
f 11/45/3 124/46/3 119/47/3 118/4/3
f 124/46/7 125/48/7 120/49/7 119/47/7
f 125/48/8 126/50/8 121/51/8 120/49/8
f 126/50/3 127/52/3 122/53/3 121/51/3
f 127/52/8 128/54/8 123/55/8 122/53/8
f 129/56/3 130/57/3 124/46/3 11/45/3
f 130/57/9 131/58/9 125/48/9 124/46/9
f 131/58/10 132/59/10 126/50/10 125/48/10
f 132/59/3 133/60/3 127/52/3 126/50/3
f 133/60/10 134/61/10 128/54/10 127/52/10
f 85/62/3 135/63/3 130/57/3 129/56/3
f 135/63/8 136/64/8 131/58/8 130/57/8
f 136/64/12 137/65/12 132/59/12 131/58/12
f 137/65/3 138/66/3 133/60/3 132/59/3
f 138/66/12 139/67/12 134/61/12 133/60/12
f 118/68/3 119/69/3 135/63/3 85/62/3
f 119/69/10 120/70/10 136/64/10 135/63/10
f 120/70/9 121/71/9 137/65/9 136/64/9
f 121/71/3 122/72/3 138/66/3 137/65/3
f 122/72/9 123/73/9 139/67/9 138/66/9
f 123/74/3 128/75/3 134/76/3 139/77/3
f 146/45/17 147/78/17 141/79/17 140/4/17
f 147/78/1 148/80/1 142/81/1 141/79/1
f 148/80/13 149/82/13 143/83/13 142/81/13
f 149/82/14 150/84/14 144/85/14 143/83/14
f 150/84/1 151/54/1 145/55/1 144/85/1
f 152/56/15 153/86/15 147/78/15 146/45/15
f 153/86/1 154/87/1 148/80/1 147/78/1
f 154/87/15 155/88/15 149/82/15 148/80/15
f 155/88/16 156/89/16 150/84/16 149/82/16
f 156/89/1 157/61/1 151/54/1 150/84/1
f 158/62/14 159/90/14 153/86/14 152/56/14
f 159/90/1 160/91/1 154/87/1 153/86/1
f 160/91/14 161/92/14 155/88/14 154/87/14
f 161/92/17 162/93/17 156/89/17 155/88/17
f 162/93/1 111/67/1 157/61/1 156/89/1
f 140/68/16 141/94/16 159/90/16 158/62/16
f 141/94/1 142/95/1 160/91/1 159/90/1
f 142/95/16 143/96/16 161/92/16 160/91/16
f 143/96/15 144/97/15 162/93/15 161/92/15
f 144/97/1 145/73/1 111/67/1 162/93/1
f 158/77/1 152/76/1 146/75/1 140/74/1
f 41/45/3 168/46/3 163/47/3 47/4/3
f 168/46/12 169/48/12 164/49/12 163/47/12
f 169/48/8 170/50/8 165/51/8 164/49/8
f 170/50/3 171/52/3 166/53/3 165/51/3
f 171/52/8 172/54/8 167/55/8 166/53/8
f 173/56/3 174/57/3 168/46/3 41/45/3
f 174/57/9 175/58/9 169/48/9 168/46/9
f 175/58/10 176/59/10 170/50/10 169/48/10
f 176/59/3 177/60/3 171/52/3 170/50/3
f 177/60/10 178/61/10 172/54/10 171/52/10
f 27/62/3 179/63/3 174/57/3 173/56/3
f 179/63/8 180/64/8 175/58/8 174/57/8
f 180/64/12 181/65/12 176/59/12 175/58/12
f 181/65/3 182/66/3 177/60/3 176/59/3
f 182/66/12 183/67/12 178/61/12 177/60/12
f 47/68/3 163/69/3 179/63/3 27/62/3
f 163/69/10 164/70/10 180/64/10 179/63/10
f 164/70/9 165/71/9 181/65/9 180/64/9
f 165/71/3 166/72/3 182/66/3 181/65/3
f 166/72/9 167/73/9 183/67/9 182/66/9
f 167/74/3 172/75/3 178/76/3 183/77/3
f 189/45/17 190/78/17 185/79/17 184/4/17
f 190/78/1 191/80/1 186/81/1 185/79/1
f 191/80/17 192/82/17 187/83/17 186/81/17
f 192/82/18 193/84/18 188/85/18 187/83/18
f 193/84/1 117/54/1 74/55/1 188/85/1
f 194/56/15 195/86/15 190/78/15 189/45/15
f 195/86/1 196/87/1 191/80/1 190/78/1
f 196/87/15 197/88/15 192/82/15 191/80/15
f 197/88/16 198/89/16 193/84/16 192/82/16
f 198/89/1 22/61/1 117/54/1 193/84/1
f 199/62/14 200/90/14 195/86/14 194/56/14
f 200/90/1 201/91/1 196/87/1 195/86/1
f 201/91/14 202/92/14 197/88/14 196/87/14
f 202/92/17 203/93/17 198/89/17 197/88/17
f 203/93/1 204/67/1 22/61/1 198/89/1
f 184/68/16 185/94/16 200/90/16 199/62/16
f 185/94/1 186/95/1 201/91/1 200/90/1
f 186/95/16 187/96/16 202/92/16 201/91/16
f 187/96/15 188/97/15 203/93/15 202/92/15
f 188/97/1 74/73/1 204/67/1 203/93/1
f 199/77/1 194/76/1 189/75/1 184/74/1
f 85/45/3 210/46/3 205/47/3 41/4/3
f 210/46/12 211/48/12 206/49/12 205/47/12
f 211/48/8 212/50/8 207/51/8 206/49/8
f 212/50/3 213/52/3 208/53/3 207/51/3
f 213/52/8 214/54/8 209/55/8 208/53/8
f 21/56/3 215/57/3 210/46/3 85/45/3
f 215/57/9 216/58/9 211/48/9 210/46/9
f 216/58/10 217/59/10 212/50/10 211/48/10
f 217/59/3 218/60/3 213/52/3 212/50/3
f 218/60/10 219/61/10 214/54/10 213/52/10
f 173/62/3 220/63/3 215/57/3 21/56/3
f 220/63/8 221/64/8 216/58/8 215/57/8
f 221/64/12 222/65/12 217/59/12 216/58/12
f 222/65/3 223/66/3 218/60/3 217/59/3
f 223/66/12 224/67/12 219/61/12 218/60/12
f 41/68/3 205/69/3 220/63/3 173/62/3
f 205/69/10 206/70/10 221/64/10 220/63/10
f 206/70/9 207/71/9 222/65/9 221/64/9
f 207/71/3 208/72/3 223/66/3 222/65/3
f 208/72/9 209/73/9 224/67/9 223/66/9
f 209/74/3 214/75/3 219/76/3 224/77/3
f 230/45/17 231/78/17 226/79/17 225/4/17
f 231/78/1 232/80/1 227/81/1 226/79/1
f 232/80/17 233/82/17 228/83/17 227/81/17
f 233/82/14 234/84/14 229/85/14 228/83/14
f 234/84/1 111/54/1 117/55/1 229/85/1
f 235/56/15 236/86/15 231/78/15 230/45/15
f 236/86/1 237/87/1 232/80/1 231/78/1
f 237/87/15 238/88/15 233/82/15 232/80/15
f 238/88/16 239/89/16 234/84/16 233/82/16
f 239/89/1 18/61/1 111/54/1 234/84/1
f 240/62/14 241/90/14 236/86/14 235/56/14
f 241/90/1 242/91/1 237/87/1 236/86/1
f 242/91/14 243/92/14 238/88/14 237/87/14
f 243/92/17 244/93/17 239/89/17 238/88/17
f 244/93/1 22/67/1 18/61/1 239/89/1
f 225/68/16 226/94/16 241/90/16 240/62/16
f 226/94/1 227/95/1 242/91/1 241/90/1
f 227/95/16 228/96/16 243/92/16 242/91/16
f 228/96/15 229/97/15 244/93/15 243/92/15
f 229/97/1 117/73/1 22/67/1 244/93/1
f 240/77/1 235/76/1 230/75/1 225/74/1
f 129/45/3 250/46/3 245/47/3 85/4/3
f 250/46/12 251/48/12 246/49/12 245/47/12
f 251/48/8 252/50/8 247/51/8 246/49/8
f 252/50/3 253/52/3 248/53/3 247/51/3
f 253/52/8 254/54/8 249/55/8 248/53/8
f 17/56/3 255/57/3 250/46/3 129/45/3
f 255/57/9 256/58/9 251/48/9 250/46/9
f 256/58/10 257/59/10 252/50/10 251/48/10
f 257/59/3 258/60/3 253/52/3 252/50/3
f 258/60/10 259/61/10 254/54/10 253/52/10
f 21/62/3 260/63/3 255/57/3 17/56/3
f 260/63/8 261/64/8 256/58/8 255/57/8
f 261/64/12 262/65/12 257/59/12 256/58/12
f 262/65/3 263/66/3 258/60/3 257/59/3
f 263/66/12 264/67/12 259/61/12 258/60/12
f 85/68/3 245/69/3 260/63/3 21/62/3
f 245/69/10 246/70/10 261/64/10 260/63/10
f 246/70/9 247/71/9 262/65/9 261/64/9
f 247/71/3 248/72/3 263/66/3 262/65/3
f 248/72/9 249/73/9 264/67/9 263/66/9
f 249/74/3 254/75/3 259/76/3 264/77/3
f 270/45/17 271/78/17 266/79/17 265/4/17
f 271/78/1 272/80/1 267/81/1 266/79/1
f 272/80/17 273/82/17 268/83/17 267/81/17
f 273/82/14 274/84/14 269/85/14 268/83/14
f 274/84/1 157/54/1 111/55/1 269/85/1
f 275/56/15 276/86/15 271/78/15 270/45/15
f 276/86/1 277/87/1 272/80/1 271/78/1
f 277/87/15 278/88/15 273/82/15 272/80/15
f 278/88/16 279/89/16 274/84/16 273/82/16
f 279/89/1 14/61/1 157/54/1 274/84/1
f 280/62/14 281/90/14 276/86/14 275/56/14
f 281/90/1 282/91/1 277/87/1 276/86/1
f 282/91/14 283/92/14 278/88/14 277/87/14
f 283/92/17 284/93/17 279/89/17 278/88/17
f 284/93/1 18/67/1 14/61/1 279/89/1
f 265/68/16 266/94/16 281/90/16 280/62/16
f 266/94/1 267/95/1 282/91/1 281/90/1
f 267/95/16 268/96/16 283/92/16 282/91/16
f 268/96/15 269/97/15 284/93/15 283/92/15
f 269/97/1 111/73/1 18/67/1 284/93/1
f 280/77/1 275/76/1 270/75/1 265/74/1
