# Blender 4.0.1
# www.blender.org
mtllib puerta grande 2.mtl
o Panel.003
v -24.526138 23.825626 287.049896
v -24.514105 23.825626 286.589050
v -22.670719 31.248756 286.637177
v -24.526138 40.891418 287.049896
v -24.514105 40.891418 286.589050
v -24.526138 56.296623 287.049896
v -24.514105 56.296623 286.589050
v -24.526138 71.701828 287.049896
v -24.514105 71.701828 286.589050
v -15.251603 69.857811 287.292084
v -15.251603 71.701828 287.292084
v -15.239569 71.701828 286.831238
v -15.239569 69.857811 286.831238
v -7.820452 69.857811 287.486145
v -5.977066 71.701828 287.534271
v -5.965033 71.701828 287.073425
v -5.977066 56.296623 287.534271
v -5.965033 56.296623 287.073425
v -5.977066 40.891418 287.534271
v -5.965033 40.891418 287.073425
v -7.808418 44.118443 287.025299
v -5.977066 23.825626 287.534271
v -5.965033 23.825626 287.073425
v -7.808418 31.248756 287.025299
v -15.251603 31.248756 287.292084
v -15.251603 23.825626 287.292084
v -15.239569 23.825626 286.831238
v -15.239569 31.248756 286.831238
v -21.518602 32.401268 286.667267
v -21.400383 32.516518 286.555054
v -21.288179 32.631767 286.673279
v -20.827333 33.092773 286.685333
v -20.715130 33.208023 286.803558
v -21.518602 42.965935 286.667267
v -21.400383 42.850685 286.555054
v -21.288179 42.735432 286.673279
v -20.827333 42.274429 286.685333
v -20.715130 42.159180 286.803558
v -16.391685 42.965935 286.801147
v -16.503887 42.850685 286.682922
v -16.622108 42.735432 286.795135
v -17.082954 42.274429 286.783112
v -17.201174 42.159180 286.895294
v -16.391685 32.401268 286.801147
v -16.503887 32.516518 286.682922
v -16.622108 32.631767 286.795135
v -17.082954 33.092773 286.783112
v -17.201174 33.208023 286.895294
v -20.721148 33.208023 287.033966
v -20.839367 33.092773 287.146179
v -21.300213 32.631767 287.134125
v -21.418434 32.516518 287.246338
v -21.530636 32.401268 287.128113
v -22.682753 31.248756 287.098022
v -20.721148 42.159180 287.033966
v -20.839367 42.274429 287.146179
v -21.300213 42.735432 287.134125
v -21.418434 42.850685 287.246338
v -21.530636 42.965935 287.128113
v -17.207191 42.159180 287.125732
v -17.094988 42.274429 287.243958
v -16.634142 42.735432 287.255981
v -16.521938 42.850685 287.374207
v -16.403719 42.965935 287.261993
v -17.207191 33.208023 287.125732
v -17.094988 33.092773 287.243958
v -16.634142 32.631767 287.255981
v -16.521938 32.516518 287.374207
v -16.403719 32.401268 287.261993
v -22.670719 44.118443 286.637177
v -21.518602 45.270950 286.667267
v -21.400383 45.386200 286.555054
v -21.288179 45.501453 286.673279
v -20.827333 45.962456 286.685333
v -20.715130 46.077705 286.803558
v -21.518602 55.835621 286.667267
v -21.400383 55.720367 286.555054
v -21.288179 55.605118 286.673279
v -20.827333 55.144112 286.685333
v -20.715130 55.028862 286.803558
v -16.391685 55.835621 286.801147
v -16.503887 55.720367 286.682922
v -16.622108 55.605118 286.795135
v -17.082954 55.144112 286.783112
v -17.201174 55.028862 286.895294
v -16.391685 45.270950 286.801147
v -16.503887 45.386200 286.682922
v -16.622108 45.501453 286.795135
v -17.082954 45.962456 286.783112
v -17.201174 46.077705 286.895294
v -20.721148 46.077705 287.033966
v -20.839367 45.962456 287.146179
v -21.300213 45.501453 287.134125
v -21.418434 45.386200 287.246338
v -21.530636 45.270950 287.128113
v -22.682753 44.118443 287.098022
v -20.721148 55.028862 287.033966
v -20.839367 55.144112 287.146179
v -21.300213 55.605118 287.134125
v -21.418434 55.720367 287.246338
v -21.530636 55.835621 287.128113
v -17.207191 55.028862 287.125732
v -17.094988 55.144112 287.243958
v -16.634142 55.605118 287.255981
v -16.521938 55.720367 287.374207
v -16.403719 55.835621 287.261993
v -17.207191 46.077705 287.125732
v -17.094988 45.962456 287.243958
v -16.634142 45.501453 287.255981
v -16.521938 45.386200 287.374207
v -16.403719 45.270950 287.261993
v -22.670719 56.988129 286.637177
v -21.518602 58.140633 286.667267
v -21.400383 58.255890 286.555054
v -21.288179 58.371140 286.673279
v -20.827333 58.832146 286.685333
v -20.715130 58.947395 286.803558
v -22.670719 69.857811 286.637177
v -21.518602 68.705307 286.667267
v -21.400383 68.590057 286.555054
v -21.288179 68.474808 286.673279
v -20.827333 68.013802 286.685333
v -20.715130 67.898544 286.803558
v -16.391685 68.705307 286.801147
v -16.503887 68.590057 286.682922
v -16.622108 68.474808 286.795135
v -17.082954 68.013802 286.783112
v -17.201174 67.898544 286.895294
v -16.391685 58.140633 286.801147
v -16.503887 58.255890 286.682922
v -16.622108 58.371140 286.795135
v -17.082954 58.832146 286.783112
v -17.201174 58.947395 286.895294
v -20.721148 58.947395 287.033966
v -20.839367 58.832146 287.146179
v -21.300213 58.371140 287.134125
v -21.418434 58.255890 287.246338
v -21.530636 58.140633 287.128113
v -22.682753 56.988129 287.098022
v -20.721148 67.898544 287.033966
v -20.839367 68.013802 287.146179
v -21.300213 68.474808 287.134125
v -21.418434 68.590057 287.246338
v -21.530636 68.705307 287.128113
v -22.682753 69.857811 287.098022
v -17.207191 67.898544 287.125732
v -17.094988 68.013802 287.243958
v -16.634142 68.474808 287.255981
v -16.521938 68.590057 287.374207
v -16.403719 68.705307 287.261993
v -17.207191 58.947395 287.125732
v -17.094988 58.832146 287.243958
v -16.634142 58.371140 287.255981
v -16.521938 58.255890 287.374207
v -16.403719 58.140633 287.261993
v -14.087452 32.401268 286.861328
v -13.969232 32.516518 286.749115
v -13.857029 32.631767 286.867340
v -13.396182 33.092773 286.879364
v -13.283979 33.208023 286.997589
v -15.239568 44.118443 286.831238
v -14.087452 42.965935 286.861328
v -13.969232 42.850685 286.749115
v -13.857029 42.735432 286.867340
v -13.396182 42.274429 286.879364
v -13.283979 42.159180 286.997589
v -8.960534 42.965935 286.995209
v -9.072737 42.850685 286.876984
v -9.190958 42.735432 286.989197
v -9.651804 42.274429 286.977142
v -9.770024 42.159180 287.089355
v -8.960534 32.401268 286.995209
v -9.072737 32.516518 286.876984
v -9.190958 32.631767 286.989197
v -9.651804 33.092773 286.977142
v -9.770024 33.208023 287.089355
v -13.289996 33.208023 287.228027
v -13.408216 33.092773 287.340210
v -13.869063 32.631767 287.328186
v -13.987283 32.516518 287.440399
v -14.099486 32.401268 287.322174
v -13.289996 42.159180 287.228027
v -13.408216 42.274429 287.340210
v -13.869063 42.735432 287.328186
v -13.987283 42.850685 287.440399
v -14.099486 42.965935 287.322174
v -9.776041 42.159180 287.319763
v -9.663838 42.274429 287.437988
v -9.202992 42.735432 287.450043
v -9.090788 42.850685 287.568237
v -8.972569 42.965935 287.456055
v -7.820452 44.118443 287.486145
v -9.776041 33.208023 287.319763
v -9.663838 33.092773 287.437988
v -9.202992 32.631767 287.450043
v -9.090788 32.516518 287.568237
v -8.972569 32.401268 287.456055
v -7.820452 31.248756 287.486145
v -14.087452 45.270950 286.861328
v -13.969232 45.386200 286.749115
v -13.857029 45.501453 286.867340
v -13.396182 45.962456 286.879364
v -13.283979 46.077705 286.997589
v -15.239568 56.988129 286.831238
v -14.087452 55.835621 286.861328
v -13.969232 55.720367 286.749115
v -13.857029 55.605118 286.867340
v -13.396182 55.144112 286.879364
v -13.283979 55.028862 286.997589
v -8.960534 55.835621 286.995209
v -9.072737 55.720367 286.876984
v -9.190958 55.605118 286.989197
v -9.651804 55.144112 286.977142
v -9.770024 55.028862 287.089355
v -8.960534 45.270950 286.995209
v -9.072737 45.386200 286.876984
v -9.190958 45.501453 286.989197
v -9.651804 45.962456 286.977142
v -9.770024 46.077705 287.089355
v -13.289996 46.077705 287.228027
v -13.408216 45.962456 287.340210
v -13.869063 45.501453 287.328186
v -13.987283 45.386200 287.440399
v -14.099486 45.270950 287.322174
v -15.251602 44.118443 287.292084
v -13.289996 55.028862 287.228027
v -13.408216 55.144112 287.340210
v -13.869063 55.605118 287.328186
v -13.987283 55.720367 287.440399
v -14.099486 55.835621 287.322174
v -9.776041 55.028862 287.319763
v -9.663838 55.144112 287.437988
v -9.202992 55.605118 287.450043
v -9.090788 55.720367 287.568237
v -8.972569 55.835621 287.456055
v -7.820452 56.988129 287.486145
v -9.776041 46.077705 287.319763
v -9.663838 45.962456 287.437988
v -9.202992 45.501453 287.450043
v -9.090788 45.386200 287.568237
v -8.972569 45.270950 287.456055
v -14.087452 58.140633 286.861328
v -13.969232 58.255890 286.749115
v -13.857029 58.371140 286.867340
v -13.396182 58.832146 286.879364
v -13.283979 58.947395 286.997589
v -14.087452 68.705307 286.861328
v -13.969232 68.590057 286.749115
v -13.857029 68.474808 286.867340
v -13.396182 68.013802 286.879364
v -13.283979 67.898544 286.997589
v -7.808418 69.857811 287.025299
v -8.960534 68.705307 286.995209
v -9.072737 68.590057 286.876984
v -9.190958 68.474808 286.989197
v -9.651804 68.013802 286.977142
v -9.770024 67.898544 287.089355
v -7.808418 56.988129 287.025299
v -8.960534 58.140633 286.995209
v -9.072737 58.255890 286.876984
v -9.190958 58.371140 286.989197
v -9.651804 58.832146 286.977142
v -9.770024 58.947395 287.089355
v -13.289996 58.947395 287.228027
v -13.408216 58.832146 287.340210
v -13.869063 58.371140 287.328186
v -13.987283 58.255890 287.440399
v -14.099486 58.140633 287.322174
v -15.251602 56.988129 287.292084
v -13.289996 67.898544 287.228027
v -13.408216 68.013802 287.340210
v -13.869063 68.474808 287.328186
v -13.987283 68.590057 287.440399
v -14.099486 68.705307 287.322174
v -9.776041 67.898544 287.319763
v -9.663838 68.013802 287.437988
v -9.202992 68.474808 287.450043
v -9.090788 68.590057 287.568237
v -8.972569 68.705307 287.456055
v -9.776041 58.947395 287.319763
v -9.663838 58.832146 287.437988
v -9.202992 58.371140 287.450043
v -9.090788 58.255890 287.568237
v -8.972569 58.140633 287.456055
vn -0.0261 -0.0000 0.9997
vn -0.9997 -0.0000 -0.0261
vn 0.0261 -0.0000 -0.9997
vn -0.0000 1.0000 -0.0000
vn 0.9997 -0.0000 0.0261
vn -0.0000 -1.0000 -0.0000
vn -0.6884 -0.0000 -0.7253
vn 0.7253 -0.0000 -0.6884
vn 0.0185 0.7071 -0.7069
vn 0.0185 -0.7071 -0.7069
vn 0.6884 -0.0000 0.7253
vn -0.7253 -0.0000 0.6884
vn -0.0185 -0.7071 0.7069
vn -0.0185 0.7071 0.7069
vt 0.000000 0.668333
vt 0.080000 0.668333
vt 0.080000 0.000000
vt 0.000000 0.000000
vt 0.100000 0.668333
vt 0.100000 0.000000
vt 0.180000 0.668333
vt 0.180000 0.000000
vt 0.000000 2.005000
vt 0.080000 2.005000
vt 0.100000 2.005000
vt 0.180000 2.005000
vt 0.000000 4.010000
vt 0.080000 4.010000
vt 0.100000 4.010000
vt 0.180000 4.010000
vt 0.000000 4.412500
vt 0.080000 4.412500
vt 0.100000 4.412500
vt 0.180000 4.412500
vt 0.000000 5.217500
vt 0.080000 5.217500
vt 0.100000 5.217500
vt 0.180000 5.217500
vt 0.000000 5.885834
vt 0.080000 5.885834
vt 0.100000 5.885834
vt 0.180000 5.885834
vt 0.000000 7.222500
vt 0.080000 7.222500
vt 0.100000 7.222500
vt 0.180000 7.222500
vt 0.000000 9.227501
vt 0.080000 9.227501
vt 0.100000 9.227501
vt 0.180000 9.227501
vt 0.000000 9.630000
vt 0.080000 9.630000
vt 0.100000 9.630000
vt 0.180000 9.630000
vt 0.000000 10.435000
vt 0.080000 10.435000
vt 0.100000 10.435000
vt 0.180000 10.435000
vt 0.000000 0.558333
vt 0.050000 0.558333
vt 0.050000 0.000000
vt 0.057071 0.558333
vt 0.057071 0.000000
vt 0.064142 0.558333
vt 0.064142 0.000000
vt 0.084142 0.558333
vt 0.084142 0.000000
vt 0.091213 0.558333
vt 0.091213 0.000000
vt 0.000000 0.880833
vt 0.050000 0.880833
vt 0.057071 0.880833
vt 0.064142 0.880833
vt 0.084142 0.880833
vt 0.091213 0.880833
vt 0.000000 1.439167
vt 0.050000 1.439167
vt 0.057071 1.439167
vt 0.064142 1.439167
vt 0.084142 1.439167
vt 0.091213 1.439167
vt 0.000000 1.761667
vt 0.050000 1.761667
vt 0.057071 1.761667
vt 0.064142 1.761667
vt 0.084142 1.761667
vt 0.091213 1.761667
vt -0.161250 0.000000
vt -0.161250 0.558333
vt 0.161250 0.558333
vt 0.161250 0.000000
vt 0.007071 0.558333
vt 0.007071 0.000000
vt 0.027071 0.558333
vt 0.027071 0.000000
vt 0.034142 0.558333
vt 0.034142 0.000000
vt 0.041213 0.558333
vt 0.041213 0.000000
vt 0.007071 0.880833
vt 0.027071 0.880833
vt 0.034142 0.880833
vt 0.041213 0.880833
vt 0.007071 1.439167
vt 0.027071 1.439167
vt 0.034142 1.439167
vt 0.041213 1.439167
vt 0.007071 1.761667
vt 0.027071 1.761667
vt 0.034142 1.761667
vt 0.041213 1.761667
s 1
usemtl wood_boards
f 96/1/1 4/2/1 1/3/1 54/4/1
f 4/2/2 5/5/2 2/6/2 1/3/2
f 5/5/3 70/7/3 3/8/3 2/6/3
f 139/9/1 6/10/1 4/2/1 96/1/1
f 6/10/2 7/11/2 5/5/2 4/2/2
f 7/11/3 112/12/3 70/7/3 5/5/3
f 145/13/1 8/14/1 6/10/1 139/9/1
f 8/14/2 9/15/2 7/11/2 6/10/2
f 9/15/3 118/16/3 112/12/3 7/11/3
f 10/17/1 11/18/1 8/14/1 145/13/1
f 11/18/4 12/19/4 9/15/4 8/14/4
f 12/19/3 13/20/3 118/16/3 9/15/3
f 14/21/1 15/22/1 11/18/1 10/17/1
f 15/22/4 16/23/4 12/19/4 11/18/4
f 16/23/3 252/24/3 13/20/3 12/19/3
f 236/25/1 17/26/1 15/22/1 14/21/1
f 17/26/5 18/27/5 16/23/5 15/22/5
f 18/27/3 258/28/3 252/24/3 16/23/3
f 192/29/1 19/30/1 17/26/1 236/25/1
f 19/30/5 20/31/5 18/27/5 17/26/5
f 20/31/3 21/32/3 258/28/3 18/27/3
f 198/33/1 22/34/1 19/30/1 192/29/1
f 22/34/5 23/35/5 20/31/5 19/30/5
f 23/35/3 24/36/3 21/32/3 20/31/3
f 25/37/1 26/38/1 22/34/1 198/33/1
f 26/38/6 27/39/6 23/35/6 22/34/6
f 27/39/3 28/40/3 24/36/3 23/35/3
f 54/41/1 1/42/1 26/38/1 25/37/1
f 1/42/6 2/43/6 27/39/6 26/38/6
f 2/43/3 3/44/3 28/40/3 27/39/3
f 70/45/3 34/46/3 29/47/3 3/4/3
f 34/46/7 35/48/7 30/49/7 29/47/7
f 35/48/8 36/50/8 31/51/8 30/49/8
f 36/50/3 37/52/3 32/53/3 31/51/3
f 37/52/8 38/54/8 33/55/8 32/53/8
f 161/56/3 39/57/3 34/46/3 70/45/3
f 39/57/9 40/58/9 35/48/9 34/46/9
f 40/58/10 41/59/10 36/50/10 35/48/10
f 41/59/3 42/60/3 37/52/3 36/50/3
f 42/60/10 43/61/10 38/54/10 37/52/10
f 28/62/3 44/63/3 39/57/3 161/56/3
f 44/63/8 45/64/8 40/58/8 39/57/8
f 45/64/7 46/65/7 41/59/7 40/58/7
f 46/65/3 47/66/3 42/60/3 41/59/3
f 47/66/7 48/67/7 43/61/7 42/60/7
f 3/68/3 29/69/3 44/63/3 28/62/3
f 29/69/10 30/70/10 45/64/10 44/63/10
f 30/70/9 31/71/9 46/65/9 45/64/9
f 31/71/3 32/72/3 47/66/3 46/65/3
f 32/72/9 33/73/9 48/67/9 47/66/9
f 33/74/3 38/75/3 43/76/3 48/77/3
f 55/45/11 56/78/11 50/79/11 49/4/11
f 56/78/1 57/80/1 51/81/1 50/79/1
f 57/80/11 58/82/11 52/83/11 51/81/11
f 58/82/12 59/84/12 53/85/12 52/83/12
f 59/84/1 96/54/1 54/55/1 53/85/1
f 60/56/13 61/86/13 56/78/13 55/45/13
f 61/86/1 62/87/1 57/80/1 56/78/1
f 62/87/13 63/88/13 58/82/13 57/80/13
f 63/88/14 64/89/14 59/84/14 58/82/14
f 64/89/1 225/61/1 96/54/1 59/84/1
f 65/62/12 66/90/12 61/86/12 60/56/12
f 66/90/1 67/91/1 62/87/1 61/86/1
f 67/91/12 68/92/12 63/88/12 62/87/12
f 68/92/11 69/93/11 64/89/11 63/88/11
f 69/93/1 25/67/1 225/61/1 64/89/1
f 49/68/14 50/94/14 66/90/14 65/62/14
f 50/94/1 51/95/1 67/91/1 66/90/1
f 51/95/14 52/96/14 68/92/14 67/91/14
f 52/96/13 53/97/13 69/93/13 68/92/13
f 53/97/1 54/73/1 25/67/1 69/93/1
f 65/77/1 60/76/1 55/75/1 49/74/1
f 112/45/3 76/46/3 71/47/3 70/4/3
f 76/46/7 77/48/7 72/49/7 71/47/7
f 77/48/8 78/50/8 73/51/8 72/49/8
f 78/50/3 79/52/3 74/53/3 73/51/3
f 79/52/8 80/54/8 75/55/8 74/53/8
f 204/56/3 81/57/3 76/46/3 112/45/3
f 81/57/9 82/58/9 77/48/9 76/46/9
f 82/58/10 83/59/10 78/50/10 77/48/10
f 83/59/3 84/60/3 79/52/3 78/50/3
f 84/60/10 85/61/10 80/54/10 79/52/10
f 161/62/3 86/63/3 81/57/3 204/56/3
f 86/63/8 87/64/8 82/58/8 81/57/8
f 87/64/7 88/65/7 83/59/7 82/58/7
f 88/65/3 89/66/3 84/60/3 83/59/3
f 89/66/7 90/67/7 85/61/7 84/60/7
f 70/68/3 71/69/3 86/63/3 161/62/3
f 71/69/10 72/70/10 87/64/10 86/63/10
f 72/70/9 73/71/9 88/65/9 87/64/9
f 73/71/3 74/72/3 89/66/3 88/65/3
f 74/72/9 75/73/9 90/67/9 89/66/9
f 75/74/3 80/75/3 85/76/3 90/77/3
f 97/45/11 98/78/11 92/79/11 91/4/11
f 98/78/1 99/80/1 93/81/1 92/79/1
f 99/80/11 100/82/11 94/83/11 93/81/11
f 100/82/12 101/84/12 95/85/12 94/83/12
f 101/84/1 139/54/1 96/55/1 95/85/1
f 102/56/13 103/86/13 98/78/13 97/45/13
f 103/86/1 104/87/1 99/80/1 98/78/1
f 104/87/13 105/88/13 100/82/13 99/80/13
f 105/88/14 106/89/14 101/84/14 100/82/14
f 106/89/1 269/61/1 139/54/1 101/84/1
f 107/62/12 108/90/12 103/86/12 102/56/12
f 108/90/1 109/91/1 104/87/1 103/86/1
f 109/91/12 110/92/12 105/88/12 104/87/12
f 110/92/11 111/93/11 106/89/11 105/88/11
f 111/93/1 225/67/1 269/61/1 106/89/1
f 91/68/14 92/94/14 108/90/14 107/62/14
f 92/94/1 93/95/1 109/91/1 108/90/1
f 93/95/14 94/96/14 110/92/14 109/91/14
f 94/96/13 95/97/13 111/93/13 110/92/13
f 95/97/1 96/73/1 225/67/1 111/93/1
f 107/77/1 102/76/1 97/75/1 91/74/1
f 118/45/3 119/46/3 113/47/3 112/4/3
f 119/46/7 120/48/7 114/49/7 113/47/7
f 120/48/8 121/50/8 115/51/8 114/49/8
f 121/50/3 122/52/3 116/53/3 115/51/3
f 122/52/8 123/54/8 117/55/8 116/53/8
f 13/56/3 124/57/3 119/46/3 118/45/3
f 124/57/9 125/58/9 120/48/9 119/46/9
f 125/58/10 126/59/10 121/50/10 120/48/10
f 126/59/3 127/60/3 122/52/3 121/50/3
f 127/60/10 128/61/10 123/54/10 122/52/10
f 204/62/3 129/63/3 124/57/3 13/56/3
f 129/63/8 130/64/8 125/58/8 124/57/8
f 130/64/7 131/65/7 126/59/7 125/58/7
f 131/65/3 132/66/3 127/60/3 126/59/3
f 132/66/7 133/67/7 128/61/7 127/60/7
f 112/68/3 113/69/3 129/63/3 204/62/3
f 113/69/10 114/70/10 130/64/10 129/63/10
f 114/70/9 115/71/9 131/65/9 130/64/9
f 115/71/3 116/72/3 132/66/3 131/65/3
f 116/72/9 117/73/9 133/67/9 132/66/9
f 117/74/3 123/75/3 128/76/3 133/77/3
f 140/45/11 141/78/11 135/79/11 134/4/11
f 141/78/1 142/80/1 136/81/1 135/79/1
f 142/80/11 143/82/11 137/83/11 136/81/11
f 143/82/12 144/84/12 138/85/12 137/83/12
f 144/84/1 145/54/1 139/55/1 138/85/1
f 146/56/13 147/86/13 141/78/13 140/45/13
f 147/86/1 148/87/1 142/80/1 141/78/1
f 148/87/13 149/88/13 143/82/13 142/80/13
f 149/88/14 150/89/14 144/84/14 143/82/14
f 150/89/1 10/61/1 145/54/1 144/84/1
f 151/62/12 152/90/12 147/86/12 146/56/12
f 152/90/1 153/91/1 148/87/1 147/86/1
f 153/91/12 154/92/12 149/88/12 148/87/12
f 154/92/11 155/93/11 150/89/11 149/88/11
f 155/93/1 269/67/1 10/61/1 150/89/1
f 134/68/14 135/94/14 152/90/14 151/62/14
f 135/94/1 136/95/1 153/91/1 152/90/1
f 136/95/14 137/96/14 154/92/14 153/91/14
f 137/96/13 138/97/13 155/93/13 154/92/13
f 138/97/1 139/73/1 269/67/1 155/93/1
f 151/77/1 146/76/1 140/75/1 134/74/1
f 161/45/3 162/46/3 156/47/3 28/4/3
f 162/46/7 163/48/7 157/49/7 156/47/7
f 163/48/8 164/50/8 158/51/8 157/49/8
f 164/50/3 165/52/3 159/53/3 158/51/3
f 165/52/8 166/54/8 160/55/8 159/53/8
f 21/56/3 167/57/3 162/46/3 161/45/3
f 167/57/9 168/58/9 163/48/9 162/46/9
f 168/58/10 169/59/10 164/50/10 163/48/10
f 169/59/3 170/60/3 165/52/3 164/50/3
f 170/60/10 171/61/10 166/54/10 165/52/10
f 24/62/3 172/63/3 167/57/3 21/56/3
f 172/63/8 173/64/8 168/58/8 167/57/8
f 173/64/7 174/65/7 169/59/7 168/58/7
f 174/65/3 175/66/3 170/60/3 169/59/3
f 175/66/7 176/67/7 171/61/7 170/60/7
f 28/68/3 156/69/3 172/63/3 24/62/3
f 156/69/10 157/70/10 173/64/10 172/63/10
f 157/70/9 158/71/9 174/65/9 173/64/9
f 158/71/3 159/72/3 175/66/3 174/65/3
f 159/72/9 160/73/9 176/67/9 175/66/9
f 160/74/3 166/75/3 171/76/3 176/77/3
f 182/45/11 183/78/11 178/79/11 177/4/11
f 183/78/1 184/80/1 179/81/1 178/79/1
f 184/80/11 185/82/11 180/83/11 179/81/11
f 185/82/12 186/84/12 181/85/12 180/83/12
f 186/84/1 225/54/1 25/55/1 181/85/1
f 187/56/13 188/86/13 183/78/13 182/45/13
f 188/86/1 189/87/1 184/80/1 183/78/1
f 189/87/13 190/88/13 185/82/13 184/80/13
f 190/88/14 191/89/14 186/84/14 185/82/14
f 191/89/1 192/61/1 225/54/1 186/84/1
f 193/62/12 194/90/12 188/86/12 187/56/12
f 194/90/1 195/91/1 189/87/1 188/86/1
f 195/91/12 196/92/12 190/88/12 189/87/12
f 196/92/11 197/93/11 191/89/11 190/88/11
f 197/93/1 198/67/1 192/61/1 191/89/1
f 177/68/14 178/94/14 194/90/14 193/62/14
f 178/94/1 179/95/1 195/91/1 194/90/1
f 179/95/14 180/96/14 196/92/14 195/91/14
f 180/96/13 181/97/13 197/93/13 196/92/13
f 181/97/1 25/73/1 198/67/1 197/93/1
f 193/77/1 187/76/1 182/75/1 177/74/1
f 204/45/3 205/46/3 199/47/3 161/4/3
f 205/46/7 206/48/7 200/49/7 199/47/7
f 206/48/8 207/50/8 201/51/8 200/49/8
f 207/50/3 208/52/3 202/53/3 201/51/3
f 208/52/8 209/54/8 203/55/8 202/53/8
f 258/56/3 210/57/3 205/46/3 204/45/3
f 210/57/9 211/58/9 206/48/9 205/46/9
f 211/58/10 212/59/10 207/50/10 206/48/10
f 212/59/3 213/60/3 208/52/3 207/50/3
f 213/60/10 214/61/10 209/54/10 208/52/10
f 21/62/3 215/63/3 210/57/3 258/56/3
f 215/63/8 216/64/8 211/58/8 210/57/8
f 216/64/7 217/65/7 212/59/7 211/58/7
f 217/65/3 218/66/3 213/60/3 212/59/3
f 218/66/7 219/67/7 214/61/7 213/60/7
f 161/68/3 199/69/3 215/63/3 21/62/3
f 199/69/10 200/70/10 216/64/10 215/63/10
f 200/70/9 201/71/9 217/65/9 216/64/9
f 201/71/3 202/72/3 218/66/3 217/65/3
f 202/72/9 203/73/9 219/67/9 218/66/9
f 203/74/3 209/75/3 214/76/3 219/77/3
f 226/45/11 227/78/11 221/79/11 220/4/11
f 227/78/1 228/80/1 222/81/1 221/79/1
f 228/80/11 229/82/11 223/83/11 222/81/11
f 229/82/12 230/84/12 224/85/12 223/83/12
f 230/84/1 269/54/1 225/55/1 224/85/1
f 231/56/13 232/86/13 227/78/13 226/45/13
f 232/86/1 233/87/1 228/80/1 227/78/1
f 233/87/13 234/88/13 229/82/13 228/80/13
f 234/88/14 235/89/14 230/84/14 229/82/14
f 235/89/1 236/61/1 269/54/1 230/84/1
f 237/62/12 238/90/12 232/86/12 231/56/12
f 238/90/1 239/91/1 233/87/1 232/86/1
f 239/91/12 240/92/12 234/88/12 233/87/12
f 240/92/11 241/93/11 235/89/11 234/88/11
f 241/93/1 192/67/1 236/61/1 235/89/1
f 220/68/14 221/94/14 238/90/14 237/62/14
f 221/94/1 222/95/1 239/91/1 238/90/1
f 222/95/14 223/96/14 240/92/14 239/91/14
f 223/96/13 224/97/13 241/93/13 240/92/13
f 224/97/1 225/73/1 192/67/1 241/93/1
f 237/77/1 231/76/1 226/75/1 220/74/1
f 13/45/3 247/46/3 242/47/3 204/4/3
f 247/46/7 248/48/7 243/49/7 242/47/7
f 248/48/8 249/50/8 244/51/8 243/49/8
f 249/50/3 250/52/3 245/53/3 244/51/3
f 250/52/8 251/54/8 246/55/8 245/53/8
f 252/56/3 253/57/3 247/46/3 13/45/3
f 253/57/9 254/58/9 248/48/9 247/46/9
f 254/58/10 255/59/10 249/50/10 248/48/10
f 255/59/3 256/60/3 250/52/3 249/50/3
f 256/60/10 257/61/10 251/54/10 250/52/10
f 258/62/3 259/63/3 253/57/3 252/56/3
f 259/63/8 260/64/8 254/58/8 253/57/8
f 260/64/7 261/65/7 255/59/7 254/58/7
f 261/65/3 262/66/3 256/60/3 255/59/3
f 262/66/7 263/67/7 257/61/7 256/60/7
f 204/68/3 242/69/3 259/63/3 258/62/3
f 242/69/10 243/70/10 260/64/10 259/63/10
f 243/70/9 244/71/9 261/65/9 260/64/9
f 244/71/3 245/72/3 262/66/3 261/65/3
f 245/72/9 246/73/9 263/67/9 262/66/9
f 246/74/3 251/75/3 257/76/3 263/77/3
f 270/45/11 271/78/11 265/79/11 264/4/11
f 271/78/1 272/80/1 266/81/1 265/79/1
f 272/80/11 273/82/11 267/83/11 266/81/11
f 273/82/12 274/84/12 268/85/12 267/83/12
f 274/84/1 10/54/1 269/55/1 268/85/1
f 275/56/13 276/86/13 271/78/13 270/45/13
f 276/86/1 277/87/1 272/80/1 271/78/1
f 277/87/13 278/88/13 273/82/13 272/80/13
f 278/88/14 279/89/14 274/84/14 273/82/14
f 279/89/1 14/61/1 10/54/1 274/84/1
f 280/62/12 281/90/12 276/86/12 275/56/12
f 281/90/1 282/91/1 277/87/1 276/86/1
f 282/91/12 283/92/12 278/88/12 277/87/12
f 283/92/11 284/93/11 279/89/11 278/88/11
f 284/93/1 236/67/1 14/61/1 279/89/1
f 264/68/14 265/94/14 281/90/14 280/62/14
f 265/94/1 266/95/1 282/91/1 281/90/1
f 266/95/14 267/96/14 283/92/14 282/91/14
f 267/96/13 268/97/13 284/93/13 283/92/13
f 268/97/1 269/73/1 236/67/1 284/93/1
f 280/77/1 275/76/1 270/75/1 264/74/1
