# This file uses centimeters as units for non-parametric coordinates.

mtllib Puerta Prop.mtl
g default
v 11.978247 0.000000 3.593474
v 11.978247 0.000000 9.000000
v 11.978247 10.188420 9.000000
v 11.978247 10.188420 3.593474
v 11.737501 10.188420 9.000000
v 11.737501 10.188420 3.593474
v 11.737501 0.000000 3.593474
v 11.737501 0.000000 9.000000
v 11.978247 0.000000 4.134127
v 11.978247 10.188420 4.134127
v 11.737501 10.188420 4.134127
v 11.737501 0.000000 4.134127
v 11.978247 0.000000 8.459348
v 11.978247 10.188420 8.459348
v 11.737501 10.188420 8.459348
v 11.737501 0.000000 8.459348
v 11.978247 9.444419 8.999999
v 11.978247 9.444419 8.459348
v 11.978247 9.444419 4.134127
v 11.978247 9.444419 3.593474
v 11.737500 9.444419 3.593474
v 11.737500 9.444419 4.134127
v 11.737500 9.444419 8.459347
v 11.737500 9.444419 8.999999
v 11.607260 10.188420 9.000000
v 11.607260 10.188420 8.459348
v 11.607259 9.444419 8.459347
v 11.607259 9.444419 8.999999
v 11.607259 9.444419 4.134127
v 11.607260 10.188420 4.134127
v 11.607259 9.444419 3.593474
v 11.607260 10.188420 3.593474
v 11.607260 0.000000 4.134127
v 11.607260 0.000000 3.593474
v 11.607260 0.000000 8.459348
v 11.607260 0.000000 9.000000
v 11.978247 4.364489 8.459348
v 11.978247 4.364489 8.999999
v 11.737501 4.364489 8.999999
v 11.607260 4.364489 8.999999
v 11.607260 4.364489 8.459348
v 11.737501 4.364489 8.459348
v 11.737501 4.364489 4.134127
v 11.607260 4.364489 4.134127
v 11.607260 4.364489 3.593474
v 11.737501 4.364489 3.593474
v 11.978247 4.364489 3.593474
v 11.978247 4.364489 4.134127
v 11.978247 4.699289 8.999999
v 11.978247 4.699289 8.459347
v 11.978247 4.699289 4.134127
v 11.978247 4.699289 3.593474
v 11.737500 4.699289 3.593474
v 11.607260 4.699289 3.593474
v 11.607260 4.699289 4.134127
v 11.737500 4.699289 4.134127
v 11.737500 4.699289 8.459348
v 11.607260 4.699289 8.459348
v 11.607260 4.699289 8.999999
v 11.737500 4.699289 8.999999
v 11.978247 0.000000 4.566648
v 11.978247 4.364489 4.566648
v 11.978247 4.699289 4.566648
v 11.978247 9.444419 4.566648
v 11.978247 10.188420 4.566648
v 11.737501 10.188420 4.566648
v 11.607260 10.188420 4.566648
v 11.607259 9.444419 4.566648
v 11.737500 9.444419 4.566648
v 11.737500 4.699289 4.566648
v 11.737501 4.364489 4.566648
v 11.737501 0.000000 4.566648
v 11.978247 0.000000 4.739657
v 11.978247 4.364489 4.739657
v 11.978247 4.699289 4.739657
v 11.978247 9.444419 4.739657
v 11.978247 10.188420 4.739657
v 11.737501 10.188420 4.739657
v 11.607260 10.188420 4.739657
v 11.607259 9.444419 4.739657
v 11.737500 9.444419 4.739657
v 11.737500 4.699289 4.739657
v 11.737501 4.364489 4.739657
v 11.737501 0.000000 4.739657
v 11.523479 4.699289 4.566648
v 11.523479 4.364489 4.566648
v 11.523479 4.364489 4.739657
v 11.523479 4.699289 4.739657
vt 0.825000 0.800000
vt 0.650000 0.800000
vt 0.650000 0.000000
vt 0.825000 0.000000
vt 0.825000 0.800000
vt 0.650000 0.800000
vt 0.650000 0.000000
vt 0.825000 0.000000
vt 0.667500 0.000000
vt 0.667500 0.800000
vt 0.667500 0.800000
vt 0.667500 0.000000
vt 0.807500 0.000000
vt 0.807500 0.800000
vt 0.807500 0.800000
vt 0.807500 0.000000
vt 0.825000 0.720000
vt 0.807500 0.720000
vt 0.667500 0.720000
vt 0.650000 0.720000
vt 0.650000 0.720000
vt 0.667500 0.720000
vt 0.807500 0.720000
vt 0.825000 0.720000
vt 0.825000 0.800000
vt 0.807500 0.800000
vt 0.825000 0.720000
vt 0.667500 0.720000
vt 0.667500 0.800000
vt 0.650000 0.800000
vt 0.650000 0.720000
vt 0.807500 0.720000
vt 0.667500 0.000000
vt 0.650000 0.000000
vt 0.807500 0.000000
vt 0.825000 0.000000
vt 0.807500 0.360000
vt 0.825000 0.360000
vt 0.825000 0.360000
vt 0.825000 0.360000
vt 0.807500 0.360000
vt 0.807500 0.360000
vt 0.667500 0.360000
vt 0.667500 0.360000
vt 0.650000 0.360000
vt 0.650000 0.360000
vt 0.650000 0.360000
vt 0.667500 0.360000
vt 0.825000 0.396000
vt 0.807500 0.396000
vt 0.667500 0.396000
vt 0.650000 0.396000
vt 0.650000 0.396000
vt 0.650000 0.396000
vt 0.667500 0.396000
vt 0.667500 0.396000
vt 0.807500 0.396000
vt 0.807500 0.396000
vt 0.825000 0.396000
vt 0.825000 0.396000
vt 0.681500 0.000000
vt 0.681500 0.360000
vt 0.681500 0.396000
vt 0.681500 0.720000
vt 0.681500 0.800000
vt 0.681500 0.800000
vt 0.681500 0.800000
vt 0.681500 0.720000
vt 0.681500 0.720000
vt 0.681500 0.396000
vt 0.681500 0.360000
vt 0.681500 0.000000
vt 0.687100 0.000000
vt 0.687100 0.360000
vt 0.687100 0.396000
vt 0.687100 0.720000
vt 0.687100 0.800000
vt 0.687100 0.800000
vt 0.687100 0.800000
vt 0.687100 0.720000
vt 0.687100 0.720000
vt 0.687100 0.396000
vt 0.687100 0.360000
vt 0.687100 0.000000
vt 0.681500 0.396000
vt 0.681500 0.360000
vt 0.687100 0.360000
vt 0.687100 0.396000
vn -1.000000 0.000001 0.000000
vn -1.000000 0.000001 0.000000
vn -1.000000 0.000000 0.000000
vn -1.000000 0.000001 0.000000
vn 0.000000 1.000000 0.000000
vn 0.000000 1.000000 0.000000
vn 0.000000 1.000000 0.000000
vn 0.000000 1.000000 0.000000
vn 0.000000 0.000000 -1.000000
vn 0.000000 0.000000 -1.000000
vn 0.000000 0.000000 -1.000000
vn 0.000000 0.000000 -1.000000
vn 0.000000 -1.000000 0.000000
vn 0.000000 -1.000000 0.000000
vn 0.000000 -1.000000 0.000000
vn 0.000000 -1.000000 0.000000
vn 0.000000 -0.000000 1.000000
vn 0.000000 -0.000000 1.000000
vn 0.000000 -0.000001 1.000000
vn 0.000000 -0.000001 1.000000
vn 1.000000 0.000000 0.000000
vn 1.000000 -0.000000 0.000000
vn 1.000000 0.000000 0.000000
vn 1.000000 -0.000000 0.000000
vn 1.000000 0.000000 0.000000
vn 1.000000 0.000000 0.000000
vn 1.000000 0.000000 0.000000
vn 1.000000 0.000000 0.000000
vn 0.000000 1.000000 0.000000
vn 0.000000 1.000000 0.000000
vn 0.000000 1.000000 0.000000
vn 0.000000 1.000000 0.000000
vn -1.000000 -0.000000 0.000000
vn -1.000000 0.000000 0.000000
vn -1.000000 0.000001 0.000000
vn -1.000000 0.000001 0.000000
vn 0.000000 -1.000000 0.000000
vn 0.000000 -1.000000 0.000000
vn 0.000000 -1.000000 0.000000
vn 0.000000 -1.000000 0.000000
vn 1.000000 0.000000 0.000000
vn 1.000000 0.000000 0.000000
vn 0.000000 1.000000 0.000000
vn 0.000000 1.000000 0.000000
vn -1.000000 0.000001 0.000000
vn -1.000000 0.000000 0.000000
vn 0.000000 -1.000000 0.000000
vn 0.000000 -1.000000 0.000000
vn 1.000000 -0.000000 0.000000
vn 1.000000 0.000000 0.000000
vn 1.000000 0.000000 0.000000
vn 1.000000 0.000000 0.000000
vn 1.000000 -0.000000 0.000000
vn 1.000000 0.000000 0.000000
vn 1.000000 0.000000 0.000000
vn 1.000000 0.000000 0.000000
vn 1.000000 0.000000 0.000000
vn 1.000000 0.000000 0.000000
vn 0.000000 0.000000 -1.000000
vn 0.000000 0.000000 -1.000000
vn 0.000000 0.000000 -1.000000
vn 0.000000 0.000000 -1.000000
vn -1.000000 0.000000 0.000000
vn -1.000000 0.000000 0.000000
vn -1.000000 0.000000 0.000000
vn -1.000000 0.000000 0.000000
vn -1.000000 -0.000000 0.000000
vn -1.000000 -0.000000 0.000000
vn -1.000000 -0.000000 0.000000
vn -1.000000 -0.000000 0.000000
vn -1.000000 -0.000000 0.000000
vn -1.000000 -0.000000 0.000000
vn -1.000000 -0.000000 0.000000
vn -1.000000 0.000000 0.000000
vn 0.000000 0.000000 1.000000
vn 0.000000 0.000000 1.000000
vn 0.000000 0.000000 1.000000
vn 0.000000 0.000000 1.000000
vn 0.000000 1.000000 0.000000
vn 0.000000 1.000000 0.000000
vn 0.000000 1.000000 0.000000
vn 0.000000 1.000000 0.000000
vn 0.000000 -0.000001 1.000000
vn 0.000000 -0.000001 1.000000
vn 0.000000 -0.000001 1.000000
vn 0.000000 -0.000001 1.000000
vn 0.000000 -1.000000 0.000000
vn 0.000000 -1.000000 0.000000
vn 0.000000 -1.000000 0.000000
vn 0.000000 -1.000000 0.000000
vn 0.000000 1.000000 0.000000
vn 0.000000 1.000000 0.000000
vn 0.000000 1.000000 0.000000
vn 0.000000 1.000000 0.000000
vn 0.000000 0.000000 -1.000000
vn 0.000000 0.000000 -1.000000
vn 0.000000 0.000000 -1.000000
vn 0.000000 0.000000 -1.000000
vn 0.000000 1.000000 0.000000
vn 0.000000 1.000000 0.000000
vn 0.000000 1.000000 0.000000
vn 0.000000 1.000000 0.000000
vn 0.000000 0.000000 1.000000
vn 0.000000 0.000000 1.000000
vn 0.000000 0.000000 1.000000
vn 0.000000 0.000000 1.000000
vn 0.000000 0.000000 -1.000000
vn 0.000000 0.000000 -1.000000
vn 0.000000 0.000000 -1.000000
vn 0.000000 0.000000 -1.000000
vn 0.000000 -1.000000 0.000000
vn 0.000000 -1.000000 0.000000
vn 0.000000 -1.000000 0.000000
vn 0.000000 -1.000000 0.000000
vn 0.000000 0.000000 -1.000000
vn 0.000000 0.000000 -1.000000
vn 0.000000 0.000000 -1.000000
vn 0.000000 0.000000 -1.000000
vn 0.000000 -1.000000 0.000000
vn 0.000000 -1.000000 0.000000
vn 0.000000 -1.000000 0.000000
vn 0.000000 -1.000000 0.000000
vn 0.000000 0.000000 1.000000
vn 0.000000 0.000000 1.000000
vn 0.000000 0.000000 1.000000
vn 0.000000 0.000000 1.000000
vn 1.000000 -0.000000 0.000000
vn 1.000000 0.000000 0.000000
vn 1.000000 0.000000 0.000000
vn 0.000000 0.000000 1.000000
vn 0.000000 0.000000 1.000000
vn 0.000000 0.000000 1.000000
vn 0.000000 0.000000 1.000000
vn 0.000000 0.000000 1.000000
vn 0.000000 0.000000 1.000000
vn -1.000000 -0.000000 0.000000
vn -1.000000 -0.000000 0.000000
vn 0.000000 -0.000000 -1.000000
vn 0.000000 -0.000000 -1.000000
vn 0.000000 -0.000000 -1.000000
vn 0.000000 -0.000000 -1.000000
vn -1.000000 -0.000000 0.000000
vn -1.000000 0.000000 0.000000
vn -1.000000 -0.000000 0.000000
vn -1.000000 0.000000 0.000000
vn 0.000000 0.000000 1.000000
vn 0.000000 0.000000 1.000000
vn 0.000000 0.000000 1.000000
vn 0.000000 0.000000 1.000000
vn -1.000000 -0.000000 0.000000
vn -1.000000 -0.000000 0.000000
vn 0.000000 0.000000 -1.000000
vn 0.000000 0.000000 -1.000000
vn 0.000000 0.000000 -1.000000
vn 0.000000 0.000000 -1.000000
vn 0.000000 0.000000 -1.000000
vn 0.000000 0.000000 -1.000000
vn 1.000000 0.000000 0.000000
vn 1.000000 0.000000 0.000000
vn 1.000000 0.000000 0.000000
vn 1.000000 0.000000 0.000000
vn 1.000000 -0.000000 0.000000
vn 1.000000 0.000000 0.000000
vn 1.000000 0.000000 0.000000
vn 0.000000 1.000000 0.000000
vn 0.000000 1.000000 0.000000
vn 0.000000 1.000000 0.000000
vn 0.000000 1.000000 0.000000
vn 0.000000 1.000000 0.000000
vn 0.000000 1.000000 0.000000
vn -1.000000 0.000001 0.000000
vn -1.000000 0.000001 0.000000
vn 0.000000 -1.000000 0.000000
vn 0.000000 -1.000000 0.000000
vn 0.000000 -1.000000 0.000000
vn 0.000000 -1.000000 0.000000
vn -1.000000 -0.000000 0.000000
vn -1.000000 -0.000000 0.000000
vn -1.000000 0.000000 0.000000
vn -1.000000 0.000000 0.000000
vn -1.000000 -0.000000 0.000000
vn -1.000000 -0.000000 0.000000
vn -1.000000 -0.000000 0.000000
vn -1.000000 -0.000000 0.000000
vn 0.000000 -1.000000 0.000000
vn 0.000000 -1.000000 0.000000
vn -1.000000 -0.000002 0.000000
vn -1.000000 -0.000002 0.000000
vn -1.000000 -0.000002 0.000000
vn -1.000000 -0.000001 0.000000
vn 0.000000 0.000000 -1.000000
vn 0.000000 0.000000 -1.000000
vn 0.000000 0.000000 -1.000000
vn 0.000000 0.000000 -1.000000
vn 0.000000 -1.000000 0.000000
vn 0.000000 -1.000000 0.000000
vn 0.000000 -1.000000 0.000000
vn 0.000000 -1.000000 0.000000
vn 0.000000 -0.000001 1.000000
vn 0.000000 -0.000001 1.000000
vn 0.000000 -0.000001 1.000000
vn 0.000000 -0.000001 1.000000
vn 0.000000 1.000000 0.000000
vn 0.000000 1.000000 0.000000
vn 0.000000 1.000000 0.000000
vn 0.000000 1.000000 0.000000
s 1
g polySurface2 pPlane1
usemtl aiStandardSurface4SG
f 25/25/1 26/26/2 28/27/3
f 28/27/3 26/26/2 27/32/4
s 2
f 3/5/5 14/14/6 5/1/7
f 5/1/7 14/14/6 15/15/8
s 3
f 4/6/9 20/20/10 6/2/11
f 6/2/11 20/20/10 21/21/12
s 4
f 16/16/13 13/13/14 8/4/15
f 8/4/15 13/13/14 2/8/16
s 5
f 24/24/17 17/17/18 5/1/19
f 5/1/19 17/17/18 3/5/20
s 6
f 3/5/21 17/17/22 14/14/23
f 14/14/23 17/17/22 18/18/24
f 10/10/25 19/19/26 4/6/27
f 4/6/27 19/19/26 20/20/28
s 2
f 11/11/29 10/10/30 6/2/31
f 6/2/31 10/10/30 4/6/32
s 1
f 31/31/33 29/28/34 32/30/35
f 32/30/35 29/28/34 30/29/36
s 4
f 1/7/37 9/9/38 7/3/39
f 7/3/39 9/9/38 12/12/40
s 6
f 77/77/41 14/14/23 76/76/42
f 76/76/42 14/14/23 18/18/24
s 2
f 15/15/8 14/14/6 78/78/43
f 78/78/43 14/14/6 77/77/44
s 1
f 27/32/4 26/26/2 80/80/45
f 80/80/45 26/26/2 79/79/46
s 4
f 73/73/47 13/13/14 84/84/48
f 84/84/48 13/13/14 16/16/13
s 6
f 37/37/49 38/38/50 13/13/51
f 13/13/51 38/38/50 2/8/52
f 37/37/49 13/13/51 74/74/53
f 74/74/53 13/13/51 73/73/54
f 47/47/55 48/48/56 1/7/57
f 1/7/57 48/48/56 9/9/58
s 3
f 46/46/59 47/47/60 7/3/61
f 7/3/61 47/47/60 1/7/62
s 1
f 33/33/63 44/44/64 34/34/65
f 34/34/65 44/44/64 45/45/66
s 15
f 84/84/67 16/16/68 83/83/69
f 83/83/69 16/16/68 42/42/70
s 1
f 40/40/71 41/41/72 36/36/73
f 36/36/73 41/41/72 35/35/74
s 5
f 2/8/75 38/38/76 8/4/77
f 8/4/77 38/38/76 39/39/78
s 18
f 5/1/79 15/15/80 25/25/81
f 25/25/81 15/15/80 26/26/82
s 19
f 24/24/83 5/1/84 28/27/85
f 28/27/85 5/1/84 25/25/86
s 20
f 27/32/87 80/80/88 23/23/89
f 23/23/89 80/80/88 81/81/90
s 21
f 11/11/91 6/2/92 30/29/93
f 30/29/93 6/2/92 32/30/94
s 22
f 6/2/95 21/21/96 32/30/97
f 32/30/97 21/21/96 31/31/98
s 23
f 79/79/99 26/26/100 78/78/101
f 78/78/101 26/26/100 15/15/102
s 24
f 12/12/103 43/43/104 33/33/105
f 33/33/105 43/43/104 44/44/106
s 25
f 45/45/107 46/46/108 34/34/109
f 34/34/109 46/46/108 7/3/110
s 26
f 7/3/111 12/12/112 34/34/113
f 34/34/113 12/12/112 33/33/114
s 27
f 41/41/115 42/42/116 35/35/117
f 35/35/117 42/42/116 16/16/118
s 28
f 16/16/119 8/4/120 35/35/121
f 35/35/121 8/4/120 36/36/122
s 29
f 8/4/123 39/39/124 36/36/125
f 36/36/125 39/39/124 40/40/126
s 6
f 76/76/42 18/18/24 75/75/127
f 75/75/127 18/18/24 50/50/128
f 18/18/24 17/17/22 50/50/128
f 50/50/128 17/17/22 49/49/129
s 5
f 60/60/130 49/49/131 24/24/17
f 24/24/17 49/49/131 17/17/18
s 29
f 59/59/132 60/60/133 28/27/134
f 28/27/134 60/60/133 24/24/135
s 1
f 28/27/3 27/32/4 59/59/136
f 59/59/136 27/32/4 58/58/137
s 27
f 23/23/138 57/57/139 27/32/140
f 27/32/140 57/57/139 58/58/141
s 15
f 57/57/142 23/23/143 82/82/144
f 82/82/144 23/23/143 81/81/145
s 24
f 55/55/146 56/56/147 29/28/148
f 29/28/148 56/56/147 22/22/149
s 1
f 54/54/150 55/55/151 31/31/33
f 31/31/33 55/55/151 29/28/34
s 25
f 21/21/152 53/53/153 31/31/154
f 31/31/154 53/53/153 54/54/155
s 3
f 21/21/12 20/20/10 53/53/156
f 53/53/156 20/20/10 52/52/157
s 6
f 20/20/28 19/19/26 52/52/158
f 52/52/158 19/19/26 51/51/159
f 50/50/128 49/49/129 37/37/49
f 37/37/49 49/49/129 38/38/50
f 50/50/128 37/37/49 75/75/127
f 75/75/127 37/37/49 74/74/53
f 52/52/158 51/51/159 47/47/55
f 47/47/55 51/51/159 48/48/56
s 3
f 53/53/156 52/52/157 46/46/59
f 46/46/59 52/52/157 47/47/60
s 25
f 54/54/155 53/53/153 45/45/107
f 45/45/107 53/53/153 46/46/108
s 1
f 45/45/66 44/44/64 54/54/150
f 54/54/150 44/44/64 55/55/151
s 24
f 44/44/106 43/43/104 55/55/146
f 55/55/146 43/43/104 56/56/147
s 15
f 83/83/69 42/42/70 82/82/144
f 82/82/144 42/42/70 57/57/142
s 27
f 58/58/141 57/57/139 41/41/115
f 41/41/115 57/57/139 42/42/116
s 1
f 59/59/136 58/58/137 40/40/71
f 40/40/71 58/58/137 41/41/72
s 29
f 40/40/126 39/39/124 59/59/132
f 59/59/132 39/39/124 60/60/133
s 5
f 39/39/78 38/38/76 60/60/130
f 60/60/130 38/38/76 49/49/131
s 6
f 48/48/56 62/62/160 9/9/58
f 9/9/58 62/62/160 61/61/161
f 51/51/159 63/63/162 48/48/56
f 48/48/56 63/63/162 62/62/160
f 19/19/26 64/64/163 51/51/159
f 51/51/159 64/64/163 63/63/162
f 65/65/164 64/64/163 10/10/25
f 10/10/25 64/64/163 19/19/26
s 2
f 66/66/165 65/65/166 11/11/29
f 11/11/29 65/65/166 10/10/30
s 23
f 67/67/167 66/66/168 30/29/169
f 30/29/169 66/66/168 11/11/170
s 1
f 29/28/34 68/68/171 30/29/36
f 30/29/36 68/68/171 67/67/172
s 20
f 22/22/173 69/69/174 29/28/175
f 29/28/175 69/69/174 68/68/176
s 15
f 56/56/177 70/70/178 22/22/179
f 22/22/179 70/70/178 69/69/180
f 43/43/181 71/71/182 56/56/177
f 56/56/177 71/71/182 70/70/178
f 72/72/183 71/71/182 12/12/184
f 12/12/184 71/71/182 43/43/181
s 4
f 12/12/40 9/9/38 72/72/185
f 72/72/185 9/9/38 61/61/186
s 6
f 61/61/161 62/62/160 73/73/54
f 73/73/54 62/62/160 74/74/53
f 62/62/160 63/63/162 74/74/53
f 74/74/53 63/63/162 75/75/127
f 63/63/162 64/64/163 75/75/127
f 75/75/127 64/64/163 76/76/42
f 77/77/41 76/76/42 65/65/164
f 65/65/164 76/76/42 64/64/163
s 2
f 78/78/43 77/77/44 66/66/165
f 66/66/165 77/77/44 65/65/166
s 23
f 79/79/99 78/78/101 67/67/167
f 67/67/167 78/78/101 66/66/168
s 1
f 67/67/172 68/68/171 79/79/46
f 79/79/46 68/68/171 80/80/45
s 20
f 68/68/176 69/69/174 80/80/88
f 80/80/88 69/69/174 81/81/90
s 15
f 69/69/180 70/70/178 81/81/145
f 81/81/145 70/70/178 82/82/144
s 44
f 85/85/187 86/86/188 88/88/189
f 88/88/189 86/86/188 87/87/190
s 15
f 84/84/67 83/83/69 72/72/183
f 72/72/183 83/83/69 71/71/182
s 4
f 72/72/185 61/61/186 84/84/48
f 84/84/48 61/61/186 73/73/47
s 45
f 70/70/191 71/71/192 85/85/193
f 85/85/193 71/71/192 86/86/194
s 46
f 71/71/195 83/83/196 86/86/197
f 86/86/197 83/83/196 87/87/198
s 47
f 83/83/199 82/82/200 87/87/201
f 87/87/201 82/82/200 88/88/202
s 48
f 82/82/203 70/70/204 88/88/205
f 88/88/205 70/70/204 85/85/206
