# This file uses centimeters as units for non-parametric coordinates.

mtllib Silla pequeña.mtl
g default
v 8.295978 2.107459 -1.448414
v 11.459646 2.107459 -2.852280
v 8.295978 2.462702 -1.448414
v 11.459646 2.462702 -2.852280
v 6.892111 2.462702 -4.612083
v 10.055779 2.462702 -6.015950
v 6.892111 2.107459 -4.612083
v 10.055779 2.107459 -6.015950
v 7.594045 2.462702 -3.030249
v 7.594045 2.107459 -3.030249
v 10.757713 2.107459 -4.434115
v 10.757713 2.462702 -4.434115
v 9.877813 2.107459 -2.150348
v 9.877813 2.462702 -2.150348
v 9.175880 2.462702 -3.732182
v 8.473946 2.462702 -5.314017
v 8.473946 2.107459 -5.314017
v 9.175880 2.107459 -3.732182
v 8.155591 2.462702 -1.764781
v 8.155591 2.107459 -1.764781
v 9.737427 2.107459 -2.466715
v 11.319260 2.107459 -3.168648
v 11.319260 2.462702 -3.168648
v 9.737427 2.462702 -2.466715
v 7.032498 2.107459 -4.295716
v 7.032498 2.462702 -4.295716
v 8.614333 2.462702 -4.997650
v 10.196166 2.462702 -5.699582
v 10.196166 2.107459 -5.699582
v 8.614333 2.107459 -4.997650
v 8.612346 2.107459 -1.588801
v 8.612346 2.462702 -1.588801
v 8.471960 2.462702 -1.905168
v 7.910413 2.462702 -3.170636
v 7.348866 2.462702 -4.436104
v 7.208478 2.462702 -4.752470
v 7.208478 2.107459 -4.752470
v 7.348866 2.107459 -4.436104
v 7.910413 2.107459 -3.170636
v 8.471960 2.107459 -1.905168
v 10.441346 2.462702 -4.293729
v 11.002894 2.462702 -3.028261
v 11.143280 2.462702 -2.711895
v 11.143280 2.107459 -2.711895
v 11.002894 2.107459 -3.028261
v 10.441346 2.107459 -4.293729
v 9.879800 2.107459 -5.559196
v 9.739414 2.107459 -5.875563
v 9.739414 2.462702 -5.875563
v 9.879800 2.462702 -5.559196
v 8.155591 0.657117 -1.764781
v 8.471960 0.657117 -1.905168
v 8.612346 0.657117 -1.588801
v 8.295978 0.657117 -1.448414
v 6.892111 0.657117 -4.612083
v 7.208478 0.657117 -4.752470
v 7.348866 0.657117 -4.436104
v 7.032498 0.657117 -4.295716
v 10.196166 0.657117 -5.699582
v 9.879800 0.657117 -5.559196
v 9.739414 0.657117 -5.875563
v 10.055779 0.657117 -6.015950
v 11.143280 0.657117 -2.711895
v 11.002894 0.657117 -3.028261
v 11.319260 0.657117 -3.168648
v 11.459646 0.657117 -2.852280
v 10.441346 0.657117 -4.293729
v 10.757713 0.657117 -4.434115
v 8.473946 0.657117 -5.314017
v 8.614333 0.657117 -4.997650
v 9.737427 0.657117 -2.466715
v 9.877813 0.657117 -2.150348
v 8.155591 -0.000000 -1.764781
v 8.471960 -0.000000 -1.905168
v 8.612346 -0.000000 -1.588801
v 8.295978 -0.000000 -1.448414
v 6.892111 -0.000000 -4.612083
v 7.208478 -0.000000 -4.752470
v 7.348866 -0.000000 -4.436104
v 7.032498 -0.000000 -4.295716
v 10.196166 -0.000000 -5.699582
v 9.879800 -0.000000 -5.559196
v 9.739414 -0.000000 -5.875563
v 10.055779 -0.000000 -6.015950
v 11.143280 -0.000000 -2.711895
v 11.002894 -0.000000 -3.028261
v 11.319260 -0.000000 -3.168648
v 11.459646 -0.000000 -2.852280
v 8.295978 3.295193 -1.448414
v 8.612346 3.295193 -1.588801
v 8.471960 3.295193 -1.905168
v 8.155591 3.295193 -1.764781
v 7.032498 3.295193 -4.295716
v 7.348866 3.295193 -4.436104
v 7.208478 3.295193 -4.752470
v 6.892111 3.295193 -4.612083
v 11.319260 5.230524 -3.168648
v 11.002894 5.230524 -3.028261
v 11.143280 5.230524 -2.711895
v 11.459646 5.230524 -2.852280
v 9.739414 5.230524 -5.875563
v 9.879800 5.230524 -5.559196
v 10.196166 5.230524 -5.699582
v 10.055779 5.230524 -6.015950
v 10.441346 5.230524 -4.293729
v 10.757713 5.230524 -4.434115
v 9.877813 3.295193 -2.150348
v 9.737427 3.295193 -2.466715
v 8.614333 3.295193 -4.997650
v 8.473946 3.295193 -5.314017
vt 0.375000 0.000000
vt 0.625000 0.000000
vt 0.375000 0.250000
vt 0.625000 0.250000
vt 0.375000 0.500000
vt 0.625000 0.500000
vt 0.375000 0.750000
vt 0.625000 0.750000
vt 0.375000 1.000000
vt 0.625000 1.000000
vt 0.875000 0.000000
vt 0.875000 0.250000
vt 0.125000 0.000000
vt 0.125000 0.250000
vt 0.250000 0.250000
vt 0.375000 0.375000
vt 0.250000 0.000000
vt 0.375000 0.875000
vt 0.625000 0.875000
vt 0.750000 0.000000
vt 0.625000 0.375000
vt 0.750000 0.250000
vt 0.500000 0.000000
vt 0.500000 1.000000
vt 0.500000 0.250000
vt 0.500000 0.375000
vt 0.500000 0.500000
vt 0.500000 0.750000
vt 0.500000 0.875000
vt 0.350000 0.250000
vt 0.375000 0.275000
vt 0.350000 0.000000
vt 0.375000 0.975000
vt 0.500000 0.975000
vt 0.625000 0.975000
vt 0.650000 0.000000
vt 0.625000 0.275000
vt 0.650000 0.250000
vt 0.500000 0.275000
vt 0.150000 0.000000
vt 0.375000 0.775000
vt 0.150000 0.250000
vt 0.375000 0.475000
vt 0.500000 0.475000
vt 0.625000 0.475000
vt 0.850000 0.250000
vt 0.625000 0.775000
vt 0.850000 0.000000
vt 0.500000 0.775000
vt 0.400000 0.000000
vt 0.400000 1.000000
vt 0.400000 0.250000
vt 0.400000 0.275000
vt 0.400000 0.375000
vt 0.400000 0.475000
vt 0.400000 0.500000
vt 0.400000 0.750000
vt 0.400000 0.775000
vt 0.400000 0.875000
vt 0.400000 0.975000
vt 0.600000 0.375000
vt 0.600000 0.275000
vt 0.600000 0.250000
vt 0.600000 0.000000
vt 0.600000 1.000000
vt 0.600000 0.975000
vt 0.600000 0.875000
vt 0.600000 0.775000
vt 0.600000 0.750000
vt 0.600000 0.500000
vt 0.600000 0.475000
vt 0.375000 0.975000
vt 0.400000 0.975000
vt 0.400000 1.000000
vt 0.375000 1.000000
vt 0.375000 0.750000
vt 0.400000 0.750000
vt 0.400000 0.775000
vt 0.375000 0.775000
vt 0.600000 0.750000
vt 0.625000 0.750000
vt 0.625000 0.775000
vt 0.625000 0.975000
vt 0.625000 1.000000
vt 0.600000 1.000000
vt 0.600000 0.975000
vt 0.600000 0.875000
vt 0.625000 0.875000
vt 0.600000 0.775000
vt 0.500000 0.750000
vt 0.500000 0.775000
vt 0.500000 0.975000
vt 0.500000 1.000000
vt 0.375000 0.975000
vt 0.400000 0.975000
vt 0.400000 1.000000
vt 0.375000 1.000000
vt 0.375000 0.750000
vt 0.400000 0.750000
vt 0.400000 0.775000
vt 0.375000 0.775000
vt 0.625000 0.775000
vt 0.600000 0.775000
vt 0.600000 0.750000
vt 0.625000 0.750000
vt 0.600000 1.000000
vt 0.600000 0.975000
vt 0.625000 0.975000
vt 0.625000 1.000000
vt 0.375000 0.250000
vt 0.400000 0.250000
vt 0.400000 0.275000
vt 0.375000 0.275000
vt 0.375000 0.475000
vt 0.400000 0.475000
vt 0.400000 0.500000
vt 0.375000 0.500000
vt 0.600000 0.250000
vt 0.625000 0.250000
vt 0.625000 0.275000
vt 0.625000 0.475000
vt 0.625000 0.500000
vt 0.600000 0.500000
vt 0.600000 0.375000
vt 0.600000 0.275000
vt 0.625000 0.375000
vt 0.600000 0.475000
vt 0.500000 0.250000
vt 0.500000 0.275000
vt 0.500000 0.475000
vt 0.500000 0.500000
vn 0.405606 0.000000 0.914048
vn 0.405606 0.000000 0.914048
vn 0.405606 0.000000 0.914048
vn 0.405606 0.000000 0.914048
vn 0.000000 1.000000 0.000000
vn 0.000000 1.000000 0.000000
vn 0.000000 1.000000 0.000000
vn 0.000000 1.000000 0.000000
vn -0.405606 0.000000 -0.914048
vn -0.405606 0.000000 -0.914048
vn -0.405606 0.000000 -0.914048
vn -0.405606 0.000000 -0.914048
vn 0.000000 -1.000000 0.000000
vn 0.000000 -1.000000 0.000000
vn 0.000000 -1.000000 0.000000
vn 0.000000 -1.000000 0.000000
vn 0.914049 0.000000 -0.405603
vn 0.914049 0.000000 -0.405603
vn 0.914048 0.000000 -0.405605
vn 0.914048 0.000000 -0.405605
vn -0.914048 0.000000 0.405606
vn -0.914048 0.000000 0.405605
vn -0.914048 0.000000 0.405606
vn -0.914048 0.000000 0.405605
vn -0.914048 0.000000 0.405606
vn -0.914048 0.000000 0.405606
vn -0.914048 0.000000 0.405606
vn -0.914048 0.000000 0.405606
vn 0.000000 -1.000000 0.000000
vn 0.000000 -1.000000 0.000000
vn 0.000000 -1.000000 0.000000
vn 0.000000 -1.000000 0.000001
vn 0.914048 0.000000 -0.405606
vn 0.914048 0.000000 -0.405606
vn 0.914048 0.000000 -0.405606
vn 0.914048 0.000000 -0.405606
vn 0.000000 1.000000 0.000000
vn -0.000000 1.000000 -0.000000
vn -0.000000 1.000000 -0.000000
vn -0.000000 1.000000 -0.000000
vn 0.405605 0.000000 0.914048
vn 0.405606 0.000000 0.914048
vn 0.405605 0.000000 0.914048
vn 0.405606 0.000000 0.914048
vn 0.000000 1.000000 0.000000
vn 0.000000 1.000000 0.000000
vn -0.681367 0.666574 0.302354
vn -0.482369 0.849413 0.214050
vn 0.000000 1.000000 0.000000
vn -0.681367 0.666574 0.302354
vn -0.000000 1.000000 -0.000000
vn -0.482369 0.849413 0.214050
vn -0.405607 0.000000 -0.914048
vn -0.405606 0.000000 -0.914048
vn -0.405606 0.000000 -0.914048
vn -0.405606 0.000000 -0.914048
vn 0.000000 -1.000000 0.000000
vn 0.000000 -1.000000 0.000000
vn 0.000000 -1.000000 0.000000
vn 0.000000 -1.000000 0.000000
vn 0.000000 -1.000000 0.000000
vn 0.000000 -1.000000 0.000000
vn 0.000000 -1.000000 0.000000
vn 0.000000 -1.000000 0.000000
vn -0.914048 0.000000 0.405606
vn -0.914048 0.000000 0.405606
vn 0.000000 -1.000000 0.000000
vn 0.000000 -1.000000 0.000000
vn 0.000000 -1.000000 0.000000
vn 0.000000 -1.000000 0.000000
vn 0.000000 -1.000000 0.000000
vn -0.000000 -1.000000 -0.000000
vn 0.000000 -1.000000 0.000000
vn -0.000000 -1.000000 -0.000000
vn 0.914048 0.000000 -0.405606
vn 0.914048 0.000000 -0.405606
vn 0.000000 1.000000 0.000000
vn 0.000000 1.000000 0.000000
vn 0.000000 1.000000 0.000000
vn 0.000000 1.000000 0.000000
vn 0.000000 1.000000 0.000000
vn 0.000000 1.000000 0.000000
vn 0.000000 1.000000 0.000000
vn 0.000000 1.000000 0.000000
vn 0.000000 -1.000000 0.000000
vn 0.000000 -1.000000 0.000000
vn 0.000000 -1.000000 0.000000
vn 0.000000 -1.000000 0.000000
vn 0.405606 0.000000 0.914048
vn 0.405606 0.000000 0.914048
vn -0.523642 0.819638 0.232364
vn -0.523642 0.819638 0.232364
vn -0.000000 1.000000 -0.000000
vn 0.000000 1.000000 0.000000
vn 0.000000 1.000000 0.000000
vn -0.523642 0.819638 0.232364
vn -0.523642 0.819638 0.232364
vn -0.405606 0.000000 -0.914048
vn -0.405606 0.000000 -0.914048
vn -0.000000 -1.000000 0.000000
vn 0.000000 -1.000000 -0.000000
vn 0.000000 -1.000000 -0.000000
vn 0.000000 -1.000000 -0.000000
vn -0.000000 -1.000000 -0.000000
vn 0.000000 -1.000000 0.000000
vn 0.000000 -1.000000 0.000000
vn 0.000000 -1.000000 -0.000000
vn 0.000000 -1.000000 -0.000000
vn -0.000000 -1.000000 0.000000
vn 0.000000 -1.000000 -0.000000
vn -0.000000 1.000000 -0.000000
vn -0.000000 1.000000 -0.000000
vn -0.000000 -1.000000 0.000000
vn -0.000000 -1.000000 0.000000
vn -0.000000 -1.000000 -0.000000
vn 0.000000 -1.000000 0.000000
vn -0.000000 -1.000000 -0.000000
vn -0.000000 -1.000000 0.000000
vn -0.000000 -1.000000 0.000000
vn 0.000000 1.000000 0.000000
vn -0.405605 0.000000 -0.914049
vn -0.405605 0.000000 -0.914048
vn -0.405605 0.000000 -0.914049
vn -0.405605 0.000000 -0.914048
vn 0.405607 0.000000 0.914048
vn 0.405606 0.000000 0.914048
vn 0.405607 0.000000 0.914048
vn 0.405606 0.000000 0.914048
vn -0.914048 0.000000 0.405606
vn -0.914048 0.000000 0.405606
vn -0.914048 0.000000 0.405606
vn -0.914048 0.000000 0.405606
vn -0.405607 0.000000 -0.914048
vn -0.405606 0.000000 -0.914048
vn -0.405607 0.000000 -0.914048
vn -0.405606 0.000000 -0.914048
vn 0.405607 0.000000 0.914047
vn 0.405607 0.000000 0.914047
vn 0.405607 0.000000 0.914047
vn 0.405607 0.000000 0.914047
vn -0.914048 0.000000 0.405606
vn -0.914048 0.000000 0.405606
vn -0.914048 0.000000 0.405606
vn -0.914048 0.000000 0.405606
vn -0.405607 0.000000 -0.914048
vn -0.405607 0.000000 -0.914048
vn -0.405607 0.000000 -0.914048
vn -0.405607 0.000000 -0.914048
vn 0.914048 0.000000 -0.405606
vn 0.914048 0.000000 -0.405606
vn 0.914048 0.000000 -0.405606
vn 0.914048 0.000000 -0.405606
vn 0.914049 0.000000 -0.405603
vn 0.914049 0.000000 -0.405603
vn 0.914049 0.000000 -0.405603
vn 0.914049 0.000000 -0.405603
vn 0.405606 0.000000 0.914048
vn 0.405605 0.000000 0.914049
vn 0.405606 0.000000 0.914048
vn 0.405605 0.000000 0.914049
vn -0.914048 0.000000 0.405606
vn -0.914048 0.000000 0.405606
vn -0.914048 0.000000 0.405606
vn -0.914048 0.000000 0.405606
vn 0.914048 0.000000 -0.405606
vn 0.914048 0.000000 -0.405606
vn 0.914048 0.000000 -0.405606
vn 0.914048 0.000000 -0.405606
vn -0.914048 0.000000 0.405605
vn -0.914048 0.000000 0.405605
vn -0.914048 0.000000 0.405605
vn -0.914048 0.000000 0.405605
vn 0.914048 0.000000 -0.405606
vn 0.914048 0.000000 -0.405606
vn 0.914048 0.000000 -0.405606
vn 0.914048 0.000000 -0.405606
vn -0.405606 0.000000 -0.914048
vn -0.405605 0.000000 -0.914048
vn -0.405606 0.000000 -0.914048
vn -0.405605 0.000000 -0.914048
vn 0.405605 0.000000 0.914048
vn 0.405605 0.000000 0.914048
vn 0.405605 0.000000 0.914048
vn 0.405605 0.000000 0.914048
vn -0.405606 0.000000 -0.914048
vn -0.405606 0.000000 -0.914048
vn -0.405606 0.000000 -0.914048
vn -0.405606 0.000000 -0.914048
vn 0.405605 0.000000 0.914048
vn 0.405605 0.000000 0.914048
vn 0.405605 0.000000 0.914048
vn 0.405605 0.000000 0.914048
vn -0.405605 0.000000 -0.914048
vn -0.405605 0.000000 -0.914048
vn -0.405605 0.000000 -0.914048
vn -0.405605 0.000000 -0.914048
vn 0.405606 0.000000 0.914048
vn 0.405606 0.000000 0.914048
vn 0.405606 0.000000 0.914048
vn 0.405606 0.000000 0.914048
vn 0.405606 0.000000 0.914048
vn 0.405606 0.000000 0.914048
vn 0.405606 0.000000 0.914048
vn 0.405606 0.000000 0.914048
vn -0.405606 0.000000 -0.914048
vn -0.405605 0.000000 -0.914048
vn -0.405606 0.000000 -0.914048
vn -0.405605 0.000000 -0.914048
vn -0.405604 0.000000 -0.914049
vn -0.405605 0.000000 -0.914048
vn -0.405605 0.000000 -0.914049
vn -0.405605 0.000000 -0.914048
vn 0.914048 0.000000 -0.405606
vn 0.914048 0.000000 -0.405606
vn 0.914048 0.000000 -0.405606
vn 0.914048 0.000000 -0.405606
vn 0.405606 0.000000 0.914048
vn 0.405606 0.000000 0.914048
vn 0.405606 0.000000 0.914048
vn 0.405606 0.000000 0.914048
vn -0.914048 0.000000 0.405606
vn -0.914048 0.000000 0.405606
vn -0.914048 0.000000 0.405606
vn -0.914048 0.000000 0.405606
vn -0.405606 0.000000 -0.914048
vn -0.405606 0.000000 -0.914048
vn -0.405606 0.000000 -0.914048
vn -0.405606 0.000000 -0.914048
vn 0.914047 0.000000 -0.405608
vn 0.914047 0.000000 -0.405608
vn 0.914047 0.000000 -0.405608
vn 0.914047 0.000000 -0.405608
vn 0.405607 0.000000 0.914048
vn 0.405607 0.000000 0.914047
vn 0.405607 0.000000 0.914048
vn 0.405607 0.000000 0.914047
vn -0.914048 0.000000 0.405606
vn -0.914048 0.000000 0.405606
vn -0.914048 0.000000 0.405606
vn -0.914048 0.000000 0.405606
vn 0.405606 0.000000 0.914048
vn 0.405606 0.000000 0.914048
vn 0.405606 0.000000 0.914048
vn 0.405606 0.000000 0.914048
vn -0.914048 0.000000 0.405606
vn -0.914048 0.000000 0.405606
vn -0.914048 0.000000 0.405606
vn -0.914048 0.000000 0.405606
vn -0.405606 0.000000 -0.914048
vn -0.405607 0.000000 -0.914048
vn -0.405606 0.000000 -0.914048
vn -0.405607 0.000000 -0.914048
vn 0.914048 0.000000 -0.405606
vn 0.914048 0.000000 -0.405606
vn 0.914048 0.000000 -0.405606
vn 0.914048 0.000000 -0.405606
vn -0.914048 0.000000 0.405606
vn -0.914048 0.000000 0.405606
vn -0.914048 0.000000 0.405606
vn -0.914048 0.000000 0.405606
vn -0.405607 0.000000 -0.914048
vn -0.405607 0.000000 -0.914048
vn -0.405607 0.000000 -0.914048
vn -0.405607 0.000000 -0.914048
vn 0.914049 0.000000 -0.405603
vn 0.914049 0.000000 -0.405603
vn 0.914049 0.000000 -0.405603
vn 0.914049 0.000000 -0.405603
vn 0.405605 0.000000 0.914048
vn 0.405605 0.000000 0.914048
vn 0.405605 0.000000 0.914048
vn 0.405605 0.000000 0.914048
vn 0.405606 0.000000 0.914048
vn 0.405607 0.000000 0.914048
vn 0.405606 0.000000 0.914048
vn 0.405607 0.000000 0.914048
vn -0.405605 0.000000 -0.914048
vn -0.405604 0.000000 -0.914049
vn -0.405605 0.000000 -0.914048
vn -0.405604 0.000000 -0.914049
vn -0.914048 0.000000 0.405606
vn -0.914048 0.000000 0.405606
vn -0.914048 0.000000 0.405606
vn -0.914048 0.000000 0.405606
vn 0.405608 0.000000 0.914047
vn 0.405607 0.000000 0.914048
vn 0.405608 0.000000 0.914047
vn 0.405607 0.000000 0.914047
vn -0.405606 0.000000 -0.914048
vn -0.405607 0.000000 -0.914048
vn -0.405606 0.000000 -0.914048
vn -0.405607 0.000000 -0.914048
vn -0.914048 0.000000 0.405606
vn -0.914048 0.000000 0.405606
vn -0.914048 0.000000 0.405606
vn -0.914048 0.000000 0.405606
vn 0.405605 0.000000 0.914048
vn 0.405605 0.000000 0.914048
vn 0.405605 0.000000 0.914048
vn 0.405605 0.000000 0.914048
vn 0.914049 0.000000 -0.405603
vn 0.914049 0.000000 -0.405603
vn 0.914049 0.000000 -0.405603
vn 0.914049 0.000000 -0.405603
vn 0.914048 0.000000 -0.405606
vn 0.914048 0.000000 -0.405606
vn 0.914048 0.000000 -0.405606
vn 0.914048 0.000000 -0.405606
vn -0.405607 0.000000 -0.914048
vn -0.405606 0.000000 -0.914048
vn -0.405607 0.000000 -0.914048
vn -0.405606 0.000000 -0.914048
vn -0.914048 0.000000 0.405606
vn -0.914048 0.000000 0.405606
vn -0.914048 0.000000 0.405606
vn -0.914048 0.000000 0.405606
vn 0.914048 0.000000 -0.405606
vn 0.914048 0.000000 -0.405606
vn 0.914048 0.000000 -0.405606
vn 0.914048 0.000000 -0.405606
vn -0.914048 0.000000 0.405605
vn -0.914048 0.000000 0.405605
vn -0.914048 0.000000 0.405605
vn -0.914048 0.000000 0.405605
vn 0.914048 0.000000 -0.405606
vn 0.914048 0.000000 -0.405606
vn 0.914048 0.000000 -0.405606
vn 0.914048 0.000000 -0.405606
vn 0.405605 0.000000 0.914048
vn 0.405605 0.000000 0.914048
vn 0.405605 0.000000 0.914048
vn 0.405605 0.000000 0.914048
vn -0.405606 0.000000 -0.914048
vn -0.405606 0.000000 -0.914048
vn -0.405606 0.000000 -0.914048
vn -0.405606 0.000000 -0.914048
vn 0.405605 0.000000 0.914048
vn 0.405605 0.000000 0.914048
vn 0.405605 0.000000 0.914048
vn 0.405605 0.000000 0.914048
vn -0.405605 0.000000 -0.914048
vn -0.405606 0.000000 -0.914048
vn -0.405605 0.000000 -0.914048
vn -0.405606 0.000000 -0.914048
vn -0.405605 0.000000 -0.914048
vn -0.405605 0.000000 -0.914048
vn -0.405605 0.000000 -0.914048
vn -0.405605 0.000000 -0.914048
vn 0.405606 0.000000 0.914048
vn 0.405606 0.000000 0.914048
vn 0.405606 0.000000 0.914048
vn 0.405606 0.000000 0.914048
vn 0.405606 0.000000 0.914048
vn 0.405606 0.000000 0.914048
vn 0.405606 0.000000 0.914048
vn 0.405606 0.000000 0.914048
vn -0.405606 0.000000 -0.914048
vn -0.405605 0.000000 -0.914048
vn -0.405606 0.000000 -0.914048
vn -0.405605 0.000000 -0.914048
s 1
g pCube5
usemtl aiStandardSurface2SG
f 3/3/1 1/1/2 32/52/3
f 32/52/3 1/1/2 31/50/4
s 2
f 92/113/5 89/110/6 91/112/7
f 91/112/7 89/110/6 90/111/8
s 3
f 7/7/9 5/5/10 37/57/11
f 37/57/11 5/5/10 36/56/12
s 4
f 76/97/13 73/94/14 75/96/15
f 75/96/15 73/94/14 74/95/16
s 5
f 4/4/17 2/2/18 23/38/19
f 23/38/19 2/2/18 22/36/20
s 6
f 3/3/21 19/30/22 1/1/23
f 1/1/23 19/30/22 20/32/24
f 5/14/25 7/13/26 26/42/27
f 26/42/27 7/13/26 25/40/28
s 8
f 80/101/29 77/98/30 79/100/31
f 79/100/31 77/98/30 78/99/32
s 5
f 6/12/33 28/46/34 8/11/35
f 8/11/35 28/46/34 29/48/36
s 2
f 96/117/37 93/114/38 95/116/39
f 95/116/39 93/114/38 94/115/40
s 1
f 4/4/41 43/63/42 2/2/43
f 2/2/43 43/63/42 44/64/44
s 2
f 100/119/45 97/120/46 99/118/47
f 99/118/47 97/120/46 98/125/48
f 104/122/49 101/123/50 103/121/51
f 103/121/51 101/123/50 102/127/52
s 3
f 8/8/53 48/69/54 6/6/55
f 6/6/55 48/69/54 49/70/56
s 15
f 84/105/57 81/102/58 83/104/59
f 83/104/59 81/102/58 82/103/60
s 16
f 88/109/61 85/106/62 87/108/63
f 87/108/63 85/106/62 86/107/64
s 6
f 19/30/22 9/15/65 20/32/24
f 20/32/24 9/15/65 10/17/66
s 17
f 20/33/67 10/18/68 40/60/69
f 40/60/69 10/18/68 39/59/70
s 18
f 68/88/71 65/83/72 67/87/73
f 67/87/73 65/83/72 64/86/74
s 5
f 12/22/75 23/38/19 11/20/76
f 11/20/76 23/38/19 22/36/20
s 2
f 106/126/77 105/124/78 97/120/46
f 97/120/46 105/124/78 98/125/48
s 20
f 9/16/79 19/31/80 34/54/81
f 34/54/81 19/31/80 33/53/82
s 6
f 9/15/65 26/42/27 10/17/66
f 10/17/66 26/42/27 25/40/28
s 20
f 26/43/83 9/16/79 35/55/84
f 35/55/84 9/16/79 34/54/81
s 2
f 106/126/77 103/121/51 105/124/78
f 105/124/78 103/121/51 102/127/52
s 5
f 28/46/34 12/22/75 29/48/36
f 29/48/36 12/22/75 11/20/76
s 18
f 68/88/71 67/87/73 59/82/85
f 59/82/85 67/87/73 60/89/86
s 17
f 10/18/68 25/41/87 39/59/70
f 39/59/70 25/41/87 38/58/88
s 1
f 14/25/89 32/52/3 13/23/90
f 13/23/90 32/52/3 31/50/4
s 2
f 108/129/91 91/112/7 107/128/92
f 107/128/92 91/112/7 90/111/8
s 20
f 15/26/93 34/54/81 24/39/94
f 24/39/94 34/54/81 33/53/82
f 27/44/95 35/55/84 15/26/93
f 15/26/93 35/55/84 34/54/81
s 2
f 110/131/96 95/116/39 109/130/97
f 109/130/97 95/116/39 94/115/40
s 3
f 17/28/98 37/57/11 16/27/99
f 16/27/99 37/57/11 36/56/12
s 21
f 70/91/100 57/78/101 69/90/102
f 69/90/102 57/78/101 56/77/103
s 17
f 18/29/104 39/59/70 30/49/105
f 30/49/105 39/59/70 38/58/88
f 21/34/106 40/60/69 18/29/104
f 18/29/104 40/60/69 39/59/70
s 22
f 72/93/107 53/74/108 71/92/109
f 71/92/109 53/74/108 52/73/110
s 20
f 41/61/111 15/26/93 42/62/112
f 42/62/112 15/26/93 24/39/94
s 2
f 107/128/92 99/118/47 108/129/91
f 108/129/91 99/118/47 98/125/48
s 1
f 43/63/42 14/25/89 44/64/44
f 44/64/44 14/25/89 13/23/90
s 22
f 63/85/113 72/93/107 64/86/114
f 64/86/114 72/93/107 71/92/109
s 17
f 18/29/104 46/67/115 21/34/106
f 21/34/106 46/67/115 45/66/116
f 46/67/115 18/29/104 47/68/117
f 47/68/117 18/29/104 30/49/105
s 21
f 69/90/102 61/80/118 70/91/100
f 70/91/100 61/80/118 60/89/119
s 3
f 48/69/54 17/28/98 49/70/56
f 49/70/56 17/28/98 16/27/99
s 2
f 101/123/50 110/131/96 102/127/52
f 102/127/52 110/131/96 109/130/97
s 20
f 15/26/93 41/61/111 27/44/95
f 27/44/95 41/61/111 50/71/120
s 23
f 51/72/121 20/33/122 52/73/123
f 52/73/123 20/33/122 40/60/124
s 24
f 53/74/125 31/51/126 54/75/127
f 54/75/127 31/51/126 1/9/128
s 25
f 54/75/129 1/9/130 51/72/131
f 51/72/131 1/9/130 20/33/132
s 26
f 55/76/133 7/7/134 56/77/135
f 56/77/135 7/7/134 37/57/136
s 27
f 57/78/137 38/58/138 58/79/139
f 58/79/139 38/58/138 25/41/140
s 28
f 58/79/141 25/41/142 55/76/143
f 55/76/143 25/41/142 7/7/144
s 29
f 61/80/145 48/69/146 62/81/147
f 62/81/147 48/69/146 8/8/148
s 30
f 62/81/149 8/8/150 59/82/151
f 59/82/151 8/8/150 29/47/152
s 31
f 65/83/153 22/35/154 66/84/155
f 66/84/155 22/35/154 2/10/156
s 32
f 66/84/157 2/10/158 63/85/159
f 63/85/159 2/10/158 44/65/160
s 33
f 64/86/161 45/66/162 67/87/163
f 67/87/163 45/66/162 46/67/164
s 34
f 68/88/165 11/19/166 65/83/167
f 65/83/167 11/19/166 22/35/168
s 35
f 67/87/169 46/67/170 60/89/171
f 60/89/171 46/67/170 47/68/172
s 36
f 59/82/173 29/47/174 68/88/175
f 68/88/175 29/47/174 11/19/176
s 37
f 56/77/177 37/57/178 69/90/179
f 69/90/179 37/57/178 17/28/180
s 38
f 70/91/181 30/49/182 57/78/183
f 57/78/183 30/49/182 38/58/184
s 39
f 52/73/185 40/60/186 71/92/187
f 71/92/187 40/60/186 21/34/188
s 40
f 72/93/189 13/24/190 53/74/191
f 53/74/191 13/24/190 31/51/192
s 41
f 71/92/193 21/34/194 64/86/195
f 64/86/195 21/34/194 45/66/196
s 42
f 63/85/197 44/65/198 72/93/199
f 72/93/199 44/65/198 13/24/200
s 43
f 60/89/201 47/68/202 70/91/203
f 70/91/203 47/68/202 30/49/204
s 44
f 69/90/205 17/28/206 61/80/207
f 61/80/207 17/28/206 48/69/208
s 45
f 73/94/209 51/72/210 74/95/211
f 74/95/211 51/72/210 52/73/212
s 46
f 74/95/213 52/73/214 75/96/215
f 75/96/215 52/73/214 53/74/216
s 47
f 75/96/217 53/74/218 76/97/219
f 76/97/219 53/74/218 54/75/220
s 48
f 76/97/221 54/75/222 73/94/223
f 73/94/223 54/75/222 51/72/224
s 49
f 77/98/225 55/76/226 78/99/227
f 78/99/227 55/76/226 56/77/228
s 50
f 78/99/229 56/77/230 79/100/231
f 79/100/231 56/77/230 57/78/232
s 51
f 79/100/233 57/78/234 80/101/235
f 80/101/235 57/78/234 58/79/236
s 52
f 80/101/237 58/79/238 77/98/239
f 77/98/239 58/79/238 55/76/240
s 53
f 81/102/241 59/82/242 82/103/243
f 82/103/243 59/82/242 60/89/244
s 54
f 82/103/245 60/89/246 83/104/247
f 83/104/247 60/89/246 61/80/248
s 55
f 83/104/249 61/80/250 84/105/251
f 84/105/251 61/80/250 62/81/252
s 56
f 84/105/253 62/81/254 81/102/255
f 81/102/255 62/81/254 59/82/256
s 57
f 85/106/257 63/85/258 86/107/259
f 86/107/259 63/85/258 64/86/260
s 58
f 86/107/261 64/86/262 87/108/263
f 87/108/263 64/86/262 65/83/264
s 59
f 87/108/265 65/83/266 88/109/267
f 88/109/267 65/83/266 66/84/268
s 60
f 88/109/269 66/84/270 85/106/271
f 85/106/271 66/84/270 63/85/272
s 61
f 89/110/273 3/3/274 90/111/275
f 90/111/275 3/3/274 32/52/276
s 62
f 91/112/277 33/53/278 92/113/279
f 92/113/279 33/53/278 19/31/280
s 63
f 92/113/281 19/31/282 89/110/283
f 89/110/283 19/31/282 3/3/284
s 64
f 93/114/285 26/43/286 94/115/287
f 94/115/287 26/43/286 35/55/288
s 65
f 95/116/289 36/56/290 96/117/291
f 96/117/291 36/56/290 5/5/292
s 66
f 96/117/293 5/5/294 93/114/295
f 93/114/295 5/5/294 26/43/296
s 67
f 99/118/297 43/63/298 100/119/299
f 100/119/299 43/63/298 4/4/300
s 68
f 100/119/301 4/4/302 97/120/303
f 97/120/303 4/4/302 23/37/304
s 69
f 103/121/305 28/45/306 104/122/307
f 104/122/307 28/45/306 6/6/308
s 70
f 104/122/309 6/6/310 101/123/311
f 101/123/311 6/6/310 49/70/312
s 71
f 105/124/313 41/61/314 98/125/315
f 98/125/315 41/61/314 42/62/316
s 72
f 97/120/317 23/37/318 106/126/319
f 106/126/319 23/37/318 12/21/320
s 73
f 102/127/321 50/71/322 105/124/323
f 105/124/323 50/71/322 41/61/324
s 74
f 106/126/325 12/21/326 103/121/327
f 103/121/327 12/21/326 28/45/328
s 75
f 90/111/329 32/52/330 107/128/331
f 107/128/331 32/52/330 14/25/332
s 76
f 108/129/333 24/39/334 91/112/335
f 91/112/335 24/39/334 33/53/336
s 77
f 94/115/337 35/55/338 109/130/339
f 109/130/339 35/55/338 27/44/340
s 78
f 110/131/341 16/27/342 95/116/343
f 95/116/343 16/27/342 36/56/344
s 79
f 24/39/345 108/129/346 42/62/347
f 42/62/347 108/129/346 98/125/348
s 80
f 14/25/349 43/63/350 107/128/351
f 107/128/351 43/63/350 99/118/352
s 81
f 27/44/353 50/71/354 109/130/355
f 109/130/355 50/71/354 102/127/356
s 82
f 16/27/357 110/131/358 49/70/359
f 49/70/359 110/131/358 101/123/360
